<svg xmlns="http://www.w3.org/2000/svg" width="612" height="792"><g fill-rule="evenodd" clip-rule="evenodd"><path fill="#FFF" d="M209 300h192.756v192.756H209V300z"/><path fill="#007CC2" d="M339.844 411.225l4.546-29.833h10.75l-3.07 20.153h8.924l-1.48 9.68h-19.67zm-80.022 0l4.41-29.833h20.496l-1.24 8.06h-9.785l-.448 2.894h8.613l-1.067 7.65h-8.71l-.52 3.133h9.89l-1.24 8.09h-20.4zm-40.134-.035l.965-6.064c6.41 1.965 14.95 3.066 22.427 3.03-2.722 1.655-5.857 2.86-9.37 3.032h-14.022zm16.605-6.717c-9.128-.86-18.705-3.236-22.978-6.615-.86-.86-1.342-1.72-1.48-2.512v-.69c.274-1.654 2.413-2.997 6.615-3.86-8.2 2.756-4.41 6.202 3.065 8.405l2.618-17.81h14.4c5.786.21 9.783 2.8 11.747 6.45l.963-6.44h10.886l-2.55 16.813c-1.9-2.48-6.31-4.306-6.31-4.306s1.79 1.688 3.03 2.583c1.274.93 2.17 2.03 2.24 3.205.032 1.137-.52 1.895-2.45 2.928-2.24 1.24-6.993 1.894-8.474 2.067-3.34.275-7.303.172-11.333-.207zm0-14.262c-.723-.13-1.584-.2-2.55-.2l-1.687 11.716c1.447 0 2.93-.172 4.237-.69 1.964-.792 3.548-2.31 4.167-5.132.415-2.755-.723-5.03-4.167-5.684zm10.403 21.02l.516-3.48c1.758-.27 4.376-.65 7.13-1.24 1.897-.38 3.273-.86 4.204-1.55l-.963 6.27h-10.887zm35.207 0l4.546-29.83h14.29c3.062 0 5.34.725 6.782 2.17 1.172 1.105 1.756 2.515 1.79 4.307v.24c0 .45-.067.897-.14 1.41-.24 1.62-.857 2.965-1.822 4.067-.966 1.07-2.207 1.79-3.72 2.103 1.96.41 3.305 1.203 4.13 2.373.83 1.173 1.07 2.757.76 4.72-.413 2.79-1.69 4.893-3.756 6.305-2.1 1.41-4.96 2.136-8.61 2.136H281.9zm13.95-22.77h-.414l-.62 4.2h1.37c.895 0 1.583-.17 2.065-.55.52-.34.827-.89.93-1.55.104-.69-.035-1.21-.447-1.55-.414-.38-1.033-.55-1.895-.55h-1zm0 10.61h-2.03l-.725 4.79h1.792c.344 0 .69-.03.965-.067.654-.104 1.17-.275 1.618-.55.622-.415 1-1 1.138-1.757.11-.793-.1-1.38-.62-1.79-.44-.38-1.17-.59-2.13-.622z"/><path fill="#007CC2" d="M325.342 411.88a19.34 19.34 0 0 1-2.482.136c-2.343 0-4.478-.38-6.405-1.17-1.93-.758-3.548-1.895-4.928-3.375-1.31-1.44-2.24-3.1-2.72-4.96-.518-1.89-.586-3.92-.242-6.16.38-2.203 1.102-4.27 2.204-6.13a17.036 17.036 0 0 1 4.34-4.96 20.677 20.677 0 0 1 5.99-3.375 19.81 19.81 0 0 1 4.24-1 20.93 20.93 0 0 1 2.55-.136c2.37 0 4.51.376 6.44 1.134 1.93.793 3.58 1.895 4.92 3.376a11.77 11.77 0 0 1 2.756 4.96c.48 1.896.552 3.927.207 6.133-.346 2.202-1.068 4.235-2.205 6.13-1.104 1.86-2.586 3.547-4.41 5.03a19.968 19.968 0 0 1-5.96 3.34 18.694 18.694 0 0 1-4.305 1.03zm0-21.15c-1.31.17-2.482.653-3.48 1.515-1.275 1.033-2.066 2.41-2.343 4.1-.31 1.72 0 3.065.89 4.1.86 1.032 2.2 1.548 3.96 1.548.342 0 .652-.033.964-.068 1.344-.137 2.514-.654 3.547-1.48 1.24-1.033 1.997-2.38 2.308-4.1.31-1.688 0-3.065-.86-4.1-.897-1.068-2.205-1.585-3.96-1.585-.35 0-.693.034-1.036.07zm36.17 20.495l4.684-29.833h8.922c1 0 1.93.035 2.826.07 1.652.07 3.064.208 4.34.413 1.964.276 3.514.758 4.686 1.413 2.41 1.344 4.168 3.135 5.236 5.375.756 1.55 1.135 3.272 1.135 5.132v.137c0 .758-.06 1.55-.2 2.378-.442 2.857-1.55 5.408-3.31 7.648-1.75 2.238-4.06 4.03-6.96 5.406-1.34.62-2.99 1.068-4.92 1.38-.07 0-.14.032-.24.032-2.033.31-4.72.45-8.095.45h-8.095zm16.43-20.566a14 14 0 0 0-1.79-.11h-.484l-1.79 11.54c1.618 0 2.963-.208 4.065-.587a5.292 5.292 0 0 0 1.584-.828c1.31-.933 2.1-2.378 2.41-4.376.312-1.93-.033-3.378-.963-4.343-.69-.654-1.69-1.1-3.03-1.308zm18.155-8.06h-1.034v3.03h.38v-1.31h.275c.137 0 .275 0 .38.03.067.03.136.03.17.07.14.1.312.31.52.72l.308.482h.482l-.31-.553a6.418 6.418 0 0 1-.24-.38c-.105-.135-.208-.24-.24-.274a.704.704 0 0 0-.243-.138c.242-.037.45-.14.586-.244.21-.17.32-.38.32-.62s-.103-.413-.274-.585c-.207-.17-.52-.24-.932-.24h-.137zm2.824 1.61c0 .76-.27 1.45-.82 1.963a2.69 2.69 0 0 1-1.994.827c-.76 0-1.412-.272-1.964-.825-.55-.515-.826-1.204-.826-1.963a2.7 2.7 0 0 1 .824-1.998c.552-.55 1.205-.83 1.964-.83a2.7 2.7 0 0 1 1.997.83c.553.55.828 1.205.828 1.996zm-2.82 2.445c.69 0 1.28-.24 1.76-.723.52-.448.76-1.034.76-1.724s-.24-1.273-.757-1.756c-.482-.48-1.066-.72-1.756-.72s-1.274.24-1.757.722a2.392 2.392 0 0 0-.726 1.756c0 .69.244 1.274.727 1.72a2.39 2.39 0 0 0 1.758.724zm0-2.686h-.65v-1.033h.654c.41 0 .654.033.758.137a.553.553 0 0 1 .173.38c0 .103-.035.17-.106.274a.397.397 0 0 1-.24.173c-.105.03-.31.067-.587.067z"/></g></svg>