<?xml version="1.0" encoding="utf-8"?>
<!-- Generator: Adobe Illustrator 14.0.0, SVG Export Plug-In . SVG Version: 6.00 Build 43363)  -->
<!DOCTYPE svg PUBLIC "-//W3C//DTD SVG 1.1//EN" "http://www.w3.org/Graphics/SVG/1.1/DTD/svg11.dtd">
<svg version="1.1" id="Layer_1" xmlns="http://www.w3.org/2000/svg" xmlns:xlink="http://www.w3.org/1999/xlink" x="0px" y="0px"
	 width="612px" height="792px" viewBox="0 0 612 792" enable-background="new 0 0 612 792" xml:space="preserve">
<g>
	<polygon fill-rule="evenodd" clip-rule="evenodd" fill="#FFFFFF" points="209,300 401.756,300 401.756,492.756 209,492.756 
		209,300 	"/>
	<polygon fill-rule="evenodd" clip-rule="evenodd" fill="#007CC2" points="339.844,411.225 344.39,381.392 355.139,381.392 
		352.071,401.545 360.994,401.545 359.514,411.225 339.844,411.225 	"/>
	<polygon fill-rule="evenodd" clip-rule="evenodd" fill="#007CC2" points="259.822,411.225 264.231,381.392 284.728,381.392 
		283.487,389.453 273.703,389.453 273.255,392.346 281.868,392.346 280.801,399.996 272.085,399.996 271.567,403.129 
		281.455,403.129 280.214,411.225 259.822,411.225 	"/>
	<path fill-rule="evenodd" clip-rule="evenodd" fill="#007CC2" d="M219.688,411.189l0.965-6.063
		c6.409,1.965,14.95,3.066,22.427,3.031c-2.722,1.654-5.857,2.859-9.37,3.031H219.688L219.688,411.189z"/>
	<path fill-rule="evenodd" clip-rule="evenodd" fill="#007CC2" d="M236.293,404.473c-9.128-0.861-18.705-3.236-22.978-6.615
		c-0.86-0.859-1.342-1.721-1.481-2.512v-0.69c0.275-1.654,2.414-2.997,6.616-3.859c-8.2,2.755-4.41,6.201,3.065,8.404l2.618-17.81
		h12.16h2.239c5.787,0.207,9.784,2.792,11.748,6.442l0.963-6.442h10.886l-2.55,16.812c-1.895-2.48-6.302-4.306-6.302-4.306
		s1.792,1.688,3.03,2.583c1.276,0.93,2.17,2.032,2.239,3.206c0.035,1.137-0.516,1.895-2.446,2.928
		c-2.239,1.238-6.993,1.893-8.474,2.066C244.286,404.955,240.323,404.852,236.293,404.473L236.293,404.473z M236.293,390.211
		c-0.723-0.137-1.584-0.207-2.549-0.207l-1.688,11.713c1.447,0,2.929-0.172,4.237-0.688c1.964-0.793,3.548-2.311,4.167-5.133
		C240.875,393.14,239.737,390.866,236.293,390.211L236.293,390.211z M246.696,411.225l0.516-3.479
		c1.758-0.275,4.376-0.654,7.131-1.24c1.896-0.381,3.272-0.863,4.203-1.551l-0.963,6.27H246.696L246.696,411.225z"/>
	<path fill-rule="evenodd" clip-rule="evenodd" fill="#007CC2" d="M281.903,411.225l4.546-29.833h9.405h4.89
		c3.067,0,5.339,0.725,6.787,2.171c1.172,1.104,1.756,2.514,1.791,4.306v0.243c0,0.447-0.068,0.895-0.139,1.41
		c-0.24,1.62-0.859,2.963-1.824,4.065c-0.965,1.069-2.206,1.792-3.72,2.103c1.963,0.412,3.306,1.205,4.132,2.375
		c0.829,1.174,1.068,2.758,0.758,4.721c-0.412,2.789-1.688,4.893-3.755,6.305c-2.1,1.412-4.96,2.135-8.61,2.135h-0.311H281.903
		L281.903,411.225z M295.854,388.455h-0.415l-0.619,4.203h1.034h0.343c0.897,0,1.585-0.172,2.067-0.551
		c0.518-0.344,0.827-0.895,0.93-1.549c0.104-0.69-0.035-1.208-0.447-1.551c-0.414-0.379-1.033-0.551-1.895-0.551H295.854
		L295.854,388.455z M295.854,399.064c-0.069,0-0.139,0-0.243,0h-1.789l-0.726,4.787h1.792c0.344,0,0.689-0.033,0.965-0.068
		c0.654-0.104,1.17-0.275,1.618-0.551c0.621-0.414,1-0.998,1.137-1.756c0.104-0.793-0.104-1.379-0.619-1.791
		C297.542,399.305,296.817,399.098,295.854,399.064L295.854,399.064z"/>
	<path fill-rule="evenodd" clip-rule="evenodd" fill="#007CC2" d="M325.342,411.879c-0.794,0.104-1.62,0.137-2.482,0.137
		c-2.343,0-4.478-0.379-6.405-1.17c-1.931-0.758-3.548-1.895-4.928-3.375c-1.309-1.449-2.239-3.102-2.72-4.961
		c-0.518-1.895-0.586-3.928-0.242-6.166c0.379-2.206,1.102-4.272,2.204-6.133c1.104-1.895,2.55-3.583,4.341-4.96
		c1.827-1.481,3.823-2.583,5.994-3.376c1.377-0.483,2.79-0.827,4.238-0.998c0.86-0.104,1.688-0.137,2.549-0.137
		c2.376,0,4.512,0.377,6.441,1.135c1.929,0.793,3.581,1.895,4.926,3.376c1.309,1.413,2.238,3.065,2.756,4.96
		c0.481,1.896,0.552,3.927,0.207,6.133c-0.346,2.203-1.068,4.236-2.205,6.131c-1.103,1.859-2.585,3.547-4.41,5.031
		c-1.791,1.445-3.788,2.582-5.958,3.34C328.234,411.361,326.822,411.709,325.342,411.879L325.342,411.879z M325.342,390.729
		c-1.31,0.171-2.482,0.654-3.48,1.516c-1.275,1.033-2.066,2.411-2.343,4.099c-0.31,1.721,0,3.066,0.896,4.1
		c0.861,1.033,2.205,1.549,3.962,1.549c0.344,0,0.654-0.033,0.966-0.068c1.344-0.137,2.514-0.654,3.547-1.48
		c1.241-1.033,1.997-2.379,2.308-4.1c0.311-1.688,0-3.065-0.861-4.099c-0.896-1.069-2.204-1.586-3.96-1.586
		C326.028,390.659,325.685,390.694,325.342,390.729L325.342,390.729z"/>
	<path fill-rule="evenodd" clip-rule="evenodd" fill="#007CC2" d="M361.512,411.225l4.684-29.833h8.922
		c0.999,0,1.929,0.035,2.826,0.071c1.652,0.068,3.064,0.207,4.341,0.412c1.963,0.276,3.513,0.758,4.685,1.413
		c2.411,1.344,4.168,3.135,5.236,5.375c0.756,1.549,1.135,3.272,1.135,5.132v0.137c0,0.758-0.068,1.551-0.205,2.378
		c-0.447,2.857-1.551,5.408-3.308,7.648c-1.757,2.238-4.065,4.029-6.959,5.406c-1.342,0.621-2.997,1.068-4.925,1.379
		c-0.069,0-0.14,0.033-0.241,0.033c-2.034,0.311-4.72,0.449-8.096,0.449H361.512L361.512,411.225z M377.943,390.659
		c-0.519-0.069-1.138-0.102-1.792-0.102h-0.483l-1.791,11.539c1.619,0,2.964-0.205,4.066-0.584c0.618-0.207,1.137-0.482,1.584-0.828
		c1.309-0.932,2.101-2.377,2.411-4.375c0.311-1.929-0.034-3.377-0.964-4.342C380.285,391.313,379.285,390.866,377.943,390.659
		L377.943,390.659z"/>
	<path fill-rule="evenodd" clip-rule="evenodd" fill="#007CC2" d="M396.097,382.6h-1.034v3.03h0.38v-1.309h0.275
		c0.137,0,0.275,0,0.379,0.035c0.068,0.033,0.137,0.033,0.172,0.068c0.139,0.104,0.311,0.31,0.518,0.722l0.309,0.483h0.482
		l-0.311-0.551c-0.068-0.103-0.137-0.207-0.24-0.379c-0.104-0.136-0.207-0.24-0.24-0.275c-0.035-0.036-0.139-0.104-0.242-0.137
		c0.242-0.035,0.449-0.139,0.586-0.242c0.207-0.172,0.311-0.379,0.311-0.619c0-0.243-0.104-0.415-0.275-0.587
		c-0.207-0.171-0.518-0.24-0.932-0.24H396.097L396.097,382.6z M398.921,384.217c0,0.759-0.274,1.448-0.828,1.964
		c-0.548,0.553-1.205,0.826-1.996,0.826c-0.759,0-1.412-0.273-1.964-0.826c-0.551-0.516-0.826-1.205-0.826-1.964
		c0-0.791,0.275-1.445,0.826-1.996c0.552-0.551,1.205-0.829,1.964-0.829c0.791,0,1.448,0.278,1.996,0.829
		C398.646,382.771,398.921,383.426,398.921,384.217L398.921,384.217z M396.097,386.663c0.689,0,1.273-0.241,1.756-0.723
		c0.518-0.447,0.758-1.033,0.758-1.723c0-0.689-0.24-1.273-0.758-1.756c-0.482-0.483-1.066-0.723-1.756-0.723
		s-1.274,0.24-1.757,0.723c-0.482,0.482-0.725,1.067-0.725,1.756c0,0.69,0.242,1.276,0.725,1.723
		C394.822,386.422,395.407,386.663,396.097,386.663L396.097,386.663z M396.097,383.977c-0.068,0-0.172,0-0.242,0h-0.412v-1.033
		h0.586c0.033,0,0.068,0,0.068,0c0.412,0,0.654,0.033,0.758,0.137c0.104,0.104,0.172,0.242,0.172,0.379
		c0,0.104-0.033,0.172-0.104,0.275c-0.068,0.104-0.137,0.139-0.24,0.174C396.579,383.941,396.372,383.977,396.097,383.977
		L396.097,383.977z"/>
</g>
</svg>
