<?xml version="1.0" encoding="utf-8"?>
<svg version="1.1" id="Layer_1" xmlns="http://www.w3.org/2000/svg" xmlns:xlink="http://www.w3.org/1999/xlink" x="0px" y="0px"
	 width="200px" height="191px" viewBox="-299 550 200 191" style="enable-background:new -299 550 200 191;" xml:space="preserve">
<style type="text/css">
	.st0{fill:#FFFFFF;}
</style>
<path class="st0" d="M-104.8,706.5l-19.2-19.2v8.5h-13.6c-6.9,8.9-15.6,16.2-25.6,21.4h39.3v8.5L-104.8,706.5L-104.8,706.5z"/>
<g>
	<path class="st0" d="M-237.3,687.2c-15.5-9.8-25.9-27.2-25.9-46.9c0-25.1,16.7-46.3,39.6-53.1l-11.7-11.7l10.1-10.1
		c-34,7.9-59.5,38.5-59.5,74.9c0,17.6,6,33.9,16,46.9H-237.3z"/>
	<path class="st0" d="M-207.4,563.5v-7.2l-19.2,19.2l19.2,19.2v-9.9c30.4,0.2,55.1,25,55.1,55.4c0,30.6-24.9,55.4-55.4,55.4h-85.5
		v21.4h85.5c42.4,0,76.9-34.5,76.9-76.9C-130.9,598-165.2,563.6-207.4,563.5L-207.4,563.5z"/>
</g>
</svg>
