<?xml version="1.0" encoding="utf-8"?>
<!-- Generator: Adobe Illustrator 15.0.0, SVG Export Plug-In . SVG Version: 6.00 Build 0)  -->
<!DOCTYPE svg PUBLIC "-//W3C//DTD SVG 1.1//EN" "http://www.w3.org/Graphics/SVG/1.1/DTD/svg11.dtd">
<svg version="1.1" id="Calque_1" xmlns="http://www.w3.org/2000/svg" xmlns:xlink="http://www.w3.org/1999/xlink" x="0px" y="0px"
	 width="200px" height="200px" viewBox="0 0 200 200" enable-background="new 0 0 200 200" xml:space="preserve">
<path fill="#FFFFFF" d="M194.219,165.475l-19.246-19.244v8.523h-13.615c-6.854,8.887-15.604,16.24-25.641,21.443h39.256v8.523
	L194.219,165.475z"/>
<g>
	<path fill="#FFFFFF" d="M61.669,146.176c-15.528-9.834-25.867-27.154-25.867-46.855c0-25.067,16.73-46.29,39.608-53.118
		L63.733,34.525l10.09-10.09c-34.03,7.91-59.464,38.483-59.464,74.886c0,17.623,5.964,33.875,15.974,46.855H61.669z"/>
	<path fill="#FFFFFF" d="M91.557,22.449v-7.17L72.311,34.525l19.246,19.246v-9.873c30.417,0.174,55.11,24.966,55.11,55.423
		c0,30.566-24.866,55.433-55.432,55.433H5.781v21.443h85.454c42.389,0,76.876-34.486,76.876-76.876
		C168.111,57.039,133.798,22.624,91.557,22.449z"/>
</g>
</svg>
