<svg xmlns="http://www.w3.org/2000/svg" width="200" height="200"><path fill="#FFF" d="M194.22 165.475l-19.247-19.244v8.526h-13.615a77.417 77.417 0 0 1-25.64 21.443h39.255v8.522l19.246-19.244z"/><g fill="#FFF"><path d="M61.67 146.176C46.14 136.342 35.8 119.022 35.8 99.32c0-25.066 16.73-46.29 39.608-53.117L63.733 34.525l10.09-10.09C39.793 32.345 14.36 62.918 14.36 99.32c0 17.624 5.963 33.876 15.973 46.856H61.67z"/><path d="M91.557 22.45v-7.17L72.31 34.524 91.558 53.77V43.9c30.417.174 55.11 24.966 55.11 55.423 0 30.567-24.866 55.434-55.432 55.434H5.78V176.2h85.455c42.39 0 76.876-34.486 76.876-76.876 0-42.28-34.31-76.696-76.55-76.87z"/></g></svg>