<svg id="Layer_1" xmlns="http://www.w3.org/2000/svg" viewBox="0 0 200 211.8"><style>.st0{fill-rule:evenodd;clip-rule:evenodd;fill:#fff}</style><path class="st0" d="M126.1 51.2c-2.2 1.9-4.4 3.6-6.8 5l.2.5v111.1c4.6 4.7 7 10.3 7.3 16.6v2.1c-.2 6.9-2.7 12.8-7.7 17.6-4.9 5-10.8 7.5-17.6 7.7h-3c-6.8-.2-12.7-2.7-17.6-7.7-5-4.9-7.5-10.8-7.7-17.6v-2.1c.3-6.3 2.7-11.9 7.3-16.6V56.6l.2-.5c-2.4-1.3-4.7-3-6.9-5-7.1-6.3-10.8-13.8-11-22.6V27c.2-8.7 3.9-16.3 11-22.4 2-1.8 4.2-3.3 6.4-4.6v27.3L100 40l19.7-12.7V0c2.2 1.3 4.4 2.9 6.4 4.6 7.1 6.2 10.8 13.7 11 22.4v1.5c-.2 8.9-3.8 16.4-11 22.7zm73.9 70.5l-54.3 34.8v-26.2l34.4-20.6-34.4-21.4V62.7l54.3 35v24zm-200 0l54.3 34.8v-26.2l-34.4-20.6 34.4-21.4V62.7L0 97.7v24zm100 48.7l13.3 8v12.8L100 201.5l-13.4-10.4v-12.8l13.4-7.9z"/></svg>