<?xml version="1.0" encoding="utf-8"?>
<!-- Generator: Adobe Illustrator 19.1.0, SVG Export Plug-In . SVG Version: 6.00 Build 0)  -->
<svg version="1.1" id="Layer_1" xmlns="http://www.w3.org/2000/svg" xmlns:xlink="http://www.w3.org/1999/xlink" x="0px" y="0px"
	 viewBox="0 0 200 211.8" style="enable-background:new 0 0 200 211.8;" xml:space="preserve">
<style type="text/css">
	.st0{fill-rule:evenodd;clip-rule:evenodd;fill:#FFF;}
</style>
<g>
	<path class="st0" d="M126.1,51.2c-2.2,1.9-4.4,3.6-6.8,5l0.2,0.5v111.1c4.6,4.7,7,10.3,7.3,16.6v2.1c-0.2,6.9-2.7,12.8-7.7,17.6
		c-4.9,5-10.8,7.5-17.6,7.7h-3c-6.8-0.2-12.7-2.7-17.6-7.7c-5-4.9-7.5-10.8-7.7-17.6v-2.1c0.3-6.3,2.7-11.9,7.3-16.6V56.6l0.2-0.5
		c-2.4-1.3-4.7-3-6.9-5c-7.1-6.3-10.8-13.8-11-22.6v-1.5c0.2-8.7,3.9-16.3,11-22.4c2-1.8,4.2-3.3,6.4-4.6v27.3L100,40l19.7-12.7V0
		c2.2,1.3,4.4,2.9,6.4,4.6c7.1,6.2,10.8,13.7,11,22.4v1.5C136.9,37.4,133.3,44.9,126.1,51.2L126.1,51.2z M200,121.7l-54.3,34.8
		v-26.2l34.4-20.6l-34.4-21.4V62.7l54.3,35V121.7L200,121.7z M0,121.7l54.3,34.8v-26.2l-34.4-20.6l34.4-21.4V62.7L0,97.7V121.7
		L0,121.7z M100,170.4l13.3,8v12.8L100,201.5l-13.4-10.4v-12.8L100,170.4L100,170.4z"/>
</g>
</svg>
