<svg id="Layer_1" xmlns="http://www.w3.org/2000/svg" viewBox="0 0 203.2 172.7"><style>.st0{fill-rule:evenodd;clip-rule:evenodd;fill:#fff}</style><path class="st0" d="M203.2 80.6v11.6c-4.4.8-7.2 2.6-8.5 5.5-1.4 2.7-2 8.3-2 16.9v34.9c0 3.8-.5 7.1-1.6 10-1 2.9-2.6 5.3-4.9 7.3-2.1 2-4.7 3.5-7.8 4.6-3.2 1-6.8 1.4-10.8 1.4h-10.7v-12.5h5.6c5.9 0 10-1 12.5-3 2.3-2 3.4-5.5 3.4-10.7v-28.7c0-11.5.5-19 1.7-22.7 1.2-3.6 4-6.5 8.3-8.7-4.4-2-7.1-4.8-8.3-8.5-1.1-3.7-1.7-11.3-1.7-22.9V26.2c0-5.1-1.1-8.6-3.4-10.6-2.5-2.1-6.6-3.2-12.5-3.2h-5.6V0h10.7c4 0 7.6.5 10.8 1.6 3.1 1 5.7 2.5 7.8 4.4 2.2 2 3.8 4.4 4.9 7.4 1.1 2.9 1.6 6.1 1.6 9.8V58c0 8.7.7 14.5 2 17.3 1.2 2.6 4 4.4 8.5 5.3zM24.7 1.6C21.7 2.5 19.1 4 17 6c-2.2 2-3.8 4.4-4.9 7.4-1.1 2.9-1.6 6.1-1.6 9.8V58c0 8.7-.7 14.5-2 17.3-1.1 2.7-4 4.5-8.4 5.3v11.6c4.4.8 7.1 2.6 8.4 5.5 1.4 2.7 2 8.3 2 16.9v34.9c0 3.8.5 7.1 1.6 10s2.7 5.3 4.9 7.3c2.1 2 4.7 3.5 7.7 4.6 3.2 1 6.8 1.4 10.9 1.4h10.6v-12.5h-5.6c-5.8 0-10-1-12.4-3-2.3-2-3.5-5.5-3.5-10.7v-28.7c0-11.5-.5-19-1.7-22.7-1.1-3.6-4-6.5-8.3-8.7 4.4-2 7.2-4.8 8.3-8.5 1.1-3.7 1.7-11.3 1.7-22.9V26.2c0-5.1 1.1-8.6 3.5-10.6 2.5-2.1 6.6-3.2 12.4-3.2h5.6V0H35.6c-4 0-7.6.5-10.9 1.6zm28.2 28.1h97.3v15.8H52.9V29.7zm97.3 48.8v15.8H52.9V78.5h97.3zm0 64.6H52.9v-15.8h97.3v15.8z"/></svg>