<svg xmlns="http://www.w3.org/2000/svg" xmlns:xlink="http://www.w3.org/1999/xlink" preserveAspectRatio="none" width="50" height="40"><defs><g id="a" fill="#fff"><path fill-opacity=".2" d="M40 20l-5 10h10l-5-10m10 20l-5-10-5 10h10z"/><path fill-opacity=".298" d="M25 30l-5-10-5 10h10m15-10H30l5 10 5-10M15 30l-5 10h10l-5-10m20-20L30 0l-5 10h10z"/><path fill-opacity=".478" d="M35 30l-5 10h10l-5-10M0 40h10L5 30 0 40z"/><path fill-opacity=".537" d="M35 30H25l5 10 5-10m-20 0H5l5 10 5-10z"/><path fill-opacity=".6" d="M25 30h10l-5-10-5 10M5 30h10l-5-10-5 10z"/><path fill-opacity=".659" d="M25 30l5-10H20l5 10m-5-10H10l5 10 5-10z"/><path fill-opacity=".718" d="M30 20l-5-10-5 10h10M15 10l-5 10h10l-5-10z"/><path fill-opacity=".776" d="M15 10l5 10 5-10H15z"/><path fill-opacity=".839" d="M20 0l-5 10h10L20 0z"/><path fill-opacity=".898" d="M25 10l5-10H20l5 10z"/></g></defs><use xlink:href="#a"/></svg>