<svg xmlns="http://www.w3.org/2000/svg" xmlns:xlink="http://www.w3.org/1999/xlink" preserveAspectRatio="none" width="300" height="300"><defs><filter id="u" x="-20%" y="-20%" width="140%" height="140%" color-interpolation-filters="sRGB"><feFlood flood-color="#000" flood-opacity=".298" result="result1"/><feComposite in2="SourceGraphic" in="result1" operator="in" result="result2"/><feGaussianBlur in="result2" stdDeviation="0.6666666666666666,0.6666666666666666" result="result3"/><feOffset dx="5" in="result3" result="result4"/><feComposite in2="result4" in="SourceGraphic" result="result5"/></filter><g id="a"><path fill="#FFE680" d="M200.05 250v50h50v-50h-50m0-150v50h50v-50h-50m-50 150v-50h-50v50h50M.05 100H0v50h50v-50H.05m100-50V0h-50v50h50z"/><path fill="#FFB3B3" d="M250.05 250v-50h-50v50h50m-50-200v50h50V50h-50m-100 200h-50v50h50v-50m0-200h-50v50h50V50m-50 100h-50v50h50v-50z"/><path fill="#CCB3E6" d="M250.05 250h50v-50h-50v50m0-200V0h-50v50h50m-200 200h-50v50h50v-50m50-100h-50v50h50v-50z"/><path fill="#99E680" d="M300.05 250h-50v50h50v-50m-50-100h-50v50h50v-50m50-100h-50v50h50V50m-250 200v-50h-50v50h50m100-100h-50v50h50v-50M50.05 0h-50v50h50V0z"/><path fill="#80CCE6" d="M300.05 150h-50v50h50v-50m-50-100h50V0h-50v50m-150 200v-50h-50v50h50m50-50v50h50v-50h-50m-100-150h-50v50h50V50m50-50v50h50V0h-50z"/><path fill="#FAC2A9" d="M250.05 150h50v-50h-50v50m-200-50v50h50v-50h-50m150-50V0h-50v50h50z"/></g><path fill="#FFF" fill-opacity=".992" d="M273.1 214.95v-3.6h-7.25V215h7.25v-.05m10.95-3.6h-7.3V215h7.3v-3.65m3.6-25.4h-3.6v3.6h3.6v-3.6m-25.45 3.6h3.65v-3.6h-3.65v3.6m-.1 7.3h-3.55v3.6h-3.6v10.9h3.6v-7.25h3.65v7.25h3.65v-3.6h18.2v3.6h3.6v-7.25h3.65v.1q-.05 3.55 0 7.15h3.65v-10.9h-3.65v-3.6h-3.65v-3.65h-3.6v-3.65h-3.65v3.65h-10.9v-3.65h-3.65v3.65h-3.65v3.65h-.1m3.75.05v-.05h3.65v3.6h-3.65v-3.55m14.55 0v-.05h3.65v3.6h-3.65v-3.55z" id="b"/><path fill="#FFF" d="M55.2 24.15l.05.05q.4.4.4 1v.25q.05 7.7 5.5 13.15 4.35 4.35 10.25 5.3l5.35-9.8q-1.2.3-2.55.3-3.9 0-6.7-2.75-1.5-1.5-2.15-3.35l-7.4-12q-1.8 3.15-2.15 6.85-.05.55-.5.9l-.1.1m14.3-3.9l-.05.05q-1.8 1.85-1.9 4.5v.45q.05 1 .35 1.9 0 .05.05.15.45 1.3 1.5 2.4 1.95 1.95 4.75 1.95 2.75 0 4.7-1.95.45-.55.85-1.05.05-.1.15-.15.15-.3.3-.55.65-1.35.65-2.95 0-2.2-1.2-3.85-.4-.5-.75-.9-.45-.4-.85-.7-1.4-.95-3.05-1.15h-.05q-.4-.05-.75-.05-2.75 0-4.7 1.9m21.1-4.65l-.2-.25q-1.15-1.75-2.7-3.3-4.9-4.9-11.65-5.4h-.2l-.1-.05h-2.7q-1.25.1-2.45.35-5.35 1-9.45 5.1-.75.75-1.35 1.6-.1 0-.15.15l5.45 8.8q.55-2.45 2.4-4.3 2.8-2.75 6.7-2.75.5 0 1 .05h15.4m-8.75 3.85l.05.05q1.7 2.4 1.7 5.5 0 2.25-.9 4.15v.05q-.25.45-.55.95v.05q-.05 0-.05.05l-7.65 13.8q7.8 0 13.25-5.45 5.5-5.5 5.5-13.3 0-3.7-1.25-6.9h-11q.45.5.9 1.05z" id="c"/><path fill="#F4F3F2" d="M290.45 114.2q.25-3.15.55-6.3h-32v.15q.75 9.75 1.8 19.2h21.9v.15q-.25 4.05-.7 7.85v.1q-3.55 1.1-7.15 2h-.15q-3.4-1-6.85-1.95v-.15q-.15-2.55-.45-4.9h-6.45v.15q.45 4.95 1 9.8v.1q6.55 1.85 13.05 3.7 3.25-1 6.7-1.85 3.4-.8 6.35-2.05v-.15q.95-9.6 1.8-19.25h-23.3v-.15q-.25-3.15-.55-6.3h24.4q0-.05.05-.15z" id="d"/><path fill="#FFF" d="M41.35 212.9h-.15q-1.3.05-2.3-.15v-2.2q-1.5.1-2.7-.1v-2q-2.6.05-4.9-.15v-2.1q-7.55-.05-14.9.1v2.15q-2.65-.1-5 .1v2h-.15q-1.2-.1-2.15.1v2.25q-1.45-.1-2.6.1v4.2H4.1v17.7h.1q1.3-.1 2.3.1v2.25q1.45-.1 2.6.1v4.25h.1q1.25-.1 2.2.1v2.1h1.95q11.55.1 22.85-.1v-2.1q1.5.05 2.7-.15v-4.2h.15q1.3.1 2.3-.1v-2.25q1.4.1 2.55-.1v-17.6q-1.4.1-2.55-.1v-4.2m0 19.9h-.15q-2.65.1-5-.1v-2.15h-7.3v-2.3h.1q1.3.05 2.3-.15v-8.65h-.1q-1.3.1-2.3-.1v-2.15q-5.05-.05-9.8.15v2.1h-2.7v8.65q1.2.2 2.7.15v2.3q-4-.05-7.7.15v2.1q-2.6.1-4.9-.1v-4.45h4.9v-2q1.1-.2 2.45-.15h.1v-8.75q-1.05-.2-2.4-.15h-.15v-4.3h2.55v2.1q2.45.2 5.15.1V213q1.05-.2 2.3-.1v-4.45h5.05v4.3q1.05.2 2.45.15v2.1q2.35.2 5 .1v-2.2h2.3v4.3h-2.3v8.8q1 .2 2.3.1v2q2.45.2 5.15.15v4.55m-29.95 2.1h2.55v-2q2.45-.2 5.15-.1v4.35q.95.2 2.2.1h.1v-4.35q2.4-.2 5.05-.1v4.35q1 .2 2.3.1h.15v-4.35q2.35-.2 5-.1v2q.95.2 2.2.1h.1v4.45q-.95.2-2.2.15-.05-.05-.1-.05v2q-9.85.2-19.95.15v-2q-1.05-.2-2.4-.15h-.15v-4.55z" id="e"/><path fill="#FFF" d="M280.6 356.9q-4.8-1.55-10.05-.3-3.4.75-5.95 2.4-6.95 4.45-8.5 14.2-.25 5.4 1.3 9 3.4 7.95 11.8 10.95 3.2 1.15 7.4.65 10-1.25 14.5-8.15 2.2-3.4 2.75-8.45.65-5.75-1.15-9.75-3.55-7.85-12.1-10.55m-2 12.05q-.95-.5-2-.6-7.1-.65-8.5 5.2h-3.9q-1.95 0-3.9.2-1.45.15-1.55-.8 1.8-9.5 9.6-13.05 2.15-1 4.95-1.35.5 0 1-.1v-.05q4.95.05 8.2 1.65 7.6 3.75 9.05 13.65h-9.65q-.75-3.25-3.3-4.75m-19.25 11.2q-.55-1.8-.6-4.05H268q1.35 5.9 8.2 5.5 1.9-.1 3.1-1.05 2.05-1.6 2.75-4.45h9.5q-.45 5.25-2.75 8.6-4 5.9-12.75 6.85-2.9.3-5.05-.3-8.8-2.6-11.65-11.1m20-3.75q-1 3.6-5.6 2.85-1.3-.2-2.2-1.05-1.4-1.35-1.3-4.25 1.2-4.45 6.55-3.3.75.15 1.35.6 2.15 1.75 1.2 5.15m-3.8.85q1.95-.2 1.9-2.45 0-1.4-1.05-1.85-2.45-1.1-3.6 1v.35h-.1q0 .65.05 1.3h.05q.4 1.9 2.75 1.65z" id="f"/><path fill="#FFF" d="M38.8 308.6q-.8-1.1-2.1-1.65-.45-.2-.9-.25-4.05-.4-5.9 1.95-.2.2-.3.45-.4.8-1.2.65-.2 0-.2-.1-.2-1.75.6-2.95h-.1q-1.65.15-2.55 1.15v-.1q-.5-1.35-.25-2.75-2.35.75-3 3.1 0-.05-.05-.1-.4-.8-.45-2-1.6.75-1.95 2.7-.15.7-.45 1.15-.1 0-.15-.05-.95-.95-1.85-1.8-1.05-.9-2.6-1.2-3.9-.7-5.6 1.8 0 .05.05.05 2.15.2 3.2 1.5v.1q.3 1-.1 1.9-.85.05-1.5.35-.65.35-.85 1.05-.45 2.15.8 3.55v.05q.05 1.55-.15 2.7-.05 0-.1.05-1.05.7-1.65 1.95 0 2.6 1.85 3.3 1.95.75 2.85 2.45.05 2.95-.25 5.5v.05q-1.5-1.15-1.9-3.35 0-.05-.05-.05-2.2 2-1.35 6.05.3 1.35 1.15 2.3.9.95 2.25 1.4 1.35 3.2 5.25 3.9.05.05.1.05 1.5 1.35 4.3 1.45h.05q.45.15 1.1.05v-.05h.05q2.8-.1 4.35-1.45v-.05q3.95-.7 5.3-3.9 1.35-.45 2.25-1.4.85-.95 1.2-2.3.8-4.05-1.35-6.05-.05 0-.05.05-.45 2.2-1.95 3.35v-.05q-.3-2.55-.2-5.5.2-.7.8-1.05 1.65-1.1 3.15-2.4.65-.55.55-1.75-.15-1.85-1.6-2.65v-.1q-.25-1.1-.15-2.6.55-.75.8-1.7.7-3.05-2.4-3.2 0-.05-.05-.1-.25-.95.05-1.9h.05q1.05-1.3 3.15-1.55m-4.05.75h.1q-.6 1.15-.8 2.7v.1q-.35.25-.85.3h-.1q-.45-.45-.8-.9l-.05-.05q.5-1.85 2.5-2.15m-.1-1.55q.85-.05 1.55.1.3.1.2.3-1.05.3-2.35.5-1.1.1-1.8.7-.65.55-1.05 1.4-.5-.15-.9-.45v-.05q1.2-2.3 4.35-2.5m-13.05 9.25q.05-.2-.05-.35-1.4-2.5-3.9-3.85 2.85-2.1 7.75-1.8 3.45.2 5.55 1.8-2.4 1.4-3.8 3.8-.1.05-.1.2v.1q0 .15.15.3.1.15.3.15.15 0 .3-.1 2.65-2.4 6.6-3.4 1.5-.4 2.3.35.05.15 0 .45v.05q-.1.3-.25.5-.1.2-.25.35-.05-.1-.05.05-.05.05-.1.05v.2h-.1q-.25-.4-.2-.2v.45q0 .15.15.3l.05.05q-.3 2.7.55 4.55-.05.05-.05.25t.15.6l.35-.15q.05.1.1.15v-.05q0-.05-.05-.1l.15-.05q.1.2.15.55.05.2.05.45-1.15 1.6-2.95 2.45-1 .5-1.3 1.7-.5 2-.25 4.45.15 1.05.2 2.25-1 .35-2.3.4-1.1-2.75-2.25-5.25 0-.1-.05-.15-.05-.15-.2-.25-.15-.05-.25 0-.2 0-.3.2-.1.15-.05.3.4 3.2 1.5 6.2-4.8.1-9.65.05 1-2.9 1.55-6.3.05-.15-.05-.3t-.25-.15q-.2-.1-.3 0-.15.05-.25.2-1.25 2.65-2.35 5.45-.85-.05-1.55-.2-.1-.05-.15-.05-.35-.05-.55-.15.15-2.25.2-4.55.15-3.1-1.75-3.95-1.8-.85-2.75-2.35v-.5q.1-.4.35-.55-.1.25 0 .2h.1q0-.1.1-.25.15.2.2.2v-.05q.05-.15.1-.45v-.25q.6-1.5.65-3.45v-.15q-.1-.45-.15-.95.05-.05.1-.05.1-.15.1-.3v-.4l-.15.2-.1-.05q-.05-.05-.05-.1l.05-.05h-.05v-.05q-.1-.2-.1-.1-.2-.1-.3-.35-.1-.2-.2-.45v-.55q.85-.85 2.45-.35h.05q3.8 1.05 6.45 3.4.05.1.25.1.15 0 .25-.1.15-.1.2-.25m14.75-1.1l-.1-.05q-.05-.05 0-.05.5-.3.25.05v-.1l-.15.15m-23.4-7.45h-.05q-.35-.2-.75-.45V308q2.1-.7 3.85.2 1.65.8 2.25 2.3-.5.25-.85.2h-.1q-1.1-2.35-4.35-2.2m3.4 3.05v.1q-.4.3-.7.75-.05 0-.05.05-.5-.05-1-.15v-.05q-.3-1.25-.65-2.55-.05-.2-.15-.35 2.1.25 2.55 2.2m-4.7 9.9h.05v.05l-.05-.05m4.3 15.9q-.05.05-.05.15v.15l.1.7q-4.25-.45-4.15-5.15 1.45 2.3 4.85 2.7-.45.65-.75 1.45m-.3 2.65q-.05-.05-.05-.1.6.2 1.4.25v.05q.5.8.95 1.65-1.4-.5-2.3-1.85m3.85 1.45v.05q-1.3-1.5-1.5-3.95.9-.95 3.2-.8 1.3.15 2.65.15 3.15-.05 6.15.2h.05q.35.05.5.3 0 2.2-1.05 3.7h-.05q-.8.9-1.9 1.6h.05q-1.75.85-4.3.55-2.45-.35-3.8-1.8m13.2-3.95q0-.15-.1-.25-.25-.75-.65-1.35 3.25-.4 4.75-2.55.2 2.95-1.8 4.3-.85.55-2.05.9h-.2q.15-.4.05-1v-.05m-1.2 2.8q.05-.05.05-.1.7-.15 1.45-.25v.05q-.9 1.3-2.4 1.9v-.05q.55-.75.9-1.55m-3.9-.1h.8v-.05q1.4-.65 1.45-2.2 0-.05-.1-.05-.5-.3-1.35-.35-1.55-.05-2.4.5 0 .05.05.05.4 1.4 1.55 2.1m-8.95-2.1q.35 1.45 1.55 2.1h.1q.55.05.95-.1h.05q1.1-.85 1.2-2.2-.55-.3-1.55-.35-1.5-.05-2.3.5v.05m-4.85-19.7v.05q.65.2.8.4h-.05q-.8 1.05-.1 2.25h.05q.05-.7.3-1.2.25 2.8 2.5 3.5 1.7.55 2.8-.3.8-.1 1.2 0 1.25-.1 1.6-1.25-2.25.25-3.4-1.3-1.8-2.35-5.7-2.15m2.35 1.6q.4-.5 1.1 0 1.45 1.1 2.55 2.5-.4.2-.9.3h-1.1q-1.8-.35-1.65-2.8m13.5-.1q-.3.3-.45.6-1.15 1.65-3.45 1.25v.1q.35 1.15 1.65 1.3v.05q.75-.25 1.15-.1.3.3.85.35 4.1.4 4.45-3.55v.1q.2.65.3 1h.05q.6-1.1-.05-2.05-.05 0-.05-.05-.2-.2.55-.3 0-.05.05-.05l.05-.05q-3.25-.4-5.1 1.4m2.7 0l.05.05q.05.25.05.65 0 1.25-.75 1.7-1.45 1.05-2.9.1.2-.1.3-.35h.05v-.1q1.4-1.5 3.2-2.05m-9.85-1.4q.65.95 2.1 1.05v-.05q1.05-.3 1.55-1.1-.05 0-.05.05-1.8.9-3.65-.05 0 .05.05.1z" id="g"/><path fill="#FFF" d="M26.9 121.6h-4.7v16.05q.05 2.45-2 2.75-.6.1-1.05-.05-1.85-.5-2.5-2.25-1.9 1.15-3.85 2.25.85 1.8 2.4 2.9 1.2.9 3 1.25 2 .35 3.85-.1 3.4-.85 4.4-4.05.25-.85.3-1.8.15-4.15.15-8.45v-8.5m13.8 5.8q1.85-1.15 3.65-2.35-.9-1.65-2.45-2.65-1.3-.85-3.25-.95-4.3-.3-6.35 1.95-1 1.15-1.35 2.9-.25 1.5.05 2.95.4 1.7 1.5 2.75 2.15 2.1 5.3 3.2 1.6.55 2.7 1.6.4.4.4 1.1.1 2.2-2.05 2.55-1 .2-2-.05-2.55-.6-3.65-2.7h-.05q-1.85 1.1-3.75 2.15 1.3 2.65 4 3.95 2.2 1 5.4.8 3.95-.3 5.8-2.7.9-1.25 1.05-3.15.1-1.4-.2-2.45-.95-3.25-3.9-4.55-2.55-1.15-5-2.4-.7-.4-.95-1.15-.35-1.3.3-2.1.5-.55 1.5-.6 2.5-.05 3.25 1.9h.05z" id="h"/><path fill="#FFF" d="M256 75.85v.05q.1-1.2 0-2.3v2.25m21.05-19.5q-.95-1.25-1.95-2.5-.8.9-1.6 1.95-1 1.2-1.95 2.55.5.75.95 1.7.65 1.55.75 3.6-.9-1.25-2-2.45-.5-.6-1.25-1-.95 1.15-1.9 2.4.9.55 1.65 1.2 1.25 1.1 2.05 2.5.8 1.45 1 3.5.15 2.1-.3 3.8-.45 1.8-1.5 2.95-.8.9-2.25 1.2-1.1.2-2.2-.15-1.65-.55-2.7-1.75-1.1-1.15-1.8-2.65-.75-1.5-1-3.45-.15-1.05-.05-2.15.1-1.45.6-2.7.55-1.65 1.35-3.1.8-1.5 1.7-2.8-.55.3-1.05.7-1.25.95-2.35 2.1-1.05 1.15-1.95 2.55-.9 1.3-1.6 2.85-.7 1.6-1.15 3.35-.35 1.85-.45 4.05.05 2.2.45 4.1.35 1.8 1 3.4.65 1.55 1.6 2.9.9 1.35 1.95 2.55 1.1 1.15 2.3 2.15 1.25 1 2.75 1.75 1.45.8 3.15 1.35 1.7.6 3.7.85 2.1.2 4.2 0 2.05-.25 3.7-.8 1.7-.6 3.15-1.4 1.45-.75 2.75-1.75 1.2-1 2.3-2.15 1.05-1.2 1.95-2.55.85-1.35 1.55-2.9.65-1.55 1.05-3.4.2-1.15.35-2.4v-3.05q-.05-.15-.05-.35-.15-2.05-.75-3.75-.5-1.7-1.3-3.2-.75-1.45-1.75-2.7-.95-1.25-2.1-2.4-1.15-1.05-2.55-1.85.6.75 1.1 1.6.8 1.4 1.55 3 .65 1.55 1 3.4.1.7.1 1.55-.05 2.1-.75 3.75-.65 1.6-1.55 2.85-.95 1.25-2.4 2.1-.7.4-1.7.55-1.5.15-2.55-.45-1.45-.8-2.15-2.35t-.75-3.7q-.05-2.25.5-3.9.7-1.55 1.75-2.75 1.1-1.15 2.4-2.05v-.05q-.95-1.2-1.9-2.35-.75.4-1.25 1-1.05 1.25-2 2.45.1-1.2.35-2.3.5-1.7 1.4-3.05-.8-.95-1.6-1.95z" id="i"/><path fill="#FFF" d="M90.9 207.2q.05-.3-1.15-.3-15.35.1-30.65.1.1 3.2.55 5.95v.2q7.35.3 15.2.15H75q4.5 0 8.9.1v.3q-.1 3.25-.65 6.1H75v.1q-3.75.1-7.5.1.15 3.15.5 6.2v.1h14.9q-.55 3.8-.75 7.9h-.1q-3.15 1.45-6.9 1.9-.95.15-2-.15-2.55-.7-5.15-1.45-.45-2.05-.5-4.55v-.2h-.15q-2.9-.3-6.2-.15v.35q.3 4.7.9 9.2v.2q6.3 1.95 12.8 3.7.1.05.15.05 6.5-1.8 13-3.65v-.1q1.4-13.95 2.6-28.05.2-2.05.3-4.1z" id="j"/><path fill="#FFF" d="M93.75 270.45q1.9-2.15 3.75-4.25-2.4-2.65-4.95-5.2-1.45-1.45-2.95-2.9-4.4-.1-8.95-.1-5.1.05-10.1.05h-10.1v.05Q59 259.5 57.5 261q-2.45 2.55-5 5.05 2.25 2.8 4.6 5.45 2.4 2.7 4.75 5.4 2.3 2.7 4.65 5.4 2.4 2.7 4.75 5.4 1.85 2.15 3.75 4.3 2.35-2.65 4.75-5.35 2.3-2.7 4.6-5.45 2.35-2.7 4.7-5.35 2.4-2.7 4.7-5.4m2.65-4.25q-2.4 2.7-4.75 5.3-2.35 2.7-4.65 5.4-2.35 2.75-4.7 5.45l-4.7 5.4q-1.3 1.5-2.6 2.95-2.35-2.65-4.7-5.35-2.3-2.7-4.7-5.45-2.3-2.7-4.65-5.35-2.35-2.7-4.75-5.4-1.25-1.5-2.55-3l5-5.1q1.05-1.05 2.05-2.1h28.55q2.5 2.5 5 5.05 1.05 1.05 2.15 2.2m-21.6 15.1h-.75q-2.6-.05-4.85-.5 2.3 2.75 4.7 5.4.55.65 1.15 1.25 2.4-2.65 4.75-5.35.6-.75 1.25-1.4-2.25.5-5.2.6H74.8m-8.5-20.75h-4.75q-.15.25-.4.45-2.45 2.55-5 5.05v.1l3.6 4q-.05-3 1.15-4.9 1.85-3.15 5.4-4.7m17.5 16h.05q.05-.3-.05-.45-.15-.55-.5-.7-2.8-1.3-6.75-1.25-.25-.05-.55-.05h-.55q-.25-.05-.5-.05h-.65q-.35-.05-.65-.05H73q-.4-.05-.75-.05h-.85q-.4-.05-.7-.05h-.8q-.3-.05-.55-.05h-.1q-4.15-.1-7.25-1.15 2.25 2.6 4.5 5.1l.05.05q.6-1.45 2.55-1.55h.75q3.25.45 4.8 2.6.1.05.2.05h1.1v-.05q4.45.05 7.25-1.55.45-.25.6-.8m5.05-10.2H82.3q-.25-1.65-1.1-2.7-2.15-2.85-7.2-2.85v-.05h-.85v.05q-.75-.05-1.3.05-.7.05-1.3.15-3.2.65-4.55 3.05v.3h-.05v.65H66q.35 1.9 2.15 2.55.85.2 1.85.4 1 .15 2.15.2.35.1.85.05h2v-.05h3.05q.2.1.55.05h.05q4.95.1 7.9 2.25.5.4.95.95.4.5.75 1.15 2.3-2.7 4.65-5.4.45-.5.95-1-2.45-2.6-4.95-5.1-.1 2.6-.05 5.25v.05m-3.25-5.2v-.1h.05q.05-.3-.05-.5h-3.8q1.4 1.25 2.45 2.95 1.15-.75 1.35-2.35z" id="k"/><path fill="#FFF" d="M33.75 184.15q-.1 0-.15.05-2.35 2.3-5.05 4.2v.25q2.45.4 5.45.1v-.1h.1q.45-2.95-.35-4.7v.2m.7-23.6v-.25q.2-4.2-.2-7.8H28.1q0 .1-.05.2-1.3 2.75-2.55 5.45-1.75-.05-3.1.2Q8.35 161 5.85 175.2v.2h-.2q0 2.15.1 4.25h.1q.75 5.45 3.25 9.05.1.05.1.2 1-1.25 1.6-2.85.05-.1.05-.25-1.5-2.9-1.9-6.85v-2.8q2.1-13.4 15.1-14.65-1.55 3.5-3.2 6.85Q13.8 182.5 6.8 196.7h-.2q.05 1.1 1.65.7h5.2q3.2-6.2 6.1-12.8.05-.1.05-.2h8.7q-.45 2 .75 2.25v-.15q0-.1.05-.15 3.15-1.95 5.6-4.55 0-.1-.05-.2-2.85-2.6-5.6-5.25 0-.1-.05-.15-.2-.05-.45-.05v2.35q-.95 0-1.85.05-2.85.3-4.5-.55 3-7.25 6.05-14.4.05-.1.05-.25.45 5.3.4 11.1h.1q2.45 2.3 4.8 4.7.05.05.15.05.8-.4.7-3.1-.2-5.9-.2-11.8 5.6 3.5 6.8 11.35.05.1.05.25v3.3q0 .1-.05.25-1.95 12.55-14.6 14.4H23.6q-2.1 0-3.45-.85-2.85-1.65-3.9.85.4 2 2.55 2.4 1.9.4 4.1.65 1.7.45 4 .15v-.15q14.6-2.25 17.25-16.5v-.25h.1q.3-2.9-.1-5.2-.1 0-.1-.05-1.85-10.2-9.6-14.35z" id="l"/><path fill="#FFF" d="M232.65 166.05q-1.9-.25-3.4.2-1.5.5-2.85 1.05-.35.15-.75.2-.95.15-1.65-.15-1.35-.6-2.8-1.05-.4-.1-.8-.15-1.9-.2-3.4.3-1.4.5-2.5 1.35-1.05.9-1.85 2.05t-1.25 2.6q-.5 1.45-.6 3.25v1.4q.05 1.85.4 3.45.4 1.55.9 2.95.5 1.45 1.2 2.7.65 1.3 1.45 2.4.8 1.15 1.75 2.15.9 1.05 2.25 1.6.35.15.75.2 1.65.05 2.8-.55.95-.5 2.15-.75.8-.15 1.8-.05 1.5.15 2.6.7.95.5 2.25.6.5.05.95-.05 1.55-.3 2.5-1.3t1.75-2.15q.8-1.1 1.5-2.35.65-1.25 1.25-2.65.1-.35.15-.8-.1-.05-.15-.1-1.3-.6-2.25-1.55-1-1-1.6-2.3-.45-1-.6-2.3-.15-1.8.3-3.2.5-1.45 1.4-2.5.85-1.05 2-1.85-.25-.35-.55-.7-.9-1.05-2.15-1.75-1.25-.65-2.95-.9M229.8 158q-1.35.6-2.35 1.5-1 .95-1.7 2.2-.7 1.25-.85 3.05 0 .45.1.85.2 0 .45-.05 1.45-.05 2.45-.6 1.25-.7 2.15-1.75.9-1 1.45-2.4.6-1.4.45-3.3-1.25.1-2.15.5z" id="m"/><path fill="#FFF" d="M77.45 155.6q-6.55-.55-11.1 1.75-4.65 2.4-7.7 6.5-3 4.05-3.6 10.55 0 7.05 2.75 11.4 2.7 4.35 7.1 7.1 3.8 2.35 9.6 2.55 5.4.25 8.95-1.45 2.45-1.15 4.45-2.75 3.9-3.15 5.95-8.15.95-2.3 1.4-5v-5.15q-1-5.95-4.1-9.85-3.15-3.95-8.05-6.1-2.45-1.1-5.65-1.4m-12.9 11.95q.15.45.05.65-2.45 2.65-1.75 7.7.1 1 .4 1.9v.05q.15.45.15.5.05 0 .1.15.1.15.1.25l.15.3q2.4 3.9 8.25 4.35h.05q-1.1.8-1.45 2.35 0 .05-.05.05-1.55.8-3.35.15-1.2-.45-1.8-1.55-1-1.95-3.4-1.65-.1 0-.25.1l1.7 1.9q.85.95 1.45 2.15.65 1.25 2.2 1.7 1.65.45 3.4.05 0 1.9-.05 3.8h-.05q-5.35-1.45-8.7-5.35-2.6-3-3.7-7.55-.05-.1-.1-.25-.1-.55-.25-1.05v-.45q-.2-1.65-.15-3.6v-.05q.8-6.3 4.1-10.1 3.25-3.85 8.65-5.5 3.35-1.1 7.5-.45 4.55.65 7.65 2.85 4.1 2.95 6.25 7.9 1.6 3.75 1.15 8.75-.05.05-.1.45h.05l-.05.05q.05.35-.05.55 0 .1-.05.2l-.15.45q-1.35 5.7-5 9.1-2.75 2.5-6.6 3.9-.2-3.2-.35-6.5-.05-.4-.2-.8-.4-.95-1.2-1.6 5.45-.3 7.75-3.85.2-.4.4-.85v-.05q0-.05.05-.1 0-.15.05-.2.1-.3.2-.55.85-3.15.1-6.35-.5-2.25-1.9-3.65.35-1.8-.05-3.8-.15-.65-.45-1.2-3.15.2-5.2 1.9h-.1q-2.05-.4-4.8-.35-2.65 0-4.75.6-2.05-1.8-5.3-2.05H65q-1.1 2-.45 4.65m13.5 18.85q.9 1.45.7 4.05-.1 1.4-.25 2.45h-.1q-.5-.1-.5-.95.15-2.75.15-5.55m-5.4 1.35q0-.85.35-1.4.2 3.35-.05 6.7h-.1q-.2-.05-.4-.15.2-2.35.2-5.15M75.5 186h.1q.4.65.35 1.85-.1 2.9-.2 5.35 0 .05-.15.05-.25.05-.4-.1.2-3.45.3-7.15z" id="n"/><path fill="#FFF" d="M233.55 7.6q0 .15-.1.2-6.8 6.8-13.7 13.6 0-.1-.05-.1-4.4-3.35-8.75-6.75h-.15q-1.6.9-3.3 1.7v17.6h.2q1.55 1 3.45 1.7 0-.05.05-.1 4.35-3.3 8.55-6.75.1 0 .15.05 6.8 6.95 13.8 13.7h.2q4.45-1.55 8.6-3.45V11.05q0-.1-.05-.1-4.35-1.8-8.9-3.35m-.1 10.5q.1-.05.1-.15.3 6.85.1 14.2h-.1q-4.5-3.5-8.75-7.15-.1-.05-.1-.15 4.4-3.4 8.75-6.75m-22.3 2.15h.2q2.4 2.3 4.75 4.65.05.05.05.15l-4.65 4.75h-.25q-.1-4.75-.1-9.55z" id="o"/><path fill="#FFF" d="M10.05 19.95v9.7h.05q.3 1.2 1.4 1.55h1.35v-.05q.9-.4 1.35-1.15.15-.7.15-1.5-.05-2.25.15-4.5.2-3.4-.95-5.2h-.1l-.7-.3H11.5v.05q-1.05.35-1.45 1.4m24.4-1.45v-.1q-9.45-.05-18.9-.05v16q.35.7 1 1.1v.05q1.1.15 2.4.1h.1v5.2q.3.95 1.1 1.4v.05q.8.3 1.5.15h.1q1.2-.35 1.5-1.6h.05v-5.2h3.4v5.2q.25.7.75 1.15.05.05.05.1.6.2 1.25.4.05.05.1.05 1.05-.15 1.6-.75 0-.05.1-.05.7-2.5.45-6v-.1q1.3.1 2.35-.1h.1q.65-.4.95-1.1 0-.05.05-.05V18.5m4.05 0h-.1q-.9-.05-1.55.1 0 .05-.05.05-.6.4-1 1.05v.35h-.1q0 4.8.05 9.6h.05q0 .05.05.1.2.65.65 1.15h.1l.7.3h1.2q0-.05.05-.05 1.1-.4 1.45-1.5v-9.6h-.1q-.3-1.2-1.4-1.55M31.1 7.55V7.5q-1.2 1.15-2.15 2.65-.05 0-.1-.05-4-1.2-7.9.05-.05-.3-.2-.5-.4-.5-.65-1.05-.5-1-1.3-1.05 0 .05.05.1.45 1.4 1.55 2.8-.05 0-.1.05-3.6 1.75-4.75 5.95v.5q9.45.15 18.9.15V17q-.9-4.75-4.8-6.55.4-.8 1-1.45.75-.75.45-1.45m-2.35 6.85q-.7-.25-.7-1.2v-.15q1.2-1.35 2 .25.05.05.05.1-.05 1.1-1.25 1h-.1m-6.8-1.1q0 1.25-1.35 1.1h-.1q-.6-.25-.55-1.2v-.15q1.1-1.3 2 .15v.1z" id="p"/><path fill="#FFF" d="M33.9 357.5h-1.15q-1.05.15-2 .4-2.55.85-4.1 2.6-1.6 1.8-2 4.75-.25 1.65.1 3.1-.2.05-.35 0-3.15-.25-5.7-1.05-2.6-.8-4.75-2.05-2.15-1.2-4-2.75-1.85-1.5-3.4-3.35-.9 1.5-1.15 3.7v.45h-.05v.5h.05q.1 2.05.75 3.45 1.15 2.3 3.15 3.7h-.05q-2.35-.2-3.9-1.1-.1 1.1.15 2.05.7 2.7 2.4 4.4 1.7 1.65 4.45 2.3-.9.25-1.95.25-1.1.05-2-.05.1.3.2.55 1 2.4 2.95 3.85 1.95 1.45 5.05 1.7-1.4 1.1-3.1 1.95-2.25 1.15-5.15 1.6-2.3.35-4.75.1 2.05 1.35 4.5 2.3 2.4.95 5.35 1.4 1.25.2 2.65.25h2.05q3.25-.15 5.9-.9 2.65-.7 4.85-1.9 2.2-1.15 4.05-2.7 1.85-1.5 3.4-3.4 1.5-1.85 2.7-4.05 1.2-2.15 2-4.75.8-2.55 1.1-5.7.1-1.35.05-2.9 1.95-1.4 3.45-3.3.4-.5.8-1.05v-.15q-2.2 1-4.9 1.3.6-.35 1.1-.75 1.85-1.55 2.7-4.05-.3.15-.65.3-2.2 1.25-4.9 1.75-.5-.45-1-.85-1.85-1.55-4.85-1.9h-.05z" id="q"/><path fill="#FFF" fill-opacity=".992" d="M291.4 313.4h.05v-.15q0-.15-.2-.2-1.1-.4-2.4-.85-1.35-.45-2.75-.9l-11.1-3.8-.05.05q-2.85 1.05-5.9 1.95v.1q0 .05-.05.05-.25.15-.65.2h-.05q-4.65 1.7-9.4 3.3v.05q-.15.1-.35.15v.65q.1.25.1.65v.1q.2.5.15 1.25v.1q.15.2.1.65v.1q.05.6.15 1.2v.1q.25.9.25 2v.1q.15.15.1.55v.1q.05.35.1.65v.1q.15.5.15 1.25v.1q.15.2.1.65v.1q.15.15.05.55v.1q.15.2.1.55v.1q.2.9.25 2v.1q.15.25.1.65v.1q.15.5.15 1.25v.05q.15.2.1.6v.1q.1.15.05.55v.1q.1.25.1.65v.1q.15.2.1.55v.1q.1.2.05.6v.15q.15.2.1.6v.05q.15.2.1.6v.1q.1 1.25 1.25 1.65.45.15.95.4 4.7 2.7 9.5 5.35.9.55 1.9 1.05 4.9-2.55 9.7-5.1 2.45-1.3 4.6-2.9.1-.05.1-.2v-.85h.05v-.6q.05 0 .1-.05v-.75h.1v-.75h.05v-.65h.1v-.6q.1-.35.15-.75v-.75h.1v-.75q.15-.25.1-.65h.05v-.6h.1v-.65q.05 0 .05-.05v-.8h.1v-.65h.1v-.65h.05v-.7h.1v-.65h.1v-.85h.05v-.65h.1v-.6h.1v-.75h.05v-.65h.1v-.75h.1v-.65h.05v-.65h.1v-.7h.1v-.75h.05v-.65h.1v-.1q.15-.15.1-.5v-.75m-2.35.9v.05q.8.15.35 1.05v.2q-.05 1-.25 1.9v.05q0 .7-.15 1.2v.15q-.05.65-.2 1.15v.2q.05.35-.05.5v.05q.05.4-.1.6v.1q.05.4-.1.55v.2q0 .65-.15 1.15v.25q-.6 5.05-1.25 10.05v.05q-.35.2-.75.35v.05q-.45.25-.9.45 0 .05-.05.05-.05.05-.15.05v.05q-.7.45-1.45.8l-.05.05q-.15.15-.4.2v.05l-.3.1q0 .05-.05.05-2.4 1.35-4.85 2.7 0 .05-.05.05-1.3.65-2.55 1.35v.05q-.15.1-.35.1v.1q-.05.1-.25.1-.05.05-.15.05-1.55-.35-3.05-1.2-4.75-2.75-9.5-5.45-.15-.3-.15-.75-.75-6.65-1.5-13.35v-.1h-.05q-.25-2.6-.6-5.05 5.4-2.05 10.9-4 .35-.15.8-.2v-.05h.15v-.1q1.55-.6 3.1-.8v.05q.1 0 .2.05.05 0 .05.05.5.1.95.3.05 0 .05.05 2.15.7 4.35 1.45h.05q4.25 1.45 8.45 2.9m-4 18.75q-.5-1.1-1-2.25-2.45-5-4.8-10.1-2.3-5.1-4.75-10.1-.3 1-.7 1.85-2.35 5.15-4.65 10.3-2.3 5.1-4.7 10.2v.05q1.85.2 3.75.05v-.1q1.05-2.45 2-5h.1q4.65 0 9.1-.05l.05.05q1.15 2.55 2.2 5.15h.1q1.55.05 3.3-.05m-10.4-15.2q0-.05.05-.05.2.5.4.95v.05q.9 1.75 1.75 3.6v.1h.05q.6 1.2 1.1 2.45-2.7 0-5.3.1-.8 0-1-.4 1.5-3.35 2.95-6.8z" id="r"/><path fill="#FFF" fill-opacity=".992" d="M215 125.15h20.15l-10-17.6-10.15 17.6m20.2.05l-10 17.25H245l-9.8-17.25m-20.25 0l-7.65 13.3q-1.15 1.95-2.3 3.95h20.15l-10.2-17.25z" id="s"/><path fill="#FFF" fill-opacity=".992" d="M237.35 262.6q-5.1-5.1-12.35-5.1t-12.4 5.1q-5.1 5.15-5.1 12.4t5.1 12.35q5.15 5.15 12.4 5.15t12.35-5.15q5.15-5.1 5.15-12.35t-5.15-12.4m-9.05 2.3q-.2.15-.35.25-.3.2-.6.45-.3.2-.55.4l-.6.4q.05.1.1.25.1.35.25.75.1.35.2.75.15.35.25.75-.2-.15-.35-.3l-.6-.4q-.3-.2-.55-.4-.3-.25-.6-.45-.2.15-.35.3l-.6.4q-.3.2-.55.4-.3.2-.6.45.05-.15.1-.25.1-.35.25-.75.1-.35.2-.75.15-.35.25-.75-.2-.15-.35-.25-.3-.2-.6-.45-.3-.2-.55-.4l-.6-.4h2.6q.15-.4.25-.75.15-.4.25-.75.1-.4.25-.75 0-.1.05-.25.15.4.25.75.1.4.25.75.1.4.25.75.05.15.05.25h2.6m-10.45 9.05q.15.35.25.75.15.35.25.75.15.35.25.75l.1.2h2.55q-.2.15-.35.3l-.6.4q-.25.2-.55.4-.3.25-.6.45l.1.2q.1.4.25.75.1.4.25.75.1.4.2.75-.15-.15-.35-.25-.3-.25-.6-.45-.25-.2-.55-.4l-.6-.4q-.15.1-.35.25l-.6.4q-.25.25-.55.45l-.6.4.1-.2q.1-.4.25-.75.1-.4.25-.75.1-.4.2-.75-.15-.15-.35-.3l-.6-.4q-.25-.2-.55-.4-.3-.2-.55-.45h2.55q.15-.35.25-.75.15-.35.25-.75.15-.35.25-.75.05-.1.05-.2m15.4 4l.1.2q.1.4.2.75.15.4.25.75.15.4.25.75-.2-.15-.35-.25-.3-.25-.6-.45t-.55-.4l-.6-.4q-.2.1-.35.25l-.6.4q-.3.25-.55.45l-.6.4.1-.2q.1-.4.2-.75.15-.4.25-.75.15-.4.25-.75-.2-.15-.35-.3l-.6-.4q-.3-.2-.55-.4-.3-.2-.6-.45h2.6q.15-.35.25-.75.1-.35.25-.75.1-.35.25-.75 0-.1.05-.2.15.35.25.75.1.35.25.75.1.35.25.75.05.1.05.2h2.6q-.2.15-.35.3l-.6.4q-.3.2-.55.4-.3.25-.6.45z" id="t"/><g id="v"><path fill="#F7EEEA" fill-opacity=".992" d="M190.05 292.55h.05q6.408-10.94-3.45-22.15 6.547 15.576 3.4 22.15M150 273.6q14.3-5.85 22.45-3.1-13.028-5.863-22.45 3.1z"/><path fill="#E6C9BD" d="M58.1 287.8q-1.053 2.223-1.7 4.75h4.8q1.28-11.006 10.7-23.3-8.15 5.7-13.8 18.55m100.75-36.6q-2.4.95-4.7 2.55 1.15 3.3 2.15 6.7.2.65.35 1.3-.45-.55-1-1.1l3.95 5.3q1.45-.2 2.85-.35 2.1-.25 4.15-.35-5.75-5.15-7.75-14.05M91.8 270.05q-.05-.2-.05-.45-.05-1 1.05-5.45-6.45 7.4-2.25 10.9.35-.3.75-.7 1.55-1.45 3.05-3.25-1.15 0-1.65-.15-.7-.25-.9-.9m-7.2.4q-.75.35-1.3.85-3.15 2.2-2.1 5.7.65.35 1.35.3.55-.05 1.75-.6.6-.25 1.45-.65-.95-.65-1.15-2-.1-.3-.1-.6-.1-1.6.1-3m-3.4-5.15q.3-.55.75-.9-3.2 1.05-4.65 2-.8.55-1.1 1-.9 1.5-1.4 4.8-.55 3.2.55 3.75 1.15.55 4.55-.45-.65-1.05-.75-2.6-.2-3.55 1.2-6.4.4-.65.85-1.2m20.7-41.35q2.35.2 4.45 0 11.65-1.1 13.6-14.1l-.6-.15-52.15-15.95q1.05 3.3.15 4.65l.45.2q15.7 22.15 34.1 25.35z"/><path fill="#E54D26" d="M31.4 269.6l6.5 22.95h10.95L32.8 269.2l-1.4.4m77.35-26.05q-1.775-7.452-3.85-15.15-8.4.6-16.75-3.15-16.7-8.65-24.45-25.1l-.5.3-24.4 15.1q-10.2 9.55-11.6 26.4-.088.8-.15 1.6-.446 5.094-.1 10.15.65 3.6 1.9 7.05 1.55 4.35 3.95 8.45l16.05 23.35h4q4.764-24.508 28.35-32.05.25-.1.55-.15l-.75-.95-10.65-13.5L81 259.4q-.8-4.05-1.55-8.1 0-.2-.05-.4 18.1 1.2 31.1-.05-.826-3.62-1.75-7.3m44.2 7l1.2 3.2q2.3-1.6 4.7-2.55 7.3-2.95 15.3-.1 2.5.9 5.15 2.45l-3.45-4.15q-1.25-1.1-4.5-1.85-10.75-2.7-18.4 3m-33-40.95v.25q-1.95 13-13.6 14.1l-1.45 4.45q5.25-.35 10.4-2.4 8-4.5 7.15-16.75l-2.5.35z"/><path fill="#E6C9BD" fill-opacity=".992" d="M126.55 292.55q2.203-4.95 10.75-13.2-3.44 3.195-7.1 6.15-4.582 3.675-9.25 7.05h5.6z"/><path fill="#CF3D18" d="M82 264.35q.8-.85 1.8-1.35l-2.05-2.65q-.3.05-.55.15-23.586 7.542-28.35 32.05h3.55q.647-2.527 1.7-4.75 5.65-12.85 13.8-18.55 2.55-1.8 5.4-2.85 1.45-.95 4.65-2 0-.05.05-.05m22.9-35.95l1.45-4.45q-2.1.2-4.45 0-18.4-3.2-34.1-25.35l-.6-.1-3.5 1.65q7.75 16.45 24.45 25.1 8.35 3.75 16.75 3.15z"/><path fill="#EBD7CD" d="M112.5 260q-.15.05-.25.15-4.9 2.15-9.65 4.45-.45.6-1 1.25t-1.2 1.35q-2 2.2-3.55 3.15-1.15.65-2.1.7-.25 0-.4.05-1.5 1.8-3.05 3.25-.4.4-.75.7-1.75 1.35-2.95 1.45-1.15.05-1.85-.45-.85.4-1.45.65-1.2.55-1.75.6-.7.05-1.35-.3-.35-.25-.7-.55-1 .55-2 1.2 1-.65 2-1.2-.15-.15-.25-.3-.2-.3-.35-.65-3.4 1-4.55.45-1.1-.55-.55-3.75.5-3.3 1.4-4.8.3-.45 1.1-1-2.85 1.05-5.4 2.85-9.42 12.294-10.7 23.3h59.75q4.668-3.375 9.25-7.05 3.66-2.955 7.1-6.15l.1-.1q.18-.142.35-.3 1.793-1.62 3.55-3.3-1.757 1.68-3.55 3.3-.17.158-.35.3l-.1.1q-8.547 8.25-10.75 13.2h63.5q3.147-6.574-3.4-22.15 9.858 11.21 3.45 22.15h2.7q.035-.025.05-.05 2.35-6.15 1.65-11.95-1.65-8.25-7.4-12.8l-7.75-10-5.2-6.65q-8-2.85-15.3.1 2 8.9 7.75 14.05 1.7-.1 3.45-.05 1.8.05 3.7.2-1.9-.15-3.7-.2-1.75-.05-3.45.05-2.05.1-4.15.35-1.4.15-2.85.35-5.9 1.05-11.75 3.2-3.1 3.227-6.35 6.25 3.25-3.023 6.35-6.25 5.85-2.15 11.75-3.2l-3.95-5.3q-4.85-5.3-9.25-7.75-2.55-1.45-4.95-2-7.1-1.55-10.3 1.8-.5.15-.95.3-9 3.25-17.7 7m14.35-2.2q12.75-8.4 17.85-1.85-10.5-1.8-17.85 1.85m45.6 12.7q-8.15-2.75-22.45 3.1 9.422-8.963 22.45-3.1m-86-5.8q.65-1.25 1.8-2.25l-3.1-.05q-.7.2-1.35.6-1 .5-1.8 1.35-.05 0-.05.05-.45.35-.75.9-.45.55-.85 1.2-1.4 2.85-1.2 6.4.1 1.55.75 2.6.15.35.35.65.1.15.25.3.35.3.7.55-1.05-3.5 2.1-5.7.55-.5 1.3-.85.1-1.3.4-2.45.5-1.8 1.45-3.3m9.15-5.35l-1.75-.05q-3.4 1.05-5.6 3.15-1.15 1-1.8 2.25-.95 1.5-1.45 3.3-.3 1.15-.4 2.45-.2 1.4-.1 3 0 .3.1.6.2 1.35 1.15 2 .7.5 1.85.45 1.2-.1 2.95-1.45-4.2-3.5 2.25-10.9.15-.55.25-1.1.15-.55.75-1.55.75-1.4 1.55-1.9.1-.15.25-.25M103 264q.6-.8 1.1-1.6-.5.8-1.1 1.6l8.35-3.55q-2.8-.95-6.9-2.45-3-1-5.3-.85l-.1.05q-.05-.4-3.45 2.15-.15.1-.25.25-.8.5-1.55 1.9-.6 1-.75 1.55-.1.55-.25 1.1-1.1 4.45-1.05 5.45 0 .25.05.45.2.65.9.9.5.15 1.65.15.15-.05.4-.05.95-.05 2.1-.7 1.55-.95 3.55-3.15.65-.7 1.2-1.35.55-.65 1-1.25l.4-.6m-35.65-65.6q-.1.1-.15.1l.6.1-.45-.2z"/><path fill="#F7EEEA" d="M144.7 255.95q-5.1-6.55-17.85 1.85 7.35-3.65 17.85-1.85z"/><path fill="#060" d="M28.85 260.75l2.55 8.85 1.4-.4q-2.4-4.1-3.95-8.45m56.3 1.65l-3.4-2.05L83.8 263q.65-.4 1.35-.6z"/><path fill="#FFF" d="M144.05 243.55q-.463-1.127-1-2.3-1.352 1.1-4.05 2.3-5.24 2.353-15.6 5.1-5.7 1.5-12.9 2.2l1.75 9.3q.1-.1.25-.15 8.7-3.75 17.7-7 .45-.15.95-.3 3.2-3.35 10.3-1.8 2.4.55 4.95 2-.287-4.186-2.35-9.35z"/><path fill="#F16528" d="M134.1 206.55q-5.25-.95-11.65 2.7.85 12.25-7.15 16.75-5.15 2.05-10.4 2.4 2.075 7.698 3.85 15.15.924 3.68 1.75 7.3 7.2-.7 12.9-2.2 10.36-2.747 15.6-5.1 2.698-1.2 4.05-2.3.537 1.173 1 2.3 2.063 5.164 2.35 9.35 4.4 2.45 9.25 7.75l.65-.2q-1-3.4-2.15-6.7l-1.2-3.2q-1.326-3.537-2.85-7-2.426-5.545-5.35-10.9-4.4-8-9.75-15.55v-.05q-1.4-2-2.9-3.9 1.5 1.9 2.9 3.9v.05q5.35 7.55 9.75 15.55 2.924 5.355 5.35 10.9 1.524 3.463 2.85 7 7.65-5.7 18.4-3 3.25.75 4.5 1.85l-15.95-19.3-7.75-13.1q-6.6-8.2-18.05-10.45z"/><path fill="#030" d="M174.15 251.1l5.2 6.65q1.5-1.8.5-3.65l-.05-.05-.5-.5q-2.65-1.55-5.15-2.45z"/><path fill="#F3F3F3" d="M103 264l-.4.6q4.75-2.3 9.65-4.45l-1.75-9.3q-13 1.25-31.1.05.05.2.05.4.75 4.05 1.55 8.1l.75.95 3.4 2.05 3.1.05q2.2-2.1 5.6-3.15l1.75.05q3.4-2.55 3.45-2.15l.1-.05q2.3-.15 5.3.85 4.1 1.5 6.9 2.45L103 264z"/></g><g id="x"><path fill="#EBD7CD" d="M10.25 105.65q3.6-6.55 9.85-1.55v-.05q-6.25-5-9.85 1.55-.5.95-.95 2.1.5-1.2.95-2.05m151.45-18.4q0-.05-.05 0l-.9-3 2.45 9.45q-1.45-6.25-1.5-6.45M100.95 54.6q.1.05.15.05-.1-.1-.15-.2v.15m62.5 40.2q-.1-.55-.25-1.1l-2.45-9.45-5.85-23.1v.05h-.05l-.35-.35q-.25-.6-2.45-2.65-2.5-2.35-3.45-2.4.2 1.05 1.75 3l1.7 2.05-1.15.1q-1.1-.1-6-2-4.95-1.9-6.35-2.85h-.2l.3 3.9-1.25 1q-5.75-1.65-10.25-3.2-4.65-1.5-5.35-2.1h-.15q.3.3 1.9 2.45 1.6 2.1 2.2 3l-.75.05q-.85-.1-10.8-2.8-10-2.75-13.1-3.75.5.8 2.55 3.05 2.2 2.3 2.65 2.7-.95.05-8.7-.85-4.15-.55-11.35-1.5-2.1-.25-4.05-.05-1.85.15-3.2 0l-.9.05.15 2q.3 1.15 1.15 3.35.6 1.6.65 2.1l-1.15.2q-8.75-2.85-13.2-3-.15 0-2.7-.05-1.3.1-2.4-.3l-.2-.1q.3 1.1 1.95 3.25 1.55 1.85 2 2.05v.15l-14.6 1.25q-3.75-.05-4.8-.15-.2 0-3.9-.85l.15 1.45q.95 3 1.5 4.4.75 2.5.95 4.55.15 1.3.15 1.7 0 .05-.2 1.65-.05.6-.1 1.3-.05.25-.7 2 .25 1 .45 2.1l1.05 8.05-9.8 17.5 5.2 26.3h-.05l-8.6-1.85-10.35-31.2q-1.45-1.4-5.85-.65-2.55.4-2.5 4.35l.05 1.2.45 3.15q.5 1.8 1.1 3.9.35 1.1.7 2.15 3.25 10.2 5.55 14.25 1.75 3.15 4.15 7l2.3 3.45q3.95 5.95 11.05 2.85 2.4 2.65 8.3 6.15 2.6 1.45 4.3 6.55 2.6 7.55 3.8 9.6 4.65 8.1 8.25 13.25 2 2.75 3.75 4.6 7.05 7.6 20.95 15.3l-.6-.2-.2-.1q-.25-.1-.4-.15.6.3 1.25.65 5.05 1.55 12.1 6.5 5.5 2 17 .55 1.85-.25 3.7-.65.35-.25.75-.4 13-6.05 18.6-11.9 8.8-9.05 6.3-21 0-.15.1-.5.5-1.25 3.05-4.8 4-5.55 4.65-6.8 1.3-2.5 2.65-6.3.4-1.3 1.85-6.3.35-.95 2.45-6.4 2.15-5.25 3.2-9.15 2.95-10.05 3.45-22.3l-.85-6.35q-.2-1.2-.4-2.35v.1q-.1-.7-.25-1.4l-.65-3.6q-.05-.05-.05-.2l-1.45-5.55q.1.15.15.4M54 105.9l.05-.25q.05-.05.15-.05-.05.1-.2.3z"/><path fill="#E6C9BD" d="M20.15 104.1h-.05q-6.25-5-9.85 1.55-.45.85-.95 2.05 0 2.35.2 4.65.3 4.1 1.2 8 .65 2.9 1.6 5.75 1.85 5.5 4.9 10.5 3.75 17.45 12 20.75 1.3.5 2.45.7 5.6 1.4 8.65-1.5.55 1.45 1.1 2.7l6.3 12v.05l.1.1h-.1q.55 1 1.2 1.95 2.9 5.15 6.65 10.35.75.85 1.45 1.8 5.25 4.8 12.25 8.9l15.4 7.7q.6.15 1.15.45h.05q.15.05.4.15l.2.1.6.2q-13.9-7.7-20.95-15.3-1.75-1.85-3.75-4.6-3.6-5.15-8.25-13.25-1.2-2.05-3.8-9.6-1.7-5.1-4.3-6.55-5.9-3.5-8.3-6.15-7.1 3.1-11.05-2.85l-2.3-3.45q-2.4-3.85-4.15-7-2.3-4.05-5.55-14.25-.35-1.05-.7-2.15-.6-2.1-1.1-3.9l-.45-3.15-.05-1.2q-.05-3.95 2.5-4.35 4.4-.75 5.85.65l-.55-1.8M142.3 49.35l-.1.1q.5.45 1.55 1.9l.4.5q1.2 1.25 2.65 1.85.1.1.2.15 2.05.85 3.3 1.45-1.9-.05-3.8-.4-4.45-.8-8.45-2.85-3.05-1.5-6.95-3.9.85 4.55 1.25 5.8v.2q-.05-.05-.1-.05-9.15-6.05-11.65-7.8-.3-.1-.6-.05-2.15-.35-4.4-.5.45.65 1.85 2.75 1.6 2.35 2.9 5.2-1.4-.1-3 0-1.9-.25-5.95-2.75-2.75-1.65-11.05-3.2-3.6-.6-8.8-1.35-1.2.05-2.55.35 1.45.8 4.05 2.3 4.65 2.65 7.3 5.2-2.15-.3-14.4-.45-11.8-.7-14-3.45l-.7.2q3.3 5.4 3.65 7l.5 2.45q-.4.1-3.4-.7-3.4-.75-6.1-.75-2.4 0-7.35-.15-4.1-.1-6.3-1.35h-.05q-.2 1.75 2.05 4.35 2.35 2.7 3.75 2.45l-4.15.85q-4.2 1.15-11.05-.85-1.6-.55-3.1-1.05-.6.3-5.1 1.95 5 8.35 7.4 17.1l.6 2q.1.3.1.6.1.25.1.55.65-1.75.7-2 .05-.7.1-1.3.2-1.6.2-1.65 0-.4-.15-1.7-.2-2.05-.95-4.55-.55-1.4-1.5-4.4l-.15-1.45q3.7.85 3.9.85 1.05.1 4.8.15l14.6-1.25v-.15q-.45-.2-2-2.05-1.65-2.15-1.95-3.25l.2.1q1.1.4 2.4.3 2.55.05 2.7.05 4.45.15 13.2 3l1.15-.2q-.05-.5-.65-2.1-.85-2.2-1.15-3.35l-.15-2L79 58q1.35.15 3.2 0 1.95-.2 4.05.05 7.2.95 11.35 1.5 7.75.9 8.7.85-.45-.4-2.65-2.7-2.05-2.25-2.55-3.05-.05 0-.15-.05v-.15q.05.1.15.2 3.1 1 13.1 3.75 9.95 2.7 10.8 2.8l.75-.05q-.6-.9-2.2-3-1.6-2.15-1.9-2.45h.15q.7.6 5.35 2.1 4.5 1.55 10.25 3.2l1.25-1-.3-3.9h.2q1.4.95 6.35 2.85 4.9 1.9 6 2l1.15-.1-1.7-2.05q-1.55-1.95-1.75-3 .95.05 3.45 2.4 2.2 2.05 2.45 2.65l.35.35h.05v-.05l-1.95-7.75q-.9-.8-2.3-1.8-.8-.6-2-1.1-2.5-1-6.35-1.15z"/><path fill="#F7EEEA" d="M166.55 144.35l-.8 3.9q-1.3 4.35-3 8.45-3.75 10.2-8.45 18.35-1.85 3.3-3.95 6.3-4.9 17.9-18.75 24.6-5.4 2-10.95 3.25-.4.15-.75.4 5.9-1.3 11.7-3.5 13.85-6.65 18.8-24.55 2.1-3.05 4.1-6.55 4.6-8 8.25-18.1 1.7-4.1 3-8.5.5-2 .8-4.05z"/><path fill="#171717" d="M164.8 100.15l.65 3.6q.15.7.25 1.4v-.1l.15-4.85h-.05l-1-.05m-110.75 5.5l-.05.25q.15-.2.2-.3-.1 0-.15.05z"/></g><g id="z"><path fill="#F7EEEA" d="M151.75 168.05l-.05-.4q-.1.2-.25.45l.3-.05z"/><path fill="#261C10" d="M88.65 164.8q6.8 5.75 12.9 7.9 8.55 2.9 14.4 2.4 18.65-1.15 21.55-3.35 3.1-2.2 3.3-2.9 3.5-4.75 4.1-8.9.15-1.65-.1-3.1l1.15-.8-.15-1.95q-13.7 6.6-21.65 6.7-15.2-.5-34.15.4-2.8.2-3.15.85-.7.8 1.8 2.75m2.4-1.6q5.05-.95 11.85-.6 6.85.35 17 .3 5.6.35 11.4-.65 3.5-.7 8.85-2.7-.1 5.8-5.65 10.9-11.3 3.7-24.45 2.5-11.45-2-19-9.75m13.2-31.15q-2.05 1.05-2.9 3.15-.6 1.7-.35 3.3.5 2.6 2.9 4.4 1.95 1.35 3.6 1.35-8-5.2-3.25-12.2m36.2-3.95q-.6-.9-2-2.85 4.6 10.5-1.35 15 1.45-.35 2.45-1.2.2-.05.25-.2.15-.1.35-.25 2.45-2.35 1.6-6.65-.45-2.35-1.3-3.85z"/><path fill="#FFF" d="M102.9 162.6q-6.8-.35-11.85.6 7.55 7.75 19 9.75 13.15 1.2 24.45-2.5 5.55-5.1 5.65-10.9-5.35 2-8.85 2.7-5.8 1-11.4.65-10.15.05-17-.3M89.3 104q-.75-.55-1.65-.35-.95.15-1.45.9-.55.7-.35 1.6.2.9.95 1.5.75.5 1.65.35.85-.2 1.35-.95.55-.8.35-1.65-.1-.9-.85-1.4m58.8-7.35q-.65-.5-1.45-.35-.75.15-1.15.8-.35.65-.2 1.55.15.8.7 1.3.7.55 1.4.35.8-.15 1.2-.85.45-.65.25-1.5-.1-.8-.75-1.3z"/><path fill="#231F20" d="M79.7 102.85q-1.9 2.95-1.3 6.45.65 3.45 3.5 5.45 2.9 2.1 6.3 1.45 3.4-.6 5.35-3.55 2.05-2.9 1.4-6.45-.55-2.65-2.5-4.55-1.35-1.45-3.3-2.1-1.95-.55-4.05-.15-3.35.6-5.4 3.45m7.95.8q.9-.2 1.65.35.75.5.85 1.4.2.85-.35 1.65-.5.75-1.35.95-.9.15-1.65-.35-.75-.6-.95-1.5-.2-.9.35-1.6.5-.75 1.45-.9M147.9 92.6q-1.65-.6-3.3-.3-2.85.55-4.5 3.2-1.6 2.7-1 5.9.6 3.2 3 5.15 2.5 1.85 5.3 1.25 2.85-.4 4.4-3.1 1.6-2.65 1.05-5.9-.45-2.5-2.1-4.25-1.25-1.3-2.85-1.95m-1.25 3.7q.8-.15 1.45.35.65.5.75 1.3.2.85-.25 1.5-.4.7-1.2.85-.7.2-1.4-.35-.55-.5-.7-1.3-.15-.9.2-1.55.4-.65 1.15-.8z"/><path fill="#171717" d="M127.3 82.4l-1.1.4 2.7 6-1.6-6.4m5.05-1.45l-2.8 8.9q6.8-3.95 15.1-5.9 9.65-2.8 15.3-.2l-.75-3.2q-5.45-3.95-26.85.4m-2.95.75l-1.1.35 1.15 7.9v-.05l-.05-8.2m2.05-.55q-.45.1-1.05.2l-.9 8.55 1.95-8.75M54.3 104.6q-.1 0-.2.05l-.05.2.25-.25m51.45-12.2l-.05-.05-.05.05h.1m-.15-.25h.05l-3-8-1.85.2 4.8 7.8m.85-8.5l-1.95.2 1.2 8.3h.05l-.05.05.05.2.7-8.75m-7.55.9l-2.85.4 8.5 6.55-11.45-6.25-20.3 2.6Q60.9 90.3 56.95 96.6l-2.8 7.9q5.9-7.3 16.75-9.75l34.7-2.6-6.7-7.6z"/><path fill="#E6C9BD" d="M129.45 89.9v.05q-.95 2.4-1.2 5.6h.05q26.6-13.9 34.6.2l-2.95-12q-5.65-2.6-15.3.2-8.3 1.95-15.1 5.9l-.05.05h-.05m-23.8 2.25h-.05l-34.7 2.6q-10.85 2.45-16.75 9.75-.05.05-.1.15h.05q.1-.05.2-.05 25.9-9.15 50-7.45l1.35-4.75.05-.05v-.15l.05-.05h-.1z"/><path fill="#EBD7CD" d="M105.7 92.2v.15l.05.05-.05-.2z"/></g><path fill="#E6C9BD" d="M132.5 144q1.2-1.55 2.3-3.5l.95-1.55q-7.5-.5-18.35 1.7l.05-.05-.5.1q-.3.1-.55.15-4.95 1.25-8.05 2.65 7.05 1.5 11.55 3.95 2.05 1.1 2.55 1.3 1.3.5 3 .4 3.1-.1 7.05-5.15z" id="A"/><path fill="#261C10" d="M122.2 141.4q-4.35-3.7-8.35 1.3 4.45-2.2 8.35-1.3z" id="B"/><path fill="#F7EEEA" d="M134.55 186.75q-10.15-8.05-17.75 2.5 8.5-6.05 17.75-2.5m32.45-73q-.5 12.25-3.45 22.3-1.05 3.9-3.2 9.15-2.1 5.45-2.45 6.4-1.45 5-1.85 6.3-1.35 3.8-2.65 6.3-.65 1.25-4.65 6.8-2.55 3.55-3.05 4.8-.1.35-.1.5 2.5 11.95-6.3 21-5.6 5.85-18.6 11.9 5.55-1.25 10.95-3.25 13.85-6.7 18.75-24.6 2.1-3 3.95-6.3 4.7-8.15 8.45-18.35 1.7-4.1 3.05-8.45.35-1.9.75-3.9l.4-30.6z" id="C"/><path fill="#261C10" d="M167.85 144.55q-.05-.1-.05-.2l.5-30.55q0-.1-.05-.15l-2.55-29.6-4.95.45q4.3 19.15 4.5 46.55l.1 13.2q-.35 1.85-.75 3.65-1.25 4.3-2.95 8.35-3.7 10.15-8.35 18.15-1.9 3.3-3.9 6.25-.15.15-.15.35-.75 2.7-1.7 5.1-4.2 10.75-12.4 16.4-1.9 1.25-3.9 2.25-5.35 2.05-10.8 3.3l.05-.1q-.4.1-.85.2l-.05.05q-1.8.35-3.55.6-10.9 1.35-16.25-.4-7.1-5-12.3-6.55 0-.05-.05-.05l-.55-.15q-.1-.15-.25-.15-.2-.05-.35-.1l.1.1q-.55-.35-1.3-.55l-15.2-7.6q-6.8-4.1-11.95-8.65-.65-.9-1.35-1.8v.05q-2.05-2.95-7.45-11.85l.2.15-7.55-17.6q-5.05 3.3-7.45 3.5-8.95-.95-12.45-11-3.45-10.05-3.6-10.2-3-4.85-4.75-10.25-.95-2.8-1.6-5.6-.85-3.85-1.15-7.8v-.05q-1.7-9.2 4.3-10.2l-7.45-.65q.55 9.85.65 11.05.3 4.2 1.2 8.15.75 3 1.7 5.85 1.85 5.6 4.85 10.6 3.85 17.6 12.25 21.25 8.2 2.45 11.45-.9l5.3 11.45q6.75 11.65 9.55 15.55.7.95 1.45 1.9.05.05.15.2 5.35 4.8 12.45 9 .1 0 .1.05l15.4 7.65.2.1q.55.15 1 .4l.05.05q.2 0 .5.15l.2.1.6.2h.05q4.9 1.5 11.75 6.3l.3.2q5.75 2.1 17.6.6 1.9-.3 3.75-.75.35-.05.8-.1h.05q5.6-1.3 11.1-3.35.05 0 .05-.05 4.15-2 7.55-4.95 6.9-6.05 10.55-16.25.7-1.9 1.3-3.95 2-2.95 3.85-6.25v.05q4.8-8.25 8.6-18.55l-.05.05q1.7-4.2 3.05-8.6v-.1q.45-1.9.85-3.95z" id="D"/><path fill="#171717" d="M31.7 158.1q-1.15-.25-2.45-.75 3.95 9 18.5 14.05h.1l-.1-.1v-.05l-6.3-12q-.55-1.25-1.05-2.7-3.1 2.9-8.7 1.55z" id="E"/><g id="F"><path fill="#292929" d="M165.7 48.4q-.25 3.6-1.95 5.7-2.05-20.2-17.1-24.25 9.5 14.6 9.9 22.6-5.65-5.5-8.5-2.1 3.8-.15 6 2.95L164 95.2l1.7-46.8M17.2 75.05Q10.55 82 9.7 91.45 5.05 80.05 4.95 69.9 1.7 71.2 1.5 76.6l7.25 28.45q8.45-8.2 12.5-2.2l10.45 34 7.3 1.25-5.55-25.8q5.55-7.75 9.9-16.65.3-4.5-.75-8.8-3.55 10.25-11.55 18.95-2.75-8.9-1.9-21.8-5.35 5.9-7.75 12.85-4.05-10.75-4.2-21.8m88.95-64.55q2.85-.85 5.95-.55-2.1-1.65-12.85-.9 1.4-1.5 5.15-2-3.1-2.8-22.3.85-12.8 1.25-21.75 3.45-7.8 3.05-13.7 7.25 3.35-.85 6.75-.6-6.5 1.85-13.75 5.8-5.05 3.4-10.15 5.35 2.45.3 4.85-.45L19.7 39.5q3.3.75 6.75-.6-3.9 2.75-5.65 5.65 2.1.15 5.8-.6-4.55 4.9-6.6 12.25l11.75-7.4q3-2.5 6.35-1.5 5.45 4.2 7.2 4.6-2.05-2.8-1.95-9.95Q56.4 46.05 66 50.5q.1-3.85-4.95-7 10.55 3.55 18.6 2.9-8.7-2.4-20.2-11.7 25.85-10.65 36.5-4.95-10.05.6-18.2 5.95 21.6 1.75 34.3 10.85-.25-6.5-5.85-12.55 5.9 1.5 13.65 5.55-5.05-8.85-14.15-18.4 7.05-2.2 27.15 8.5-11.9-10.65-26.7-19.15z"/><path fill="#171717" d="M162.6 95.3l1.4-.1-9.95-41.9q-2.2-3.1-6-2.95 2.85-3.4 8.5 2.1-.4-8-9.9-22.6 15.05 4.05 17.1 24.25 1.7-2.1 1.95-5.7L164 95.2l-1.4.1 3.9 4.6 1.6-50.65-9.3-20q-9-10.6-22.45-19.35-17.6-6.8-39.2-9.9l-34.6 3q-17.6 7.6-32.1 19.15l-25.3 24Q.05 60.05 0 77.05l8.25 31.6q6.5-10.1 11.65-3.7l10.6 32.85 10.05 2.05-5.15-26.8 9.4-17.45q.75-11.2-8.6-30.15L39.8 64q9.8 3.05 19.15.9-5-3.15-5.85-6.6 5.95 1.4 11.75.8 6.25-.65 11.15 2.1.25-4.2-2.15-8.6 7.45 2 13.05 1.55 7.65-.45 15.4.3-4.65-1.95-10.85-7.05 8.55-.55 15.85 2.95 8.55 4.2 13.8 4.55-5.6-4.8-3.55-8 8.4 8.05 17 8.6-2.75-2.55-2.15-5.7 9.4 7.7 18.7 6.6-3.8-.4-6.9-5.85 6.9 1.25 8.1 2.95l10.3 41.8M112.1 9.95q-3.1-.3-5.95.55 14.8 8.5 26.7 19.15-20.1-10.7-27.15-8.5 9.1 9.55 14.15 18.4Q112.1 35.5 106.2 34q5.6 6.05 5.85 12.55-12.7-9.1-34.3-10.85 8.15-5.35 18.2-5.95-10.65-5.7-36.5 4.95 11.5 9.3 20.2 11.7-8.05.65-18.6-2.9 5.05 3.15 4.95 7-9.6-4.45-22.65-8.55-.1 7.15 1.95 9.95-1.75-.4-7.2-4.6-3.35-1-6.35 1.5L20 56.2q2.05-7.35 6.6-12.25-3.7.75-5.8.6 1.75-2.9 5.65-5.65-3.45 1.35-6.75.6l14.65-10.8q-2.4.75-4.85.45 5.1-1.95 10.15-5.35Q46.9 19.85 53.4 18q-3.4-.25-6.75.6 5.9-4.2 13.7-7.25Q69.3 9.15 82.1 7.9q19.2-3.65 22.3-.85-3.75.5-5.15 2 10.75-.75 12.85.9M9.7 91.45q.85-9.45 7.5-16.4.15 11.05 4.2 21.8Q23.8 89.9 29.15 84q-.85 12.9 1.9 21.8 8-8.7 11.55-18.95 1.05 4.3.75 8.8-4.35 8.9-9.9 16.65L39 138.1l-7.3-1.25-10.45-34q-4.05-6-12.5 2.2L1.5 76.6q.2-5.4 3.45-6.7.1 10.15 4.75 21.55z"/></g><path id="w" stroke="#171717" stroke-width="2" stroke-linejoin="round" stroke-linecap="round" fill="none" d="M175.85 249.4l-15.95-19.3-7.75-13.1q-6.6-8.2-18.05-10.45-5.25-.95-11.65 2.7.85 12.25-7.15 16.75-5.15 2.05-10.4 2.4m41.5 24.5q4.4 2.45 9.25 7.75m.65-.2q-1-3.4-2.15-6.7l-1.2-3.2q-1.326-3.537-2.85-7-2.426-5.545-5.35-10.9-4.4-8-9.75-15.55v-.05q-1.4-2-2.9-3.9m-12.15-3.55l-.6.1.6.15q-1.95 13-13.6 14.1m-1.45 4.45q-8.4.6-16.75-3.15-16.7-8.65-24.45-25.1m-.5.3l-24.4 15.1q-10.2 9.55-11.6 26.4-.088.8-.15 1.6-.446 5.094-.1 10.15.65 3.6 1.9 7.05 1.55 4.35 3.95 8.45l16.075 23.35m4 0q4.74-24.508 28.325-32.05.25-.1.55-.15l-.75-.95-10.65-13.5m-2.55-47.3q15.7 22.15 34.1 25.35 2.35.2 4.45 0m-2.25 38.45q-.5.8-1.1 1.6l-.4.6m8.75-4.15q-2.8-.95-6.9-2.45-3-1-5.3-.85l-.1.05q-.05-.4-3.45 2.15-.15.1-.25.25-.8.5-1.55 1.9-.6 1-.75 1.55-.1.55-.25 1.1-1.1 4.45-1.05 5.45 0 .25.05.45.2.65.9.9.5.15 1.65.15.15-.05.4-.05.95-.05 2.1-.7 1.55-.95 3.55-3.15.65-.7 1.2-1.35.55-.65 1-1.25 4.75-2.3 9.65-4.45.1-.1.25-.15 8.7-3.75 17.7-7 .45-.15.95-.3 3.2-3.35 10.3-1.8 2.4.55 4.95 2m-50.8 6.45l-1.75-.05q-3.4 1.05-5.6 3.15-1.15 1-1.8 2.25-.95 1.5-1.45 3.3-.3 1.15-.4 2.45-.2 1.4-.1 3 0 .3.1.6.2 1.35 1.15 2 .7.5 1.85.45 1.2-.1 2.95-1.45M83.8 263q-1 .5-1.8 1.35-.05 0-.05.05-.45.35-.75.9-.45.55-.85 1.2-1.4 2.85-1.2 6.4.1 1.55.75 2.6.15.35.35.65.1.15.25.3.35.3.7.55m7.05-14.55l-3.1-.05m-3.4-2.05L83.8 263q.65-.4 1.35-.6M81.2 277q.65.35 1.35.3.55-.05 1.75-.6.6-.25 1.45-.65m4.8-1q.35-.3.75-.7 1.55-1.45 3.05-3.25m64.5-19.9q-2.4.95-4.7 2.55m1.5 6.9l3.95 5.3q1.45-.2 2.85-.35 2.1-.25 4.15-.35m-7.75-14.05q7.3-2.95 15.3-.1 2.5.9 5.15 2.45l-3.45-4.15m-20.2 11.25q.55.55 1 1.1-.15-.65-.35-1.3m-14.775 14.975q3.225-3.048 6.325-6.275 5.85-2.15 11.75-3.2m-22.3 13.425q-3.44 3.17-7.1 6.125-4.582 3.675-9.25 7.05m71.9-.05q2.35-6.15 1.65-11.95-1.65-8.25-7.4-12.8l-7.75-10-5.2-6.65m-36.85 28.275l.1-.1.35-.325q1.793-1.62 3.55-3.3m-21.35-66.05l2.5-.35m-58.75-9.1l3.5-1.65q.05 0 .15-.1.9-1.35-.15-4.65l52.15 15.95m-81.425 82.85L31.4 269.6l-2.55-8.85m43.05 8.5q2.55-1.8 5.4-2.85-.8.55-1.1 1-.9 1.5-1.4 4.8-.55 3.2.55 3.75 1.15.55 4.55-.45m-23.475 17.05q.622-2.527 1.675-4.75 5.65-12.85 13.8-18.55m6.6 8.4q1-.65 2-1.2m1.45-12.05q-3.2 1.05-4.65 2m102-12.85q.1 0 .2.1l.3.4.05.05q1 1.85-.5 3.65m.45-3.7l-.5-.5m-12.7 11.7q1.7-.1 3.45-.05 1.8.05 3.7.2"/><path id="y" stroke="#171717" stroke-width="2" stroke-linejoin="round" stroke-linecap="round" fill="none" d="M163.2 93.7l-2.45-9.45"/><path id="G" stroke="#171717" stroke-linejoin="round" stroke-linecap="round" fill="none" d="M162.6 95.3l1.4-.1-9.95-41.9q-2.2-3.1-6-2.95 2.85-3.4 8.5 2.1-.4-8-9.9-22.6 15.05 4.05 17.1 24.25 1.7-2.1 1.95-5.7L164 95.2m-1.4.1l-10.3-41.8q-1.2-1.7-8.1-2.95 3.1 5.45 6.9 5.85-9.3 1.1-18.7-6.6-.6 3.15 2.15 5.7-8.6-.55-17-8.6-2.05 3.2 3.55 8-5.25-.35-13.8-4.55-7.3-3.5-15.85-2.95 6.2 5.1 10.85 7.05-7.75-.75-15.4-.3-5.6.45-13.05-1.55 2.4 4.4 2.15 8.6-4.9-2.75-11.15-2.1-5.8.6-11.75-.8.85 3.45 5.85 6.6-9.35 2.15-19.15-.9l-3.6 1.45q9.35 18.95 8.6 30.15l-9.4 17.45 5.15 26.8-10.05-2.05-10.6-32.85q-5.15-6.4-11.65 3.7L0 77.05q.05-17 5.15-30.9l25.3-24Q44.95 10.6 62.55 3l34.6-3q21.6 3.1 39.2 9.9 13.45 8.75 22.45 19.35l9.3 20-1.6 50.65-3.9-4.6zM112.1 9.95q-3.1-.3-5.95.55 14.8 8.5 26.7 19.15-20.1-10.7-27.15-8.5 9.1 9.55 14.15 18.4Q112.1 35.5 106.2 34q5.6 6.05 5.85 12.55-12.7-9.1-34.3-10.85 8.15-5.35 18.2-5.95-10.65-5.7-36.5 4.95 11.5 9.3 20.2 11.7-8.05.65-18.6-2.9 5.05 3.15 4.95 7-9.6-4.45-22.65-8.55-.1 7.15 1.95 9.95-1.75-.4-7.2-4.6-3.35-1-6.35 1.5L20 56.2q2.05-7.35 6.6-12.25-3.7.75-5.8.6 1.75-2.9 5.65-5.65-3.45 1.35-6.75.6l14.65-10.8q-2.4.75-4.85.45 5.1-1.95 10.15-5.35Q46.9 19.85 53.4 18q-3.4-.25-6.75.6 5.9-4.2 13.7-7.25Q69.3 9.15 82.1 7.9q19.2-3.65 22.3-.85-3.75.5-5.15 2 10.75-.75 12.85.9zM9.7 91.45q.85-9.45 7.5-16.4.15 11.05 4.2 21.8Q23.8 89.9 29.15 84q-.85 12.9 1.9 21.8 8-8.7 11.55-18.95 1.05 4.3.75 8.8-4.35 8.9-9.9 16.65L39 138.1l-7.3-1.25-10.45-34q-4.05-6-12.5 2.2L1.5 76.6q.2-5.4 3.45-6.7.1 10.15 4.75 21.55z"/></defs><use xlink:href="#a"/><use xlink:href="#b" transform="translate(-198.9 -73.55)"/><use xlink:href="#c" transform="translate(.05)"/><use xlink:href="#d" transform="translate(.05)"/><use xlink:href="#e" transform="translate(250.95 -149.2)"/><use xlink:href="#f" transform="translate(-50 -299.95)"/><use xlink:href="#g" transform="translate(251.1 -99.95)"/><use xlink:href="#h" transform="translate(.05)"/><use xlink:href="#i" transform="translate(-250.3 150.3)"/><use xlink:href="#j" transform="translate(.05)"/><use xlink:href="#k" transform="translate(.05)"/><use xlink:href="#l" transform="translate(.05)"/><use xlink:href="#m" transform="translate(49.85 -1.05)"/><use xlink:href="#n"/><use xlink:href="#o" transform="translate(.05)"/><use xlink:href="#p" transform="translate(201.5 149.5)"/><use xlink:href="#q" transform="translate(-.45 -300.5)"/><use xlink:href="#r" transform="translate(-49 -99.6)"/><use xlink:href="#s" transform="translate(.05)"/><use xlink:href="#t" transform="translate(.05)"/><g filter="url(#u)" transform="translate(57.7 7.1)"><use xlink:href="#v"/><use xlink:href="#w"/><use xlink:href="#x"/><use xlink:href="#y"/><use xlink:href="#z"/><use xlink:href="#A"/><use xlink:href="#B"/><use xlink:href="#C"/><use xlink:href="#D"/><use xlink:href="#E"/><use xlink:href="#F"/><use xlink:href="#G"/></g></svg>