
<svg xmlns="http://www.w3.org/2000/svg" version="1.1" xmlns:xlink="http://www.w3.org/1999/xlink" preserveAspectRatio="none" x="0px" y="0px" width="300px" height="300px" viewBox="0 0 300 300">
<defs>
<filter id="Filter_1" x="-20%" y="-20%" width="140%" height="140%" color-interpolation-filters="sRGB">
<feFlood flood-color="#000000" flood-opacity="0.2980392156862745" in="SourceGraphic" result="result1"/>

<feComposite in2="SourceGraphic" in="result1" operator="in" result="result2"/>

<feGaussianBlur in="result2" stdDeviation="0.6666666666666666,0.6666666666666666" result="result3"/>

<feOffset dx="5" dy="0" in="result3" result="result4"/>

<feComposite in2="result4" in="SourceGraphic" operator="over" result="result5"/>
</filter>

<g id="Layer0_0_FILL">
<path fill="#FFE680" stroke="none" d="
M 200.05 250
L 200.05 300 250.05 300 250.05 250 200.05 250
M 200.05 100
L 200.05 150 250.05 150 250.05 100 200.05 100
M 150.05 250
L 150.05 200 100.05 200 100.05 250 150.05 250
M 0.05 100
L 0 100 0 150 0.05 150 50 150 50 100 0.05 100
M 100.05 50
L 100.05 0 50.05 0 50.05 50 100.05 50 Z"/>

<path fill="#FFB3B3" stroke="none" d="
M 250.05 250
L 250.05 200 200.05 200 200.05 250 250.05 250
M 200.05 50
L 200.05 100 250.05 100 250.05 50 200.05 50
M 100.05 250
L 50.05 250 50.05 300 100.05 300 100.05 250
M 100.05 50
L 50.05 50 50.05 100 100.05 100 100.05 50
M 50.05 150
L 50 150 0.05 150 0.05 200 50.05 200 50.05 150 Z"/>

<path fill="#CCB3E6" stroke="none" d="
M 250.05 250
L 300.05 250 300.05 200 250.05 200 250.05 250
M 250.05 50
L 250.05 0 200.05 0 200.05 50 250.05 50
M 50.05 250
L 0.05 250 0.05 300 50.05 300 50.05 250
M 100.05 150
L 50.05 150 50.05 200 100.05 200 100.05 150 Z"/>

<path fill="#99E680" stroke="none" d="
M 300.05 250
L 250.05 250 250.05 300 300.05 300 300.05 250
M 250.05 150
L 200.05 150 200.05 200 250.05 200 250.05 150
M 300.05 50
L 250.05 50 250.05 100 300.05 100 300.05 50
M 50.05 250
L 50.05 200 0.05 200 0.05 250 50.05 250
M 150.05 150
L 100.05 150 100.05 200 150.05 200 150.05 150
M 50.05 0
L 0.05 0 0.05 50 50.05 50 50.05 0 Z"/>

<path fill="#80CCE6" stroke="none" d="
M 300.05 150
L 250.05 150 250.05 200 300.05 200 300.05 150
M 250.05 50
L 300.05 50 300.05 0 250.05 0 250.05 50
M 100.05 250
L 100.05 200 50.05 200 50.05 250 100.05 250
M 150.05 200
L 150.05 250 200.05 250 200.05 200 150.05 200
M 50.05 50
L 0.05 50 0.05 100 50 100 50.05 100 50.05 50
M 100.05 0
L 100.05 50 150.05 50 150.05 0 100.05 0 Z"/>

<path fill="#FAC2A9" stroke="none" d="
M 250.05 150
L 300.05 150 300.05 100 250.05 100 250.05 150
M 50.05 100
L 50.05 150 100.05 150 100.05 100 50.05 100
M 200.05 50
L 200.05 0 150.05 0 150.05 50 200.05 50 Z"/>
</g>

<g id="Layer0_1_FILL">
<path fill="#FFFFFF" fill-opacity="0.9921568627450981" stroke="none" d="
M 273.1 214.95
Q 273.1 213.15 273.1 211.35
L 273.05 211.35
Q 269.4 211.35 265.85 211.35 265.85 211.4 265.85 211.45 265.85 213.2 265.85 215
L 265.9 215
Q 269.5 215 273.1 215
L 273.1 214.95
M 284.05 211.35
L 283.95 211.35
Q 280.35 211.35 276.75 211.35 276.75 211.4 276.75 211.45 276.75 213.2 276.75 215
L 276.8 215
Q 280.4 215 284.05 215
L 284.05 214.95
Q 284.05 213.15 284.05 211.35
M 287.65 185.95
L 287.6 185.95
Q 285.8 185.95 284.05 185.95
L 284.05 186.05
Q 284.05 187.8 284.05 189.55
L 284.1 189.55
Q 285.85 189.55 287.65 189.55
L 287.65 189.5
Q 287.65 187.7 287.65 185.95
M 262.2 189.55
L 262.25 189.55
Q 264.05 189.55 265.85 189.55
L 265.85 189.5
Q 265.85 187.7 265.85 185.95 265.8 185.95 265.75 185.95 264 185.95 262.2 185.95
L 262.2 186.05
Q 262.2 187.8 262.2 189.55
M 262.1 196.85
Q 260.35 196.85 258.55 196.85
L 258.55 196.9
Q 258.55 198.7 258.55 200.45
L 258.5 200.45
Q 256.7 200.45 254.95 200.45 254.95 200.5 254.95 200.55 254.95 205.95 254.95 211.35
L 255 211.35
Q 256.75 211.35 258.55 211.35
L 258.55 211.3
Q 258.55 207.7 258.55 204.1 258.6 204.1 258.65 204.1 260.4 204.1 262.2 204.1
L 262.2 204.2
Q 262.2 207.75 262.2 211.35
L 262.25 211.35
Q 264.05 211.35 265.85 211.35
L 265.85 211.3
Q 265.85 209.5 265.85 207.75 268.4 207.75 271 207.75 277.5 207.75 284.05 207.75
L 284.05 207.8
Q 284.05 209.6 284.05 211.35
L 284.1 211.35
Q 285.85 211.35 287.65 211.35
L 287.65 211.3
Q 287.65 207.7 287.65 204.1
L 287.7 204.1
Q 289.5 204.1 291.3 204.1
L 291.3 204.2
Q 291.25 207.75 291.3 211.35
L 291.35 211.35
Q 293.15 211.35 294.95 211.35
L 294.95 211.3
Q 294.95 205.85 294.95 200.45 294.9 200.45 294.85 200.45 293.1 200.45 291.3 200.45
L 291.3 200.4
Q 291.3 198.6 291.3 196.85 291.25 196.85 291.2 196.85 289.45 196.85 287.65 196.85 287.65 196.8 287.65 196.75 287.65 194.95 287.65 193.2
L 287.6 193.2
Q 285.8 193.2 284.05 193.2
L 284.05 193.15
Q 284.05 191.35 284.05 189.55
L 283.95 189.55
Q 282.15 189.55 280.4 189.55 280.4 189.6 280.4 189.65 280.4 191.45 280.4 193.2 280.35 193.2 280.3 193.2 274.9 193.2 269.5 193.2
L 269.5 193.15
Q 269.5 191.35 269.5 189.55
L 269.4 189.55
Q 267.6 189.55 265.85 189.55 265.85 189.6 265.85 189.65 265.85 191.45 265.85 193.2 265.8 193.2 265.75 193.2 264 193.2 262.2 193.2 262.2 193.25 262.2 193.3 262.2 195.05 262.2 196.85 262.15 196.85 262.1 196.85
M 265.85 196.9
L 265.85 196.85
Q 267.6 196.85 269.4 196.85
L 269.5 196.85
Q 269.5 198.6 269.5 200.4
L 269.5 200.45
Q 267.7 200.45 265.9 200.45
L 265.85 200.45
Q 265.85 198.7 265.85 196.9
M 280.4 196.9
L 280.4 196.85
Q 282.15 196.85 283.95 196.85
L 284.05 196.85
Q 284.05 198.6 284.05 200.4
L 284.05 200.45
Q 282.2 200.45 280.45 200.45
L 280.4 200.45
Q 280.4 198.7 280.4 196.9 Z"/>
</g>

<g id="Layer0_2_FILL">
<path fill="#FFFFFF" stroke="none" d="
M 55.2 24.15
L 55.25 24.2
Q 55.65 24.6 55.65 25.2 55.65 25.25 55.65 25.3 55.65 25.35 55.65 25.45 55.7 33.15 61.15 38.6 65.5 42.95 71.4 43.9
L 76.75 34.1
Q 75.55 34.4 74.2 34.4 70.3 34.4 67.5 31.65 66 30.15 65.35 28.3
L 57.95 16.3
Q 56.15 19.45 55.8 23.15 55.75 23.7 55.3 24.05 55.25 24.1 55.2 24.15
M 69.5 20.25
L 69.45 20.3
Q 67.65 22.15 67.55 24.8
L 67.55 25.25
Q 67.6 26.25 67.9 27.15 67.9 27.2 67.95 27.3 68.4 28.6 69.45 29.7 71.4 31.65 74.2 31.65 76.95 31.65 78.9 29.7 79.35 29.15 79.75 28.65 79.8 28.55 79.9 28.5 80.05 28.2 80.2 27.95 80.85 26.6 80.85 25 80.85 22.8 79.65 21.15 79.25 20.65 78.9 20.25 78.45 19.85 78.05 19.55 76.65 18.6 75 18.4
L 74.95 18.4
Q 74.55 18.35 74.2 18.35 71.45 18.35 69.5 20.25
M 90.6 15.6
L 90.4 15.35
Q 89.25 13.6 87.7 12.05 82.8 7.15 76.05 6.65 75.95 6.65 75.85 6.65
L 75.75 6.6 75.65 6.6
Q 75.05 6.6 74.45 6.6
L 73.15 6.6
Q 73.1 6.6 73.05 6.6 71.8 6.7 70.6 6.95 65.25 7.95 61.15 12.05 60.4 12.8 59.8 13.65 59.7 13.65 59.65 13.8
L 65.1 22.6
Q 65.65 20.15 67.5 18.3 70.3 15.55 74.2 15.55 74.7 15.55 75.2 15.6
L 90.6 15.6
M 81.85 19.45
L 81.9 19.5
Q 83.6 21.9 83.6 25 83.6 27.25 82.7 29.15
L 82.7 29.2
Q 82.45 29.65 82.15 30.15
L 82.15 30.2
Q 82.1 30.2 82.1 30.25
L 74.45 44.05
Q 82.25 44.05 87.7 38.6 93.2 33.1 93.2 25.3 93.2 21.6 91.95 18.4
L 80.95 18.4
Q 81.4 18.9 81.85 19.45 Z"/>
</g>

<g id="Layer0_3_FILL">
<path fill="#F4F3F2" stroke="none" d="
M 290.45 114.2
Q 290.7 111.05 291 107.9 287.55 107.9 284.1 107.9 271.55 107.9 259 107.9 259 107.95 259 108.05 259.75 117.8 260.8 127.25 260.9 127.25 260.95 127.25 271.85 127.25 282.7 127.25 282.7 127.35 282.7 127.4 282.45 131.45 282 135.25
L 282 135.35
Q 278.45 136.45 274.85 137.35 274.75 137.35 274.7 137.35 271.3 136.35 267.85 135.4 267.85 135.35 267.85 135.25 267.7 132.7 267.4 130.35 267.35 130.35 267.25 130.35 264.1 130.35 260.95 130.35 260.95 130.45 260.95 130.5 261.4 135.45 261.95 140.3
L 261.95 140.4
Q 268.5 142.25 275 144.1 278.25 143.1 281.7 142.25 285.1 141.45 288.05 140.2 288.05 140.1 288.05 140.05 289 130.45 289.85 120.8 289.8 120.8 289.7 120.8 278.15 120.8 266.55 120.8 266.55 120.75 266.55 120.65 266.3 117.5 266 114.35 266.05 114.35 266.15 114.35 278.3 114.35 290.4 114.35 290.4 114.3 290.45 114.2 Z"/>
</g>

<g id="Layer0_4_FILL">
<path fill="#FFFFFF" stroke="none" d="
M 41.35 212.9
Q 41.3 212.9 41.2 212.9 39.9 212.95 38.9 212.75 38.9 212.6 38.9 212.45 38.9 211.5 38.9 210.55 37.4 210.65 36.2 210.45 36.2 210.25 36.2 210.1 36.2 209.25 36.2 208.45 33.6 208.5 31.3 208.3 31.3 208.15 31.3 208 31.3 207.1 31.3 206.2 23.75 206.15 16.4 206.3 16.4 206.5 16.4 206.65 16.4 207.55 16.4 208.45 13.75 208.35 11.4 208.55 11.4 208.7 11.4 208.9 11.4 209.7 11.4 210.55 11.35 210.55 11.25 210.55 10.05 210.45 9.1 210.65 9.1 210.85 9.1 211 9.1 211.95 9.1 212.9 7.65 212.8 6.5 213 6.5 213.2 6.5 213.45 6.5 215.35 6.5 217.2 6.45 217.2 6.4 217.2 5.25 217.2 4.1 217.2 4.1 217.9 4.1 218.55 4.1 226.75 4.1 234.9 4.15 234.9 4.2 234.9 5.5 234.8 6.5 235 6.5 235.2 6.5 235.35 6.5 236.3 6.5 237.25 7.95 237.15 9.1 237.35 9.1 237.6 9.1 237.8 9.1 239.7 9.1 241.6 9.15 241.6 9.2 241.6 10.45 241.5 11.4 241.7 11.4 241.85 11.4 242.05 11.4 242.9 11.4 243.8 12.35 243.8 13.35 243.8 24.9 243.9 36.2 243.7 36.2 243.55 36.2 243.35 36.2 242.5 36.2 241.6 37.7 241.65 38.9 241.45 38.9 241.25 38.9 241.05 38.9 239.15 38.9 237.25 38.95 237.25 39.05 237.25 40.35 237.35 41.35 237.15 41.35 236.95 41.35 236.8 41.35 235.85 41.35 234.9 42.75 235 43.9 234.8 43.9 234.15 43.9 233.45 43.9 225.35 43.9 217.2 42.5 217.3 41.35 217.1 41.35 216.9 41.35 216.65 41.35 214.8 41.35 212.9
M 41.35 232.8
Q 41.3 232.8 41.2 232.8 38.55 232.9 36.2 232.7 36.2 232.5 36.2 232.35 36.2 231.45 36.2 230.55 36.15 230.55 36.1 230.55 32.5 230.55 28.9 230.55 28.9 230.4 28.9 230.25 28.9 229.25 28.9 228.25 28.95 228.25 29 228.25 30.3 228.3 31.3 228.1 31.3 227.65 31.3 227.15 31.3 223.3 31.3 219.45 31.25 219.45 31.2 219.45 29.9 219.55 28.9 219.35 28.9 219.15 28.9 219 28.9 218.1 28.9 217.2 23.85 217.15 19.1 217.35 19.1 217.5 19.1 217.65 19.1 218.55 19.1 219.45 19.05 219.45 19 219.45 17.7 219.45 16.4 219.45 16.4 223.75 16.4 228 16.4 228.05 16.4 228.1 17.6 228.3 19.1 228.25 19.1 229.35 19.1 230.45 19.1 230.5 19.1 230.55 15.1 230.5 11.4 230.7 11.4 230.75 11.4 230.8 11.4 231.8 11.4 232.8 8.8 232.9 6.5 232.7 6.5 232.65 6.5 232.55 6.5 230.4 6.5 228.25 8.9 228.25 11.25 228.25 11.35 228.25 11.4 228.25 11.4 227.4 11.4 226.55 11.4 226.4 11.4 226.25 12.5 226.05 13.85 226.1 13.9 226.1 13.95 226.1 13.95 222.25 13.95 218.35 13.95 217.85 13.95 217.35 12.9 217.15 11.55 217.2 11.45 217.2 11.4 217.2 11.4 216.35 11.4 215.45 11.4 215.3 11.4 215.1 11.4 215.05 11.4 215 11.4 213.95 11.4 212.9 12.6 212.9 13.85 212.9 13.9 212.9 13.95 212.9 13.95 213.9 13.95 214.9 13.95 214.95 13.95 215 16.4 215.2 19.1 215.1 19.1 214.1 19.1 213.1 19.1 213.05 19.1 213 20.15 212.8 21.4 212.9 21.4 210.8 21.4 208.75 21.4 208.6 21.4 208.45 23.85 208.45 26.3 208.45 26.35 208.45 26.45 208.45 26.45 210.55 26.45 212.65 26.45 212.7 26.45 212.75 27.5 212.95 28.9 212.9 28.9 213.9 28.9 214.9 28.9 214.95 28.9 215 31.25 215.2 33.9 215.1 33.9 214.05 33.9 213 33.9 212.95 33.9 212.9 35 212.9 36.1 212.9 36.15 212.9 36.2 212.9 36.2 213.85 36.2 214.8 36.2 214.95 36.2 215.1 36.2 215.3 36.2 215.45 36.2 216.35 36.2 217.2 36.15 217.2 36.1 217.2 35 217.2 33.9 217.2 33.9 221.55 33.9 225.9 33.9 225.95 33.9 226 34.9 226.2 36.2 226.1 36.2 227.05 36.2 228 36.2 228.05 36.2 228.1 38.65 228.3 41.35 228.25 41.35 228.55 41.35 228.9 41.35 230.85 41.35 232.8
M 11.4 234.9
Q 12.6 234.9 13.85 234.9 13.9 234.9 13.95 234.9 13.95 234.1 13.95 233.25 13.95 233.1 13.95 232.9 16.4 232.7 19.1 232.8 19.1 234.75 19.1 236.7 19.1 236.9 19.1 237.15 20.05 237.35 21.3 237.25 21.35 237.25 21.4 237.25 21.4 235.3 21.4 233.35 21.4 233.15 21.4 232.9 23.8 232.7 26.45 232.8 26.45 234.75 26.45 236.7 26.45 236.9 26.45 237.15 27.45 237.35 28.75 237.25 28.8 237.25 28.9 237.25 28.9 235.3 28.9 233.35 28.9 233.15 28.9 232.9 31.25 232.7 33.9 232.8 33.9 233.65 33.9 234.45 33.9 234.65 33.9 234.8 34.85 235 36.1 234.9 36.15 234.9 36.2 234.9 36.2 236.9 36.2 238.9 36.2 239.15 36.2 239.35 35.25 239.55 34 239.5 33.95 239.45 33.9 239.45 33.9 240.3 33.9 241.15 33.9 241.3 33.9 241.45 24.05 241.65 13.95 241.6 13.95 240.75 13.95 239.9 13.95 239.75 13.95 239.6 12.9 239.4 11.55 239.45 11.45 239.45 11.4 239.45 11.4 237.4 11.4 235.35 11.4 235.15 11.4 234.9 Z"/>
</g>

<g id="Layer0_5_FILL">
<path fill="#FFFFFF" stroke="none" d="
M 280.6 356.9
Q 275.8 355.35 270.55 356.6 267.15 357.35 264.6 359 257.65 363.45 256.1 373.2 255.85 378.6 257.4 382.2 260.8 390.15 269.2 393.15 272.4 394.3 276.6 393.8 286.6 392.55 291.1 385.65 293.3 382.25 293.85 377.2 294.5 371.45 292.7 367.45 289.15 359.6 280.6 356.9
M 278.6 368.95
Q 277.65 368.45 276.6 368.35 269.5 367.7 268.1 373.55 266.15 373.55 264.2 373.55 262.25 373.55 260.3 373.75 258.85 373.9 258.75 372.95 260.55 363.45 268.35 359.9 270.5 358.9 273.3 358.55 273.8 358.55 274.3 358.45
L 274.3 358.4
Q 279.25 358.45 282.5 360.05 290.1 363.8 291.55 373.7 291.5 373.7 291.4 373.7 286.65 373.7 281.9 373.7 281.15 370.45 278.6 368.95
M 259.35 380.15
Q 258.8 378.35 258.75 376.1 263.3 376.1 267.85 376.1 267.95 376.1 268 376.1 269.35 382 276.2 381.6 278.1 381.5 279.3 380.55 281.35 378.95 282.05 376.1 286.75 376.1 291.4 376.1 291.5 376.1 291.55 376.1 291.1 381.35 288.8 384.7 284.8 390.6 276.05 391.55 273.15 391.85 271 391.25 262.2 388.65 259.35 380.15
M 279.35 376.4
Q 278.35 380 273.75 379.25 272.45 379.05 271.55 378.2 270.15 376.85 270.25 373.95 271.45 369.5 276.8 370.65 277.55 370.8 278.15 371.25 280.3 373 279.35 376.4
M 275.55 377.25
Q 277.5 377.05 277.45 374.8 277.45 373.4 276.4 372.95 273.95 371.85 272.8 373.95 272.8 374.05 272.8 374.2 272.8 374.25 272.8 374.3 272.75 374.3 272.7 374.3 272.7 374.95 272.75 375.6
L 272.8 375.6
Q 273.2 377.5 275.55 377.25 Z"/>
</g>

<g id="Layer0_6_FILL">
<path fill="#FFFFFF" stroke="none" d="
M 38.8 308.6
Q 38 307.5 36.7 306.95 36.25 306.75 35.8 306.7 31.75 306.3 29.9 308.65 29.7 308.85 29.6 309.1 29.2 309.9 28.4 309.75 28.2 309.75 28.2 309.65 28 307.9 28.8 306.7 28.75 306.7 28.7 306.7 27.05 306.85 26.15 307.85 26.15 307.8 26.15 307.75 25.65 306.4 25.9 305 23.55 305.75 22.9 308.1 22.9 308.05 22.85 308 22.45 307.2 22.4 306 20.8 306.75 20.45 308.7 20.3 309.4 20 309.85 19.9 309.85 19.85 309.8 18.9 308.85 18 308 16.95 307.1 15.4 306.8 11.5 306.1 9.8 308.6 9.8 308.65 9.85 308.65 12 308.85 13.05 310.15 13.05 310.2 13.05 310.25 13.35 311.25 12.95 312.15 12.1 312.2 11.45 312.5 10.8 312.85 10.6 313.55 10.15 315.7 11.4 317.1
L 11.4 317.15
Q 11.45 318.7 11.25 319.85 11.2 319.85 11.15 319.9 10.1 320.6 9.5 321.85 9.5 324.45 11.35 325.15 13.3 325.9 14.2 327.6 14.25 330.55 13.95 333.1
L 13.95 333.15
Q 12.45 332 12.05 329.8 12.05 329.75 12 329.75 9.8 331.75 10.65 335.8 10.95 337.15 11.8 338.1 12.7 339.05 14.05 339.5 15.4 342.7 19.3 343.4 19.35 343.45 19.4 343.45 20.9 344.8 23.7 344.9
L 23.75 344.9
Q 24.2 345.05 24.85 344.95
L 24.85 344.9 24.9 344.9
Q 27.7 344.8 29.25 343.45
L 29.25 343.4
Q 33.2 342.7 34.55 339.5 35.9 339.05 36.8 338.1 37.65 337.15 38 335.8 38.8 331.75 36.65 329.75 36.6 329.75 36.6 329.8 36.15 332 34.65 333.15
L 34.65 333.1
Q 34.35 330.55 34.45 327.6 34.65 326.9 35.25 326.55 36.9 325.45 38.4 324.15 39.05 323.6 38.95 322.4 38.8 320.55 37.35 319.75 37.35 319.7 37.35 319.65 37.1 318.55 37.2 317.05 37.75 316.3 38 315.35 38.7 312.3 35.6 312.15 35.6 312.1 35.55 312.05 35.3 311.1 35.6 310.15
L 35.65 310.15
Q 36.7 308.85 38.8 308.6
M 34.75 309.35
Q 34.8 309.35 34.85 309.35 34.25 310.5 34.05 312.05 34.05 312.1 34.05 312.15 33.7 312.4 33.2 312.45 33.15 312.45 33.1 312.45 32.65 312 32.3 311.55
L 32.25 311.5
Q 32.75 309.65 34.75 309.35
M 34.65 307.8
Q 35.5 307.75 36.2 307.9 36.5 308 36.4 308.2 35.35 308.5 34.05 308.7 32.95 308.8 32.25 309.4 31.6 309.95 31.2 310.8 30.7 310.65 30.3 310.35
L 30.3 310.3
Q 31.5 308 34.65 307.8
M 21.6 317.05
Q 21.65 316.85 21.55 316.7 20.15 314.2 17.65 312.85 20.5 310.75 25.4 311.05 28.85 311.25 30.95 312.85 28.55 314.25 27.15 316.65 27.05 316.7 27.05 316.85 27.05 316.9 27.05 316.95 27.05 317.1 27.2 317.25 27.3 317.4 27.5 317.4 27.65 317.4 27.8 317.3 30.45 314.9 34.4 313.9 35.9 313.5 36.7 314.25 36.75 314.4 36.7 314.7
L 36.7 314.75
Q 36.6 315.05 36.45 315.25 36.35 315.45 36.2 315.6 36.15 315.5 36.15 315.65 36.1 315.7 36.05 315.7
L 36.05 315.8
Q 36.05 315.85 36.05 315.9 36 315.9 35.95 315.9 35.7 315.5 35.75 315.7 35.75 315.8 35.75 316.1
L 35.75 316.15
Q 35.75 316.3 35.9 316.45
L 35.95 316.5
Q 35.65 319.2 36.5 321.05 36.45 321.1 36.45 321.3 36.45 321.5 36.6 321.9
L 36.95 321.75
Q 37 321.85 37.05 321.9
L 37.05 321.85
Q 37.05 321.8 37 321.75
L 37.15 321.7
Q 37.25 321.9 37.3 322.25 37.35 322.45 37.35 322.7 36.2 324.3 34.4 325.15 33.4 325.65 33.1 326.85 32.6 328.85 32.85 331.3 33 332.35 33.05 333.55 32.05 333.9 30.75 333.95 29.65 331.2 28.5 328.7 28.5 328.6 28.45 328.55 28.4 328.4 28.25 328.3 28.1 328.25 28 328.3 27.8 328.3 27.7 328.5 27.6 328.65 27.65 328.8 28.05 332 29.15 335 24.35 335.1 19.5 335.05 20.5 332.15 21.05 328.75 21.1 328.6 21 328.45 20.9 328.3 20.75 328.3 20.55 328.2 20.45 328.3 20.3 328.35 20.2 328.5 18.95 331.15 17.85 333.95 17 333.9 16.3 333.75 16.2 333.7 16.15 333.7 15.8 333.65 15.6 333.55 15.75 331.3 15.8 329 15.95 325.9 14.05 325.05 12.25 324.2 11.3 322.7 11.3 322.45 11.3 322.2 11.4 321.8 11.65 321.65 11.55 321.9 11.65 321.85 11.7 321.85 11.75 321.85 11.75 321.75 11.85 321.6 12 321.8 12.05 321.8
L 12.05 321.75
Q 12.1 321.6 12.15 321.3 12.15 321.25 12.15 321.15
L 12.15 321.05
Q 12.75 319.55 12.8 317.6 12.8 317.55 12.8 317.5
L 12.8 317.45
Q 12.7 317 12.65 316.5 12.7 316.45 12.75 316.45 12.85 316.3 12.85 316.15
L 12.85 316.1
Q 12.85 315.85 12.85 315.75
L 12.7 315.95 12.6 315.9
Q 12.55 315.85 12.55 315.8
L 12.6 315.75 12.55 315.75 12.55 315.7
Q 12.45 315.5 12.45 315.6 12.25 315.5 12.15 315.25 12.05 315.05 11.95 314.8
L 11.95 314.75
Q 11.95 314.5 11.95 314.25 12.8 313.4 14.4 313.9
L 14.45 313.9
Q 18.25 314.95 20.9 317.3 20.95 317.4 21.15 317.4 21.3 317.4 21.4 317.3 21.55 317.2 21.6 317.05
M 36.35 315.95
L 36.25 315.9
Q 36.2 315.85 36.25 315.85 36.75 315.55 36.5 315.9 36.5 315.85 36.5 315.8
L 36.35 315.95
M 12.95 308.5
L 12.9 308.5
Q 12.55 308.3 12.15 308.05
L 12.15 308
Q 14.25 307.3 16 308.2 17.65 309 18.25 310.5 17.75 310.75 17.4 310.7 17.35 310.7 17.3 310.7 16.2 308.35 12.95 308.5
M 16.35 311.55
Q 16.35 311.6 16.35 311.65 15.95 311.95 15.65 312.4 15.6 312.4 15.6 312.45 15.1 312.4 14.6 312.3
L 14.6 312.25
Q 14.3 311 13.95 309.7 13.9 309.5 13.8 309.35 15.9 309.6 16.35 311.55
M 11.65 321.45
L 11.7 321.45 11.7 321.5 11.65 321.45
M 15.95 337.35
Q 15.9 337.4 15.9 337.5 15.9 337.55 15.9 337.6
L 15.9 337.65
Q 15.95 338 16 338.35 11.75 337.9 11.85 333.2 13.3 335.5 16.7 335.9 16.25 336.55 15.95 337.35
M 15.65 340
Q 15.6 339.95 15.6 339.9 16.2 340.1 17 340.15
L 17 340.2
Q 17.5 341 17.95 341.85 16.55 341.35 15.65 340
M 19.5 341.45
L 19.5 341.5
Q 18.2 340 18 337.55 18.9 336.6 21.2 336.75 22.5 336.9 23.85 336.9 27 336.85 30 337.1
L 30.05 337.1
Q 30.4 337.15 30.55 337.4 30.55 339.6 29.5 341.1
L 29.45 341.1
Q 28.65 342 27.55 342.7
L 27.6 342.7
Q 25.85 343.55 23.3 343.25 20.85 342.9 19.5 341.45
M 32.7 337.5
Q 32.7 337.35 32.6 337.25 32.35 336.5 31.95 335.9 35.2 335.5 36.7 333.35 36.9 336.3 34.9 337.65 34.05 338.2 32.85 338.55 32.7 338.55 32.65 338.55 32.8 338.15 32.7 337.55
L 32.7 337.5
M 31.5 340.3
Q 31.55 340.25 31.55 340.2 32.25 340.05 33 339.95
L 33 340
Q 32.1 341.3 30.6 341.9
L 30.6 341.85
Q 31.15 341.1 31.5 340.3
M 27.6 340.2
L 27.65 340.2
Q 28.05 340.2 28.4 340.2
L 28.4 340.15
Q 29.8 339.5 29.85 337.95 29.85 337.9 29.75 337.9 29.25 337.6 28.4 337.55 26.85 337.5 26 338.05 26 338.1 26.05 338.1 26.45 339.5 27.6 340.2
M 18.65 338.1
Q 19 339.55 20.2 340.2 20.25 340.2 20.3 340.2 20.85 340.25 21.25 340.1
L 21.3 340.1
Q 22.4 339.25 22.5 337.9 21.95 337.6 20.95 337.55 19.45 337.5 18.65 338.05
L 18.65 338.1
M 13.8 318.4
L 13.8 318.45
Q 14.45 318.65 14.6 318.85
L 14.55 318.85
Q 13.75 319.9 14.45 321.1
L 14.5 321.1
Q 14.55 320.4 14.8 319.9 15.05 322.7 17.3 323.4 19 323.95 20.1 323.1 20.9 323 21.3 323.1 22.55 323 22.9 321.85 20.65 322.1 19.5 320.55 17.7 318.2 13.8 318.4
M 16.15 320
Q 16.55 319.5 17.25 320 18.7 321.1 19.8 322.5 19.4 322.7 18.9 322.8
L 18.85 322.8
Q 18.8 322.8 18.75 322.8 18.35 322.8 17.9 322.8 17.85 322.8 17.8 322.8 16 322.45 16.15 320
M 29.65 319.9
Q 29.35 320.2 29.2 320.5 28.05 322.15 25.75 321.75 25.75 321.8 25.75 321.85 26.1 323 27.4 323.15
L 27.4 323.2
Q 28.15 322.95 28.55 323.1 28.85 323.4 29.4 323.45 33.5 323.85 33.85 319.9 33.85 319.95 33.85 320 34.05 320.65 34.15 321
L 34.2 321
Q 34.8 319.9 34.15 318.95 34.1 318.95 34.1 318.9 33.9 318.7 34.65 318.6 34.65 318.55 34.7 318.55
L 34.75 318.5
Q 31.5 318.1 29.65 319.9
M 32.35 319.9
L 32.4 319.95
Q 32.45 320.2 32.45 320.6 32.45 321.85 31.7 322.3 30.25 323.35 28.8 322.4 29 322.3 29.1 322.05
L 29.15 322.05
Q 29.15 322 29.15 321.95 30.55 320.45 32.35 319.9
M 22.5 318.5
Q 23.15 319.45 24.6 319.55
L 24.6 319.5
Q 25.65 319.2 26.15 318.4 26.1 318.4 26.1 318.45 24.3 319.35 22.45 318.4 22.45 318.45 22.5 318.5 Z"/>
</g>

<g id="Layer0_7_FILL">
<path fill="#FFFFFF" stroke="none" d="
M 26.9 121.6
L 26.85 121.6
Q 24.5 121.6 22.2 121.6 22.2 125.4 22.2 129.15 22.2 133.4 22.2 137.65 22.25 140.1 20.2 140.4 19.6 140.5 19.15 140.35 17.3 139.85 16.65 138.1 14.75 139.25 12.8 140.35 13.65 142.15 15.2 143.25 16.4 144.15 18.2 144.5 20.2 144.85 22.05 144.4 25.45 143.55 26.45 140.35 26.7 139.5 26.75 138.55 26.9 134.4 26.9 130.1 26.9 125.85 26.9 121.6
M 40.7 127.4
Q 42.55 126.25 44.35 125.05 43.45 123.4 41.9 122.4 40.6 121.55 38.65 121.45 34.35 121.15 32.3 123.4 31.3 124.55 30.95 126.3 30.7 127.8 31 129.25 31.4 130.95 32.5 132 34.65 134.1 37.8 135.2 39.4 135.75 40.5 136.8 40.9 137.2 40.9 137.9 41 140.1 38.85 140.45 37.85 140.65 36.85 140.4 34.3 139.8 33.2 137.7
L 33.15 137.7
Q 31.3 138.8 29.4 139.85 30.7 142.5 33.4 143.8 35.6 144.8 38.8 144.6 42.75 144.3 44.6 141.9 45.5 140.65 45.65 138.75 45.75 137.35 45.45 136.3 44.5 133.05 41.55 131.75 39 130.6 36.55 129.35 35.85 128.95 35.6 128.2 35.25 126.9 35.9 126.1 36.4 125.55 37.4 125.5 39.9 125.45 40.65 127.4
L 40.7 127.4 Z"/>
</g>

<g id="Layer0_8_FILL">
<path fill="#FFFFFF" stroke="none" d="
M 256 75.85
L 256 75.9
Q 256.1 74.7 256 73.6 256 74.75 256 75.85
M 277.05 56.35
Q 276.1 55.1 275.1 53.85 274.3 54.75 273.5 55.8 272.5 57 271.55 58.35 272.05 59.1 272.5 60.05 273.15 61.6 273.25 63.65 272.35 62.4 271.25 61.2 270.75 60.6 270 60.2 269.05 61.35 268.1 62.6 269 63.15 269.75 63.8 271 64.9 271.8 66.3 272.6 67.75 272.8 69.8 272.95 71.9 272.5 73.6 272.05 75.4 271 76.55 270.2 77.45 268.75 77.75 267.65 77.95 266.55 77.6 264.9 77.05 263.85 75.85 262.75 74.7 262.05 73.2 261.3 71.7 261.05 69.75 260.9 68.7 261 67.6 261.1 66.15 261.6 64.9 262.15 63.25 262.95 61.8 263.75 60.3 264.65 59 264.1 59.3 263.6 59.7 262.35 60.65 261.25 61.8 260.2 62.95 259.3 64.35 258.4 65.65 257.7 67.2 257 68.8 256.55 70.55 256.2 72.4 256.1 74.6 256.15 76.8 256.55 78.7 256.9 80.5 257.55 82.1 258.2 83.65 259.15 85 260.05 86.35 261.1 87.55 262.2 88.7 263.4 89.7 264.65 90.7 266.15 91.45 267.6 92.25 269.3 92.8 271 93.4 273 93.65 275.1 93.85 277.2 93.65 279.25 93.4 280.9 92.85 282.6 92.25 284.05 91.45 285.5 90.7 286.8 89.7 288 88.7 289.1 87.55 290.15 86.35 291.05 85 291.9 83.65 292.6 82.1 293.25 80.55 293.65 78.7 293.85 77.55 294 76.3 294 74.8 294 73.25 293.95 73.1 293.95 72.9 293.8 70.85 293.2 69.15 292.7 67.45 291.9 65.95 291.15 64.5 290.15 63.25 289.2 62 288.05 60.85 286.9 59.8 285.5 59 286.1 59.75 286.6 60.6 287.4 62 288.15 63.6 288.8 65.15 289.15 67 289.25 67.7 289.25 68.55 289.2 70.65 288.5 72.3 287.85 73.9 286.95 75.15 286 76.4 284.55 77.25 283.85 77.65 282.85 77.8 281.35 77.95 280.3 77.35 278.85 76.55 278.15 75 277.45 73.45 277.4 71.3 277.35 69.05 277.9 67.4 278.6 65.85 279.65 64.65 280.75 63.5 282.05 62.6
L 282.05 62.55
Q 281.1 61.35 280.15 60.2 279.4 60.6 278.9 61.2 277.85 62.45 276.9 63.65 277 62.45 277.25 61.35 277.75 59.65 278.65 58.3 277.85 57.35 277.05 56.35 Z"/>
</g>

<g id="Layer0_9_FILL">
<path fill="#FFFFFF" stroke="none" d="
M 90.9 207.2
Q 90.95 206.9 89.75 206.9 74.4 207 59.1 207 59.2 210.2 59.65 212.95 59.65 213.05 59.65 213.15 67 213.45 74.85 213.3 74.95 213.3 75 213.3 79.5 213.3 83.9 213.4
L 83.9 213.5
Q 83.9 213.6 83.9 213.7 83.8 216.95 83.25 219.8 83.15 219.8 83.05 219.8 79.05 219.8 75 219.8
L 75 219.9
Q 71.25 220 67.5 220 67.65 223.15 68 226.2 68 226.25 68 226.3 75.35 226.3 82.7 226.3 82.8 226.3 82.9 226.3 82.35 230.1 82.15 234.2
L 82.05 234.2
Q 78.9 235.65 75.15 236.1 74.2 236.25 73.15 235.95 70.6 235.25 68 234.5 67.55 232.45 67.5 229.95 67.5 229.85 67.5 229.75 67.4 229.75 67.35 229.75 64.45 229.45 61.15 229.6 61.15 229.65 61.15 229.75 61.15 229.85 61.15 229.95 61.45 234.65 62.05 239.15 62.05 239.25 62.05 239.35 68.35 241.3 74.85 243.05 74.95 243.1 75 243.1 81.5 241.3 88 239.45
L 88 239.35
Q 89.4 225.4 90.6 211.3 90.8 209.25 90.9 207.2 Z"/>
</g>

<g id="Layer0_10_FILL">
<path fill="#FFFFFF" stroke="none" d="
M 93.75 270.45
Q 95.65 268.3 97.5 266.2 95.1 263.55 92.55 261 91.1 259.55 89.6 258.1 85.2 258 80.65 258 75.55 258.05 70.55 258.05 65.5 258.05 60.45 258.05
L 60.45 258.1
Q 59 259.5 57.5 261 55.05 263.55 52.5 266.05 54.75 268.85 57.1 271.5 59.5 274.2 61.85 276.9 64.15 279.6 66.5 282.3 68.9 285 71.25 287.7 73.1 289.85 75 292 77.35 289.35 79.75 286.65 82.05 283.95 84.35 281.2 86.7 278.5 89.05 275.85 91.45 273.15 93.75 270.45
M 96.4 266.2
Q 94 268.9 91.65 271.5 89.3 274.2 87 276.9 84.65 279.65 82.3 282.35 79.95 285.05 77.6 287.75 76.3 289.25 75 290.7 72.65 288.05 70.3 285.35 68 282.65 65.6 279.9 63.3 277.2 60.95 274.55 58.6 271.85 56.2 269.15 54.95 267.65 53.65 266.15 56.15 263.6 58.65 261.05 59.7 260 60.7 258.95 65.8 258.95 70.85 258.95 75.85 258.95 80.9 258.95 85.1 258.95 89.25 258.95 91.75 261.45 94.25 264 95.3 265.05 96.4 266.2
M 74.8 281.3
L 74.75 281.3
Q 74.4 281.3 74.1 281.3
L 74.05 281.3
Q 71.45 281.25 69.2 280.8 71.5 283.55 73.9 286.2 74.45 286.85 75.05 287.45 77.45 284.8 79.8 282.1 80.4 281.35 81.05 280.7 78.8 281.2 75.85 281.3
L 75.75 281.3
Q 75.25 281.3 74.8 281.3
M 66.3 260.55
L 66.25 260.55
Q 63.85 260.55 61.55 260.55 61.4 260.8 61.15 261 58.7 263.55 56.15 266.05
L 56.15 266.15
Q 57.95 268.15 59.75 270.15 59.7 267.15 60.9 265.25 62.75 262.1 66.3 260.55
M 83.8 276.55
L 83.85 276.55
Q 83.9 276.25 83.8 276.1 83.65 275.55 83.3 275.4 80.5 274.1 76.55 274.15 76.3 274.1 76 274.1
L 75.95 274.1
Q 75.7 274.1 75.45 274.1 75.2 274.05 74.95 274.05
L 74.9 274.05
Q 74.55 274.05 74.3 274.05 73.95 274 73.65 274
L 73.6 274
Q 73.25 274 73 274 72.6 273.95 72.25 273.95
L 72.2 273.95
Q 71.8 273.95 71.4 273.95 71 273.9 70.7 273.9
L 70.6 273.9
Q 70.25 273.9 69.9 273.9 69.6 273.85 69.35 273.85
L 69.25 273.85
Q 65.1 273.75 62 272.7 64.25 275.3 66.5 277.8
L 66.55 277.85
Q 67.15 276.4 69.1 276.3
L 69.15 276.3
Q 69.45 276.3 69.8 276.3
L 69.85 276.3
Q 73.1 276.75 74.65 278.9 74.75 278.95 74.85 278.95 74.95 278.95 75.05 278.95 75.5 278.95 75.95 278.95
L 75.95 278.9
Q 80.4 278.95 83.2 277.35 83.65 277.1 83.8 276.55
M 88.85 266.35
L 88.8 266.35
Q 85.55 266.35 82.3 266.35 82.05 264.7 81.2 263.65 79.05 260.8 74 260.8
L 74 260.75
Q 73.55 260.75 73.15 260.75
L 73.15 260.8
Q 72.4 260.75 71.85 260.85 71.15 260.9 70.55 261 67.35 261.65 66 264.05 66 264.15 66 264.25
L 66 264.35 65.95 264.35
Q 65.95 264.65 65.95 265
L 66 265
Q 66.35 266.9 68.15 267.55 69 267.75 70 267.95 71 268.1 72.15 268.15 72.5 268.25 73 268.2
L 73.05 268.2
Q 73.3 268.2 73.65 268.2
L 73.7 268.2
Q 74 268.2 74.35 268.2
L 74.4 268.2
Q 74.65 268.2 75 268.2
L 75 268.15
Q 76.55 268.15 78 268.15
L 78.05 268.15
Q 78.25 268.25 78.6 268.2
L 78.65 268.2
Q 83.6 268.3 86.55 270.45 87.05 270.85 87.5 271.4 87.9 271.9 88.25 272.55 90.55 269.85 92.9 267.15 93.35 266.65 93.85 266.15 91.4 263.55 88.9 261.05 88.8 263.65 88.85 266.3
L 88.85 266.35
M 85.6 261.15
L 85.6 261.05 85.65 261.05
Q 85.7 260.75 85.6 260.55
L 85.55 260.55
Q 83.65 260.55 81.8 260.55 83.2 261.8 84.25 263.5 85.4 262.75 85.6 261.15 Z"/>
</g>

<g id="Layer0_11_FILL">
<path fill="#FFFFFF" stroke="none" d="
M 33.75 184.15
Q 33.65 184.15 33.6 184.2 31.25 186.5 28.55 188.4 28.55 188.55 28.55 188.65 31 189.05 34 188.75
L 34 188.65 34.1 188.65
Q 34.55 185.7 33.75 183.95 33.75 184.05 33.75 184.15
M 34.45 160.55
Q 34.45 160.4 34.45 160.3 34.65 156.1 34.25 152.5 34.1 152.5 34 152.5 31.05 152.5 28.1 152.5 28.1 152.6 28.05 152.7 26.75 155.45 25.5 158.15 23.75 158.1 22.4 158.35 8.35 161 5.85 175.2 5.85 175.3 5.85 175.4 5.75 175.4 5.65 175.4 5.65 177.55 5.75 179.65
L 5.85 179.65
Q 6.6 185.1 9.1 188.7 9.2 188.75 9.2 188.9 10.2 187.65 10.8 186.05 10.85 185.95 10.85 185.8 9.35 182.9 8.95 178.95 8.95 178.85 8.95 178.75 8.95 178.6 8.95 178.5 8.95 177.45 8.95 176.35 8.95 176.25 8.95 176.15 11.05 162.75 24.05 161.5 22.5 165 20.85 168.35 13.8 182.5 6.8 196.7 6.7 196.7 6.6 196.7 6.65 197.8 8.25 197.4 8.35 197.4 8.45 197.4 10.85 197.4 13.2 197.4 13.3 197.4 13.45 197.4 16.65 191.2 19.55 184.6 19.6 184.5 19.6 184.4 23.85 184.4 28.1 184.4 28.2 184.4 28.3 184.4 27.85 186.4 29.05 186.65
L 29.05 186.5
Q 29.05 186.4 29.1 186.35 32.25 184.4 34.7 181.8 34.7 181.7 34.65 181.6 31.8 179 29.05 176.35 29.05 176.25 29 176.2 28.8 176.15 28.55 176.15 28.55 177.2 28.55 178.25 28.55 178.35 28.55 178.5 27.6 178.5 26.7 178.55 23.85 178.85 22.2 178 25.2 170.75 28.25 163.6 28.3 163.5 28.3 163.35 28.75 168.65 28.7 174.45
L 28.8 174.45
Q 31.25 176.75 33.6 179.15 33.65 179.2 33.75 179.2 34.55 178.8 34.45 176.1 34.25 170.2 34.25 164.3 39.85 167.8 41.05 175.65 41.1 175.75 41.1 175.9 41.1 177.45 41.1 178.95 41.1 179.1 41.1 179.2 41.1 179.3 41.05 179.45 39.1 192 26.45 193.85 26.3 193.85 26.2 193.85 24.9 193.85 23.6 193.85 21.5 193.85 20.15 193 17.3 191.35 16.25 193.85 16.65 195.85 18.8 196.25 20.7 196.65 22.9 196.9 24.6 197.35 26.9 197.05
L 26.9 196.9
Q 41.5 194.65 44.15 180.4 44.15 180.25 44.15 180.15
L 44.25 180.15
Q 44.55 177.25 44.15 174.95 44.05 174.95 44.05 174.9 42.2 164.7 34.45 160.55 Z"/>
</g>

<g id="Layer0_12_FILL">
<path fill="#FFFFFF" stroke="none" d="
M 232.65 166.05
Q 230.75 165.8 229.25 166.25 227.75 166.75 226.4 167.3 226.05 167.45 225.65 167.5 224.7 167.65 224 167.35 222.65 166.75 221.2 166.3 220.8 166.2 220.4 166.15 218.5 165.95 217 166.45 215.6 166.95 214.5 167.8 213.45 168.7 212.65 169.85 211.85 171 211.4 172.45 210.9 173.9 210.8 175.7 210.8 176.4 210.8 177.1 210.85 178.95 211.2 180.55 211.6 182.1 212.1 183.5 212.6 184.95 213.3 186.2 213.95 187.5 214.75 188.6 215.55 189.75 216.5 190.75 217.4 191.8 218.75 192.35 219.1 192.5 219.5 192.55 221.15 192.6 222.3 192 223.25 191.5 224.45 191.25 225.25 191.1 226.25 191.2 227.75 191.35 228.85 191.9 229.8 192.4 231.1 192.5 231.6 192.55 232.05 192.45 233.6 192.15 234.55 191.15 235.5 190.15 236.3 189 237.1 187.9 237.8 186.65 238.45 185.4 239.05 184 239.15 183.65 239.2 183.2 239.1 183.15 239.05 183.1 237.75 182.5 236.8 181.55 235.8 180.55 235.2 179.25 234.75 178.25 234.6 176.95 234.45 175.15 234.9 173.75 235.4 172.3 236.3 171.25 237.15 170.2 238.3 169.4 238.05 169.05 237.75 168.7 236.85 167.65 235.6 166.95 234.35 166.3 232.65 166.05
M 229.8 158
Q 228.45 158.6 227.45 159.5 226.45 160.45 225.75 161.7 225.05 162.95 224.9 164.75 224.9 165.2 225 165.6 225.2 165.6 225.45 165.55 226.9 165.5 227.9 164.95 229.15 164.25 230.05 163.2 230.95 162.2 231.5 160.8 232.1 159.4 231.95 157.5 230.7 157.6 229.8 158 Z"/>
</g>

<g id="Layer0_13_FILL">
<path fill="#FFFFFF" stroke="none" d="
M 77.45 155.6
Q 70.9 155.05 66.35 157.35 61.7 159.75 58.65 163.85 55.65 167.9 55.05 174.4 55.05 181.45 57.8 185.8 60.5 190.15 64.9 192.9 68.7 195.25 74.5 195.45 79.9 195.7 83.45 194 85.9 192.85 87.9 191.25 91.8 188.1 93.85 183.1 94.8 180.8 95.25 178.1 95.25 178.05 95.25 178 95.25 175.5 95.25 172.95 94.25 167 91.15 163.1 88 159.15 83.1 157 80.65 155.9 77.45 155.6
M 64.55 167.55
Q 64.7 168 64.6 168.2 62.15 170.85 62.85 175.9 62.95 176.9 63.25 177.8
L 63.25 177.85
Q 63.4 178.3 63.4 178.35 63.45 178.35 63.5 178.5 63.6 178.65 63.6 178.75 63.7 178.95 63.75 179.05 66.15 182.95 72 183.4
L 72.05 183.4
Q 70.95 184.2 70.6 185.75 70.6 185.8 70.55 185.8 69 186.6 67.2 185.95 66 185.5 65.4 184.4 64.4 182.45 62 182.75 61.9 182.75 61.75 182.85 62.6 183.8 63.45 184.75 64.3 185.7 64.9 186.9 65.55 188.15 67.1 188.6 68.75 189.05 70.5 188.65 70.5 190.55 70.45 192.45
L 70.4 192.45
Q 65.05 191 61.7 187.1 59.1 184.1 58 179.55 57.95 179.45 57.9 179.3 57.8 178.75 57.65 178.25
L 57.65 178.2
Q 57.65 177.95 57.65 177.8 57.45 176.15 57.5 174.2
L 57.5 174.15
Q 58.3 167.85 61.6 164.05 64.85 160.2 70.25 158.55 73.6 157.45 77.75 158.1 82.3 158.75 85.4 160.95 89.5 163.9 91.65 168.85 93.25 172.6 92.8 177.6 92.75 177.65 92.7 178.05
L 92.75 178.05 92.7 178.1
Q 92.75 178.45 92.65 178.65 92.65 178.75 92.6 178.85
L 92.45 179.3
Q 91.1 185 87.45 188.4 84.7 190.9 80.85 192.3 80.65 189.1 80.5 185.8 80.45 185.4 80.3 185 79.9 184.05 79.1 183.4 84.55 183.1 86.85 179.55 87.05 179.15 87.25 178.7
L 87.25 178.65
Q 87.25 178.6 87.3 178.55 87.3 178.4 87.35 178.35 87.45 178.05 87.55 177.8 88.4 174.65 87.65 171.45 87.15 169.2 85.75 167.8 86.1 166 85.7 164 85.55 163.35 85.25 162.8 82.1 163 80.05 164.7 80 164.7 79.95 164.7 77.9 164.3 75.15 164.35 72.5 164.35 70.4 164.95 68.35 163.15 65.1 162.9 65.05 162.9 65 162.9 63.9 164.9 64.55 167.55
M 78.05 186.4
Q 78.95 187.85 78.75 190.45 78.65 191.85 78.5 192.9
L 78.4 192.9
Q 77.9 192.8 77.9 191.95 78.05 189.2 78.05 186.4
M 72.65 187.75
Q 72.65 186.9 73 186.35 73.2 189.7 72.95 193.05
L 72.85 193.05
Q 72.65 193 72.45 192.9 72.65 190.55 72.65 187.75
M 75.5 186
L 75.6 186
Q 76 186.65 75.95 187.85 75.85 190.75 75.75 193.2 75.75 193.25 75.6 193.25 75.35 193.3 75.2 193.15 75.4 189.7 75.5 186 Z"/>
</g>

<g id="Layer0_14_FILL">
<path fill="#FFFFFF" stroke="none" d="
M 233.55 7.6
Q 233.55 7.75 233.45 7.8 226.65 14.6 219.75 21.4 219.75 21.3 219.7 21.3 215.3 17.95 210.95 14.55 210.85 14.55 210.8 14.55 209.2 15.45 207.5 16.25 207.5 16.3 207.5 16.45 207.5 25.15 207.5 33.85 207.6 33.85 207.7 33.85 209.25 34.85 211.15 35.55 211.15 35.5 211.2 35.45 215.55 32.15 219.75 28.7 219.85 28.7 219.9 28.75 226.7 35.7 233.7 42.45 233.8 42.45 233.9 42.45 238.35 40.9 242.5 39 242.5 38.9 242.5 38.85 242.5 24.95 242.5 11.05 242.5 10.95 242.45 10.95 238.1 9.15 233.55 7.6
M 233.45 18.1
Q 233.55 18.05 233.55 17.95 233.85 24.8 233.65 32.15
L 233.55 32.15
Q 229.05 28.65 224.8 25 224.7 24.95 224.7 24.85 229.1 21.45 233.45 18.1
M 211.15 20.25
Q 211.25 20.25 211.35 20.25 213.75 22.55 216.1 24.9 216.15 24.95 216.15 25.05 213.85 27.4 211.5 29.8 211.45 29.8 211.35 29.8
L 211.25 29.8
Q 211.15 25.05 211.15 20.25 Z"/>
</g>

<g id="Layer0_15_FILL">
<path fill="#FFFFFF" stroke="none" d="
M 10.05 19.95
Q 10.05 20 10.05 20.05 10.05 24.85 10.05 29.65
L 10.1 29.65
Q 10.4 30.85 11.5 31.2 11.55 31.2 11.6 31.2 12.25 31.2 12.85 31.2
L 12.85 31.15
Q 13.75 30.75 14.2 30 14.35 29.3 14.35 28.5 14.3 26.25 14.5 24 14.7 20.6 13.55 18.8
L 13.45 18.8
Q 13.1 18.65 12.75 18.5 12.7 18.5 12.65 18.5 12.05 18.5 11.5 18.5
L 11.5 18.55
Q 10.45 18.9 10.05 19.95
M 34.45 18.5
L 34.45 18.4
Q 25 18.35 15.55 18.35 15.55 18.4 15.55 18.5 15.55 26.35 15.55 34.25 15.55 34.3 15.55 34.35 15.9 35.05 16.55 35.45
L 16.55 35.5
Q 17.65 35.65 18.95 35.6 19 35.6 19.05 35.6 19.05 38.15 19.05 40.7 19.05 40.75 19.05 40.8 19.35 41.75 20.15 42.2
L 20.15 42.25
Q 20.95 42.55 21.65 42.4 21.7 42.4 21.75 42.4 22.95 42.05 23.25 40.8
L 23.3 40.8
Q 23.3 38.25 23.3 35.7 23.3 35.65 23.3 35.6 24.95 35.6 26.6 35.6 26.65 35.6 26.7 35.6 26.7 38.15 26.7 40.7 26.7 40.75 26.7 40.8 26.95 41.5 27.45 41.95 27.5 42 27.5 42.05 28.1 42.25 28.75 42.45 28.8 42.5 28.85 42.5 29.9 42.35 30.45 41.75 30.45 41.7 30.55 41.7 31.25 39.2 31 35.7 31 35.65 31 35.6 32.3 35.7 33.35 35.5 33.4 35.5 33.45 35.5 34.1 35.1 34.4 34.4 34.4 34.35 34.45 34.35 34.45 26.5 34.45 18.6 34.45 18.55 34.45 18.5
M 38.5 18.5
Q 38.45 18.5 38.4 18.5 37.5 18.45 36.85 18.6 36.85 18.65 36.8 18.65 36.2 19.05 35.8 19.7 35.8 19.85 35.8 19.95 35.8 20 35.8 20.05 35.75 20.05 35.7 20.05 35.7 24.85 35.75 29.65
L 35.8 29.65
Q 35.8 29.7 35.85 29.75 36.05 30.4 36.5 30.9 36.55 30.9 36.6 30.9 36.95 31.05 37.3 31.2 37.35 31.2 37.4 31.2 37.95 31.2 38.5 31.2 38.5 31.15 38.55 31.15 39.65 30.75 40 29.65 40 29.6 40 29.5 40 24.8 40 20.05 39.95 20.05 39.9 20.05 39.6 18.85 38.5 18.5
M 31.1 7.55
L 31.1 7.5
Q 29.9 8.65 28.95 10.15 28.9 10.15 28.85 10.1 24.85 8.9 20.95 10.15 20.9 9.85 20.75 9.65 20.35 9.15 20.1 8.6 19.6 7.6 18.8 7.55 18.8 7.6 18.85 7.65 19.3 9.05 20.4 10.45 20.35 10.45 20.3 10.5 16.7 12.25 15.55 16.45 15.55 16.6 15.55 16.8
L 15.55 16.95
Q 25 17.1 34.45 17.1 34.45 17.05 34.45 17 33.55 12.25 29.65 10.45 30.05 9.65 30.65 9 31.4 8.25 31.1 7.55
M 28.75 14.4
Q 28.05 14.15 28.05 13.2 28.05 13.1 28.05 13.05 29.25 11.7 30.05 13.3 30.1 13.35 30.1 13.4 30.05 14.5 28.85 14.4 28.8 14.4 28.75 14.4
M 21.95 13.3
Q 21.95 14.55 20.6 14.4 20.55 14.4 20.5 14.4 19.9 14.15 19.95 13.2 19.95 13.1 19.95 13.05 21.05 11.75 21.95 13.2 21.95 13.25 21.95 13.3 Z"/>
</g>

<g id="Layer0_16_FILL">
<path fill="#FFFFFF" stroke="none" d="
M 33.9 357.5
Q 33.35 357.5 32.75 357.5 31.7 357.65 30.75 357.9 28.2 358.75 26.65 360.5 25.05 362.3 24.65 365.25 24.4 366.9 24.75 368.35 24.55 368.4 24.4 368.35 21.25 368.1 18.7 367.3 16.1 366.5 13.95 365.25 11.8 364.05 9.95 362.5 8.1 361 6.55 359.15 5.65 360.65 5.4 362.85 5.4 363.05 5.4 363.25
L 5.4 363.3 5.35 363.3
Q 5.35 363.55 5.35 363.8
L 5.4 363.8
Q 5.5 365.85 6.15 367.25 7.3 369.55 9.3 370.95
L 9.25 370.95
Q 6.9 370.75 5.35 369.85 5.25 370.95 5.5 371.9 6.2 374.6 7.9 376.3 9.6 377.95 12.35 378.6 11.45 378.85 10.4 378.85 9.3 378.9 8.4 378.8 8.5 379.1 8.6 379.35 9.6 381.75 11.55 383.2 13.5 384.65 16.6 384.9 15.2 386 13.5 386.85 11.25 388 8.35 388.45 6.05 388.8 3.6 388.55 5.65 389.9 8.1 390.85 10.5 391.8 13.45 392.25 14.7 392.45 16.1 392.5 16.25 392.5 16.4 392.5 17.1 392.5 17.75 392.5
L 17.8 392.5
Q 17.95 392.5 18.1 392.5
L 18.15 392.5
Q 21.4 392.35 24.05 391.6 26.7 390.9 28.9 389.7 31.1 388.55 32.95 387 34.8 385.5 36.35 383.6 37.85 381.75 39.05 379.55 40.25 377.4 41.05 374.8 41.85 372.25 42.15 369.1 42.25 367.75 42.2 366.2 44.15 364.8 45.65 362.9 46.05 362.4 46.45 361.85
L 46.45 361.8
Q 46.45 361.75 46.45 361.7 44.25 362.7 41.55 363 42.15 362.65 42.65 362.25 44.5 360.7 45.35 358.2 45.05 358.35 44.7 358.5 42.5 359.75 39.8 360.25 39.3 359.8 38.8 359.4 36.95 357.85 33.95 357.5
L 33.9 357.5 Z"/>
</g>

<g id="Layer0_17_FILL">
<path fill="#FFFFFF" fill-opacity="0.9921568627450981" stroke="none" d="
M 291.4 313.4
L 291.45 313.4
Q 291.45 313.35 291.45 313.25 291.45 313.1 291.25 313.05 290.15 312.65 288.85 312.2 287.5 311.75 286.1 311.3 280.55 309.4 275 307.5
L 274.95 307.55
Q 272.1 308.6 269.05 309.5 269.05 309.55 269.05 309.6 269.05 309.65 269 309.65 268.75 309.8 268.35 309.85
L 268.3 309.85
Q 263.65 311.55 258.9 313.15
L 258.9 313.2
Q 258.75 313.3 258.55 313.35 258.55 313.65 258.55 313.9 258.55 313.95 258.55 314 258.65 314.25 258.65 314.65 258.65 314.7 258.65 314.75 258.85 315.25 258.8 316 258.8 316.05 258.8 316.1 258.95 316.3 258.9 316.75 258.9 316.8 258.9 316.85 258.95 317.45 259.05 318.05 259.05 318.1 259.05 318.15 259.3 319.05 259.3 320.15 259.3 320.2 259.3 320.25 259.45 320.4 259.4 320.8 259.4 320.85 259.4 320.9 259.45 321.25 259.5 321.55 259.5 321.6 259.5 321.65 259.65 322.15 259.65 322.9 259.65 322.95 259.65 323 259.8 323.2 259.75 323.65 259.75 323.7 259.75 323.75 259.9 323.9 259.8 324.3 259.8 324.35 259.8 324.4 259.95 324.6 259.9 324.95 259.9 325 259.9 325.05 260.1 325.95 260.15 327.05 260.15 327.1 260.15 327.15 260.3 327.4 260.25 327.8 260.25 327.85 260.25 327.9 260.4 328.4 260.4 329.15
L 260.4 329.2
Q 260.55 329.4 260.5 329.8 260.5 329.85 260.5 329.9 260.6 330.05 260.55 330.45 260.55 330.5 260.55 330.55 260.65 330.8 260.65 331.2 260.65 331.25 260.65 331.3 260.8 331.5 260.75 331.85 260.75 331.9 260.75 331.95 260.85 332.15 260.8 332.55
L 260.8 332.6
Q 260.8 332.65 260.8 332.7 260.95 332.9 260.9 333.3
L 260.9 333.35
Q 261.05 333.55 261 333.95 261 334 261 334.05 261.1 335.3 262.25 335.7 262.7 335.85 263.2 336.1 267.9 338.8 272.7 341.45 273.6 342 274.6 342.5 279.5 339.95 284.3 337.4 286.75 336.1 288.9 334.5 289 334.45 289 334.3 289 334.2 289 334.1
L 289 334.05
Q 289 333.75 289 333.45
L 289.05 333.45
Q 289.05 333.4 289.05 333.35 289.05 333.1 289.05 332.85 289.1 332.85 289.15 332.8 289.15 332.75 289.15 332.7 289.15 332.65 289.15 332.6 289.15 332.35 289.15 332.05 289.2 332.05 289.25 332.05 289.25 332 289.25 331.95 289.25 331.6 289.25 331.3
L 289.3 331.3
Q 289.3 331.25 289.3 331.2 289.3 330.9 289.3 330.65 289.35 330.65 289.4 330.65 289.4 330.6 289.4 330.55 289.4 330.3 289.4 330.05 289.5 329.7 289.55 329.3 289.55 329.25 289.55 329.2
L 289.55 329.15
Q 289.55 328.85 289.55 328.55 289.6 328.55 289.65 328.55 289.65 328.5 289.65 328.45 289.65 328.15 289.65 327.8 289.8 327.55 289.75 327.15
L 289.8 327.15
Q 289.8 327.1 289.8 327.05 289.8 326.8 289.8 326.55 289.85 326.55 289.9 326.55 289.9 326.5 289.9 326.45 289.9 326.2 289.9 325.9 289.95 325.9 289.95 325.85
L 289.95 325.8
Q 289.95 325.75 289.95 325.7 289.95 325.4 289.95 325.05 290 325.05 290.05 325.05 290.05 325 290.05 324.95 290.05 324.7 290.05 324.4 290.1 324.4 290.15 324.4 290.15 324.35 290.15 324.3 290.15 324 290.15 323.75
L 290.2 323.75
Q 290.2 323.7 290.2 323.65 290.2 323.35 290.2 323.05 290.25 323.05 290.3 323.05
L 290.3 323
Q 290.3 322.7 290.3 322.4 290.35 322.4 290.4 322.4 290.4 322.35 290.4 322.3 290.4 321.95 290.4 321.55
L 290.45 321.55 290.45 321.5
Q 290.45 321.2 290.45 320.9 290.5 320.9 290.55 320.9 290.55 320.85 290.55 320.8 290.55 320.55 290.55 320.3 290.6 320.3 290.65 320.3
L 290.65 320.25
Q 290.65 320.2 290.65 320.15 290.65 319.85 290.65 319.55
L 290.7 319.55 290.7 319.5
Q 290.7 319.2 290.7 318.9 290.75 318.9 290.8 318.9 290.8 318.85 290.8 318.8 290.8 318.5 290.8 318.15 290.85 318.15 290.9 318.15 290.9 318.1 290.9 318.05 290.9 317.8 290.9 317.5
L 290.95 317.5
Q 290.95 317.45 290.95 317.4 290.95 317.1 290.95 316.85 291 316.85 291.05 316.85 291.05 316.8 291.05 316.75 291.05 316.45 291.05 316.15 291.1 316.15 291.15 316.15
L 291.15 316.1
Q 291.15 316.05 291.15 316 291.15 315.7 291.15 315.4
L 291.2 315.4 291.2 315.35
Q 291.2 315.05 291.2 314.75 291.25 314.75 291.3 314.75 291.3 314.7 291.3 314.65 291.45 314.5 291.4 314.15
L 291.4 314.1
Q 291.4 314.05 291.4 314 291.4 313.7 291.4 313.4
M 289.05 314.3
L 289.05 314.35
Q 289.85 314.5 289.4 315.4 289.4 315.45 289.4 315.5 289.4 315.55 289.4 315.6 289.35 316.6 289.15 317.5
L 289.15 317.55
Q 289.15 318.25 289 318.75
L 289 318.8
Q 289 318.85 289 318.9 288.95 319.55 288.8 320.05 288.8 320.1 288.8 320.15 288.8 320.2 288.8 320.25 288.85 320.6 288.75 320.75
L 288.75 320.8
Q 288.8 321.2 288.65 321.4 288.65 321.45 288.65 321.5 288.7 321.9 288.55 322.05 288.55 322.1 288.55 322.15 288.55 322.2 288.55 322.25 288.55 322.9 288.4 323.4 288.4 323.45 288.4 323.5
L 288.4 323.55
Q 288.4 323.6 288.4 323.65 287.8 328.7 287.15 333.7
L 287.15 333.75
Q 286.8 333.95 286.4 334.1
L 286.4 334.15
Q 285.95 334.4 285.5 334.6 285.5 334.65 285.45 334.65 285.4 334.7 285.3 334.7
L 285.3 334.75
Q 284.6 335.2 283.85 335.55
L 283.8 335.6
Q 283.65 335.75 283.4 335.8
L 283.4 335.85
Q 283.25 335.9 283.1 335.95 283.1 336 283.05 336 280.65 337.35 278.2 338.7 278.2 338.75 278.15 338.75 276.85 339.4 275.6 340.1
L 275.6 340.15
Q 275.45 340.25 275.25 340.25 275.25 340.3 275.25 340.35 275.2 340.45 275 340.45 274.95 340.5 274.85 340.5 273.3 340.15 271.8 339.3 267.05 336.55 262.3 333.85 262.15 333.55 262.15 333.1 261.4 326.45 260.65 319.75 260.65 319.7 260.65 319.65
L 260.6 319.65
Q 260.35 317.05 260 314.6 265.4 312.55 270.9 310.6 271.25 310.45 271.7 310.4
L 271.7 310.35
Q 271.75 310.35 271.8 310.35
L 271.85 310.35
Q 271.85 310.3 271.85 310.25 273.4 309.65 274.95 309.45
L 274.95 309.5
Q 275.05 309.5 275.15 309.55 275.2 309.55 275.2 309.6 275.7 309.7 276.15 309.9 276.2 309.9 276.2 309.95 278.35 310.65 280.55 311.4
L 280.6 311.4
Q 284.85 312.85 289.05 314.3
M 285.05 333.05
Q 284.55 331.95 284.05 330.8 281.6 325.8 279.25 320.7 276.95 315.6 274.5 310.6 274.2 311.6 273.8 312.45 271.45 317.6 269.15 322.75 266.85 327.85 264.45 332.95
L 264.45 333
Q 266.3 333.2 268.2 333.05 268.2 333 268.2 332.95 269.25 330.5 270.2 327.95 270.25 327.95 270.3 327.95 274.95 327.95 279.4 327.9
L 279.45 327.95
Q 280.6 330.5 281.65 333.1 281.7 333.1 281.75 333.1 283.3 333.15 285.05 333.05
M 274.65 317.85
Q 274.65 317.8 274.7 317.8 274.9 318.3 275.1 318.75
L 275.1 318.8
Q 276 320.55 276.85 322.4 276.85 322.45 276.85 322.5
L 276.9 322.5
Q 277.5 323.7 278 324.95 275.3 324.95 272.7 325.05 271.9 325.05 271.7 324.65 273.2 321.3 274.65 317.85 Z"/>
</g>

<g id="Layer0_18_FILL">
<path fill="#FFFFFF" fill-opacity="0.9921568627450981" stroke="none" d="
M 215 125.15
L 235.15 125.15 225.15 107.55 215 125.15
M 235.2 125.2
L 225.2 142.45 245 142.45 235.2 125.2
M 214.95 125.2
L 207.3 138.5
Q 206.15 140.45 205 142.45
L 225.15 142.45 214.95 125.2 Z"/>
</g>

<g id="Layer0_19_FILL">
<path fill="#FFFFFF" fill-opacity="0.9921568627450981" stroke="none" d="
M 237.35 262.6
Q 232.25 257.5 225 257.5 217.75 257.5 212.6 262.6 207.5 267.75 207.5 275 207.5 282.25 212.6 287.35 217.75 292.5 225 292.5 232.25 292.5 237.35 287.35 242.5 282.25 242.5 275 242.5 267.75 237.35 262.6
M 228.3 264.9
Q 228.1 265.05 227.95 265.15 227.65 265.35 227.35 265.6 227.05 265.8 226.8 266 226.5 266.2 226.2 266.4 226.25 266.5 226.3 266.65 226.4 267 226.55 267.4 226.65 267.75 226.75 268.15 226.9 268.5 227 268.9 226.8 268.75 226.65 268.6 226.35 268.4 226.05 268.2 225.75 268 225.5 267.8 225.2 267.55 224.9 267.35 224.7 267.5 224.55 267.65 224.25 267.85 223.95 268.05 223.65 268.25 223.4 268.45 223.1 268.65 222.8 268.9 222.85 268.75 222.9 268.65 223 268.3 223.15 267.9 223.25 267.55 223.35 267.15 223.5 266.8 223.6 266.4 223.4 266.25 223.25 266.15 222.95 265.95 222.65 265.7 222.35 265.5 222.1 265.3 221.8 265.1 221.5 264.9 222 264.9 222.5 264.9 223 264.9 223.5 264.9 223.8 264.9 224.1 264.9 224.25 264.5 224.35 264.15 224.5 263.75 224.6 263.4 224.7 263 224.85 262.65 224.85 262.55 224.9 262.4 225.05 262.8 225.15 263.15 225.25 263.55 225.4 263.9 225.5 264.3 225.65 264.65 225.7 264.8 225.7 264.9 226.2 264.9 226.7 264.9 227.2 264.9 227.7 264.9 228 264.9 228.3 264.9
M 217.85 273.95
Q 218 274.3 218.1 274.7 218.25 275.05 218.35 275.45 218.5 275.8 218.6 276.2 218.65 276.3 218.7 276.4 219.15 276.4 219.65 276.4 220.15 276.4 220.65 276.4 220.95 276.4 221.25 276.4 221.05 276.55 220.9 276.7 220.6 276.9 220.3 277.1 220.05 277.3 219.75 277.5 219.45 277.75 219.15 277.95 219.2 278.05 219.25 278.15 219.35 278.55 219.5 278.9 219.6 279.3 219.75 279.65 219.85 280.05 219.95 280.4 219.8 280.25 219.6 280.15 219.3 279.9 219 279.7 218.75 279.5 218.45 279.3 218.15 279.1 217.85 278.9 217.7 279 217.5 279.15 217.2 279.35 216.9 279.55 216.65 279.8 216.35 280 216.05 280.2 215.75 280.4 215.8 280.3 215.85 280.2 215.95 279.8 216.1 279.45 216.2 279.05 216.35 278.7 216.45 278.3 216.55 277.95 216.4 277.8 216.2 277.65 215.9 277.45 215.6 277.25 215.35 277.05 215.05 276.85 214.75 276.65 214.5 276.4 214.95 276.4 215.45 276.4 215.95 276.4 216.45 276.4 216.75 276.4 217.05 276.4 217.2 276.05 217.3 275.65 217.45 275.3 217.55 274.9 217.7 274.55 217.8 274.15 217.85 274.05 217.85 273.95
M 233.25 277.95
Q 233.3 278.05 233.35 278.15 233.45 278.55 233.55 278.9 233.7 279.3 233.8 279.65 233.95 280.05 234.05 280.4 233.85 280.25 233.7 280.15 233.4 279.9 233.1 279.7 232.8 279.5 232.55 279.3 232.25 279.1 231.95 278.9 231.75 279 231.6 279.15 231.3 279.35 231 279.55 230.7 279.8 230.45 280 230.15 280.2 229.85 280.4 229.9 280.3 229.95 280.2 230.05 279.8 230.15 279.45 230.3 279.05 230.4 278.7 230.55 278.3 230.65 277.95 230.45 277.8 230.3 277.65 230 277.45 229.7 277.25 229.4 277.05 229.15 276.85 228.85 276.65 228.55 276.4 229.05 276.4 229.55 276.4 230.05 276.4 230.55 276.4 230.85 276.4 231.15 276.4 231.3 276.05 231.4 275.65 231.5 275.3 231.65 274.9 231.75 274.55 231.9 274.15 231.9 274.05 231.95 273.95 232.1 274.3 232.2 274.7 232.3 275.05 232.45 275.45 232.55 275.8 232.7 276.2 232.75 276.3 232.75 276.4 233.25 276.4 233.75 276.4 234.25 276.4 234.75 276.4 235.05 276.4 235.35 276.4 235.15 276.55 235 276.7 234.7 276.9 234.4 277.1 234.1 277.3 233.85 277.5 233.55 277.75 233.25 277.95 Z"/>
</g>

<g id="Symbol_2_0_Layer0_0_MEMBER_0_FILL">
<path fill="#F7EEEA" fill-opacity="0.9921568627450981" stroke="none" d="
M 190.05 292.55
L 190.1 292.55
Q 196.508203125 281.6107421875 186.65 270.4 193.1974609375 285.9763671875 190.05 292.55
M 150 273.6
Q 164.300390625 267.751171875 172.45 270.5 159.422265625 264.6369140625 150 273.6 Z"/>

<path fill="#E6C9BD" stroke="none" d="
M 58.1 287.8
Q 57.0470703125 290.023046875 56.4 292.55
L 61.2 292.55
Q 62.4810546875 281.5439453125 71.9 269.25 63.75 274.95 58.1 287.8
M 158.85 251.2
Q 156.45 252.15 154.15 253.75 155.3 257.05 156.3 260.45 156.5 261.1 156.65 261.75 156.2 261.2 155.65 260.65
L 159.6 265.95
Q 161.05 265.75 162.45 265.6 164.55 265.35 166.6 265.25 160.85 260.1 158.85 251.2
M 91.8 270.05
Q 91.75 269.85 91.75 269.6 91.7 268.6 92.8 264.15 86.35 271.55 90.55 275.05 90.9 274.75 91.3 274.35 92.85 272.9 94.35 271.1 93.2 271.1 92.7 270.95 92 270.7 91.8 270.05
M 84.6 270.45
Q 83.85 270.8 83.3 271.3 80.15 273.5 81.2 277 81.85 277.35 82.55 277.3 83.1 277.25 84.3 276.7 84.9 276.45 85.75 276.05 84.8 275.4 84.6 274.05 84.5 273.75 84.5 273.45 84.4 271.85 84.6 270.45
M 81.2 265.3
Q 81.5 264.75 81.95 264.4 78.75 265.45 77.3 266.4 76.5 266.95 76.2 267.4 75.3 268.9 74.8 272.2 74.25 275.4 75.35 275.95 76.5 276.5 79.9 275.5 79.25 274.45 79.15 272.9 78.95 269.35 80.35 266.5 80.75 265.85 81.2 265.3
M 101.9 223.95
Q 104.25 224.15 106.35 223.95 118 222.85 119.95 209.85
L 119.35 209.7 67.2 193.75
Q 68.25 197.05 67.35 198.4
L 67.8 198.6
Q 83.5 220.75 101.9 223.95 Z"/>

<path fill="#E54D26" stroke="none" d="
M 31.4 269.6
L 37.9 292.55 48.85 292.55 32.8 269.2 31.4 269.6
M 108.75 243.55
Q 106.9751953125 236.0982421875 104.9 228.4 96.5 229 88.15 225.25 71.45 216.6 63.7 200.15
L 63.2 200.45 38.8 215.55
Q 28.6 225.1 27.2 241.95 27.11171875 242.7505859375 27.05 243.55 26.604296875 248.64375 26.95 253.7 27.6 257.3 28.85 260.75 30.4 265.1 32.8 269.2
L 48.85 292.55 52.85 292.55
Q 57.613671875 268.0421875 81.2 260.5 81.45 260.4 81.75 260.35
L 81 259.4 70.35 245.9 81 259.4
Q 80.2 255.35 79.45 251.3 79.45 251.1 79.4 250.9 97.5 252.1 110.5 250.85 109.6736328125 247.230078125 108.75 243.55
M 152.95 250.55
Q 153.55 252.15 154.15 253.75 156.45 252.15 158.85 251.2 166.15 248.25 174.15 251.1 176.65 252 179.3 253.55
L 175.85 249.4
Q 174.6 248.3 171.35 247.55 160.6 244.85 152.95 250.55
M 119.95 209.6
L 119.95 209.85
Q 118 222.85 106.35 223.95
L 104.9 228.4
Q 110.15 228.05 115.3 226 123.3 221.5 122.45 209.25
L 119.95 209.6 Z"/>

<path fill="#E6C9BD" fill-opacity="0.9921568627450981" stroke="none" d="
M 126.55 292.55
Q 128.752734375 287.599609375 137.3 279.35 133.85859375 282.5451171875 130.2 285.5 125.617578125 289.174609375 120.95 292.55
L 126.55 292.55 Z"/>

<path fill="#CF3D18" stroke="none" d="
M 82 264.35
Q 82.8 263.5 83.8 263
L 81.75 260.35
Q 81.45 260.4 81.2 260.5 57.613671875 268.0421875 52.85 292.55
L 56.4 292.55
Q 57.0470703125 290.023046875 58.1 287.8 63.75 274.95 71.9 269.25 74.45 267.45 77.3 266.4 78.75 265.45 81.95 264.4 81.95 264.35 82 264.35
M 104.9 228.4
L 106.35 223.95
Q 104.25 224.15 101.9 223.95 83.5 220.75 67.8 198.6
L 67.2 198.5 63.7 200.15
Q 71.45 216.6 88.15 225.25 96.5 229 104.9 228.4 Z"/>

<path fill="#EBD7CD" stroke="none" d="
M 112.5 260
Q 112.35 260.05 112.25 260.15 107.35 262.3 102.6 264.6 102.15 265.2 101.6 265.85 101.05 266.5 100.4 267.2 98.4 269.4 96.85 270.35 95.7 271 94.75 271.05 94.5 271.05 94.35 271.1 92.85 272.9 91.3 274.35 90.9 274.75 90.55 275.05 88.8 276.4 87.6 276.5 86.45 276.55 85.75 276.05 84.9 276.45 84.3 276.7 83.1 277.25 82.55 277.3 81.85 277.35 81.2 277 80.85 276.75 80.5 276.45 79.5 277 78.5 277.65 79.5 277 80.5 276.45 80.35 276.3 80.25 276.15 80.05 275.85 79.9 275.5 76.5 276.5 75.35 275.95 74.25 275.4 74.8 272.2 75.3 268.9 76.2 267.4 76.5 266.95 77.3 266.4 74.45 267.45 71.9 269.25 62.4810546875 281.5439453125 61.2 292.55
L 120.95 292.55
Q 125.617578125 289.174609375 130.2 285.5 133.85859375 282.5451171875 137.3 279.35
L 137.4 279.25
Q 137.58046875 279.1080078125 137.75 278.95 139.5427734375 277.3296875 141.3 275.65 139.5427734375 277.3296875 137.75 278.95 137.58046875 279.1080078125 137.4 279.25
L 137.3 279.35
Q 128.752734375 287.599609375 126.55 292.55
L 190.05 292.55
Q 193.1974609375 285.9763671875 186.65 270.4 196.508203125 281.6107421875 190.1 292.55
L 192.8 292.55
Q 192.8345703125 292.525 192.85 292.5 195.2 286.35 194.5 280.55 192.85 272.3 187.1 267.75
L 179.35 257.75 174.15 251.1
Q 166.15 248.25 158.85 251.2 160.85 260.1 166.6 265.25 168.3 265.15 170.05 265.2 171.85 265.25 173.75 265.4 171.85 265.25 170.05 265.2 168.3 265.15 166.6 265.25 164.55 265.35 162.45 265.6 161.05 265.75 159.6 265.95 153.7 267 147.85 269.15 144.75 272.3765625 141.5 275.4 144.75 272.3765625 147.85 269.15 153.7 267 159.6 265.95
L 155.65 260.65
Q 150.8 255.35 146.4 252.9 143.85 251.45 141.45 250.9 134.35 249.35 131.15 252.7 130.65 252.85 130.2 253 121.2 256.25 112.5 260
M 126.85 257.8
Q 139.6 249.4 144.7 255.95 134.2 254.15 126.85 257.8
M 172.45 270.5
Q 164.300390625 267.751171875 150 273.6 159.422265625 264.6369140625 172.45 270.5
M 86.45 264.7
Q 87.1 263.45 88.25 262.45
L 85.15 262.4
Q 84.45 262.6 83.8 263 82.8 263.5 82 264.35 81.95 264.35 81.95 264.4 81.5 264.75 81.2 265.3 80.75 265.85 80.35 266.5 78.95 269.35 79.15 272.9 79.25 274.45 79.9 275.5 80.05 275.85 80.25 276.15 80.35 276.3 80.5 276.45 80.85 276.75 81.2 277 80.15 273.5 83.3 271.3 83.85 270.8 84.6 270.45 84.7 269.15 85 268 85.5 266.2 86.45 264.7
M 95.6 259.35
L 93.85 259.3
Q 90.45 260.35 88.25 262.45 87.1 263.45 86.45 264.7 85.5 266.2 85 268 84.7 269.15 84.6 270.45 84.4 271.85 84.5 273.45 84.5 273.75 84.6 274.05 84.8 275.4 85.75 276.05 86.45 276.55 87.6 276.5 88.8 276.4 90.55 275.05 86.35 271.55 92.8 264.15 92.95 263.6 93.05 263.05 93.2 262.5 93.8 261.5 94.55 260.1 95.35 259.6 95.45 259.45 95.6 259.35
M 103 264
Q 103.6 263.2 104.1 262.4 103.6 263.2 103 264
L 111.35 260.45
Q 108.55 259.5 104.45 258 101.45 257 99.15 257.15
L 99.05 257.2
Q 99 256.8 95.6 259.35 95.45 259.45 95.35 259.6 94.55 260.1 93.8 261.5 93.2 262.5 93.05 263.05 92.95 263.6 92.8 264.15 91.7 268.6 91.75 269.6 91.75 269.85 91.8 270.05 92 270.7 92.7 270.95 93.2 271.1 94.35 271.1 94.5 271.05 94.75 271.05 95.7 271 96.85 270.35 98.4 269.4 100.4 267.2 101.05 266.5 101.6 265.85 102.15 265.2 102.6 264.6 102.8 264.3 103 264
M 67.35 198.4
Q 67.25 198.5 67.2 198.5
L 67.8 198.6 67.35 198.4 Z"/>

<path fill="#F7EEEA" stroke="none" d="
M 144.7 255.95
Q 139.6 249.4 126.85 257.8 134.2 254.15 144.7 255.95 Z"/>

<path fill="#006600" stroke="none" d="
M 28.85 260.75
L 31.4 269.6 32.8 269.2
Q 30.4 265.1 28.85 260.75
M 85.15 262.4
L 81.75 260.35 83.8 263
Q 84.45 262.6 85.15 262.4 Z"/>

<path fill="#FFFFFF" stroke="none" d="
M 144.05 243.55
Q 143.5875 242.4234375 143.05 241.25 141.6978515625 242.3486328125 139 243.55 133.7595703125 245.9029296875 123.4 248.65 117.7 250.15 110.5 250.85
L 112.25 260.15
Q 112.35 260.05 112.5 260 121.2 256.25 130.2 253 130.65 252.85 131.15 252.7 134.35 249.35 141.45 250.9 143.85 251.45 146.4 252.9 146.1126953125 248.713671875 144.05 243.55 Z"/>

<path fill="#F16528" stroke="none" d="
M 134.1 206.55
Q 128.85 205.6 122.45 209.25 123.3 221.5 115.3 226 110.15 228.05 104.9 228.4 106.9751953125 236.0982421875 108.75 243.55 109.6736328125 247.230078125 110.5 250.85 117.7 250.15 123.4 248.65 133.7595703125 245.9029296875 139 243.55 141.6978515625 242.3486328125 143.05 241.25 143.5875 242.4234375 144.05 243.55 146.1126953125 248.713671875 146.4 252.9 150.8 255.35 155.65 260.65
L 156.3 260.45
Q 155.3 257.05 154.15 253.75 153.55 252.15 152.95 250.55 151.6236328125 247.0130859375 150.1 243.55 147.673828125 238.0052734375 144.75 232.65 140.35 224.65 135 217.1
L 135 217.05
Q 133.6 215.05 132.1 213.15 133.6 215.05 135 217.05
L 135 217.1
Q 140.35 224.65 144.75 232.65 147.673828125 238.0052734375 150.1 243.55 151.6236328125 247.0130859375 152.95 250.55 160.6 244.85 171.35 247.55 174.6 248.3 175.85 249.4
L 159.9 230.1 152.15 217
Q 145.55 208.8 134.1 206.55 Z"/>

<path fill="#003300" stroke="none" d="
M 174.15 251.1
L 179.35 257.75
Q 180.85 255.95 179.85 254.1
L 179.8 254.05 179.3 253.55
Q 176.65 252 174.15 251.1 Z"/>

<path fill="#F3F3F3" stroke="none" d="
M 103 264
Q 102.8 264.3 102.6 264.6 107.35 262.3 112.25 260.15
L 110.5 250.85
Q 97.5 252.1 79.4 250.9 79.45 251.1 79.45 251.3 80.2 255.35 81 259.4
L 81.75 260.35 85.15 262.4 88.25 262.45
Q 90.45 260.35 93.85 259.3
L 95.6 259.35
Q 99 256.8 99.05 257.2
L 99.15 257.15
Q 101.45 257 104.45 258 108.55 259.5 111.35 260.45
L 103 264 Z"/>
</g>

<g id="Symbol_2_0_Layer0_0_MEMBER_1_FILL">
<path fill="#EBD7CD" stroke="none" d="
M 10.25 105.65
Q 13.85 99.1 20.1 104.1
L 20.1 104.05
Q 13.85 99.05 10.25 105.6 9.75 106.55 9.3 107.7 9.8 106.5 10.25 105.65
M 161.7 87.25
Q 161.7 87.2 161.65 87.25
L 160.75 84.25 163.2 93.7
Q 161.75 87.45 161.7 87.25
M 100.95 54.6
Q 101.05 54.65 101.1 54.65 101 54.55 100.95 54.45
L 100.95 54.6
M 163.45 94.8
Q 163.35 94.25 163.2 93.7
L 160.75 84.25 154.9 61.15 154.9 61.2 154.85 61.2 154.5 60.85
Q 154.25 60.25 152.05 58.2 149.55 55.85 148.6 55.8 148.8 56.85 150.35 58.8
L 152.05 60.85 150.9 60.95
Q 149.8 60.85 144.9 58.95 139.95 57.05 138.55 56.1
L 138.35 56.1 138.65 60 137.4 61
Q 131.65 59.35 127.15 57.8 122.5 56.3 121.8 55.7
L 121.65 55.7
Q 121.95 56 123.55 58.15 125.15 60.25 125.75 61.15
L 125 61.2
Q 124.15 61.1 114.2 58.4 104.2 55.65 101.1 54.65 101.6 55.45 103.65 57.7 105.85 60 106.3 60.4 105.35 60.45 97.6 59.55 93.45 59 86.25 58.05 84.15 57.8 82.2 58 80.35 58.15 79 58
L 78.1 58.05 78.25 60.05
Q 78.55 61.2 79.4 63.4 80 65 80.05 65.5
L 78.9 65.7
Q 70.15 62.85 65.7 62.7 65.55 62.7 63 62.65 61.7 62.75 60.6 62.35
L 60.4 62.25
Q 60.7 63.35 62.35 65.5 63.9 67.35 64.35 67.55
L 64.35 67.7 49.75 68.95
Q 46 68.9 44.95 68.8 44.75 68.8 41.05 67.95
L 41.2 69.4
Q 42.15 72.4 42.7 73.8 43.45 76.3 43.65 78.35 43.8 79.65 43.8 80.05 43.8 80.1 43.6 81.7 43.55 82.3 43.5 83 43.45 83.25 42.8 85 43.05 86 43.25 87.1
L 44.3 95.15 34.5 112.65 39.7 138.95 39.65 138.95 31.05 137.1 20.7 105.9
Q 19.25 104.5 14.85 105.25 12.3 105.65 12.35 109.6
L 12.4 110.8 12.85 113.95
Q 13.35 115.75 13.95 117.85 14.3 118.95 14.65 120 17.9 130.2 20.2 134.25 21.95 137.4 24.35 141.25 25.45 142.9 26.65 144.7 30.6 150.65 37.7 147.55 40.1 150.2 46 153.7 48.6 155.15 50.3 160.25 52.9 167.8 54.1 169.85 58.75 177.95 62.35 183.1 64.35 185.85 66.1 187.7 73.15 195.3 87.05 203
L 86.45 202.8 86.25 202.7
Q 86 202.6 85.85 202.55 86.45 202.85 87.1 203.2 92.15 204.75 99.2 209.7 104.7 211.7 116.2 210.25 118.05 210 119.9 209.6 120.25 209.35 120.65 209.2 133.65 203.15 139.25 197.3 148.05 188.25 145.55 176.3 145.55 176.15 145.65 175.8 146.15 174.55 148.7 171 152.7 165.45 153.35 164.2 154.65 161.7 156 157.9 156.4 156.6 157.85 151.6 158.2 150.65 160.3 145.2 162.45 139.95 163.5 136.05 166.45 126 166.95 113.75
L 166.1 107.4
Q 165.9 106.2 165.7 105.05
L 165.7 105.15
Q 165.6 104.45 165.45 103.75
L 164.8 100.15
Q 164.75 100.1 164.75 99.95
L 163.3 94.4
Q 163.4 94.55 163.45 94.8
M 54 105.9
L 54.05 105.65
Q 54.1 105.6 54.2 105.6 54.15 105.7 54 105.9 Z"/>

<path fill="#E6C9BD" stroke="none" d="
M 20.15 104.1
L 20.1 104.1
Q 13.85 99.1 10.25 105.65 9.8 106.5 9.3 107.7 9.3 110.05 9.5 112.35 9.8 116.45 10.7 120.35 11.35 123.25 12.3 126.1 14.15 131.6 17.2 136.6 20.95 154.05 29.2 157.35 30.5 157.85 31.65 158.05 37.25 159.45 40.3 156.55 40.85 158 41.4 159.25
L 47.7 171.25 47.7 171.3 47.8 171.4 47.7 171.4
Q 48.25 172.4 48.9 173.35 51.8 178.5 55.55 183.7 56.3 184.55 57 185.5 62.25 190.3 69.25 194.4
L 84.65 202.1
Q 85.25 202.25 85.8 202.55
L 85.85 202.55
Q 86 202.6 86.25 202.7
L 86.45 202.8 87.05 203
Q 73.15 195.3 66.1 187.7 64.35 185.85 62.35 183.1 58.75 177.95 54.1 169.85 52.9 167.8 50.3 160.25 48.6 155.15 46 153.7 40.1 150.2 37.7 147.55 30.6 150.65 26.65 144.7 25.45 142.9 24.35 141.25 21.95 137.4 20.2 134.25 17.9 130.2 14.65 120 14.3 118.95 13.95 117.85 13.35 115.75 12.85 113.95
L 12.4 110.8 12.35 109.6
Q 12.3 105.65 14.85 105.25 19.25 104.5 20.7 105.9
L 20.15 104.1
M 142.3 49.35
L 142.2 49.45
Q 142.7 49.9 143.75 51.35 143.95 51.6 144.15 51.85 145.35 53.1 146.8 53.7 146.9 53.8 147 53.85 149.05 54.7 150.3 55.3 148.4 55.25 146.5 54.9 142.05 54.1 138.05 52.05 135 50.55 131.1 48.15 131.95 52.7 132.35 53.95
L 132.35 54.15
Q 132.3 54.1 132.25 54.1 123.1 48.05 120.6 46.3 120.3 46.2 120 46.25 117.85 45.9 115.6 45.75 116.05 46.4 117.45 48.5 119.05 50.85 120.35 53.7 118.95 53.6 117.35 53.7 115.45 53.45 111.4 50.95 108.65 49.3 100.35 47.75 96.75 47.15 91.55 46.4 90.35 46.45 89 46.75 90.45 47.55 93.05 49.05 97.7 51.7 100.35 54.25 98.2 53.95 85.95 53.8 74.15 53.1 71.95 50.35 71.6 50.45 71.25 50.55 74.55 55.95 74.9 57.55
L 75.4 60
Q 75 60.1 72 59.3 68.6 58.55 65.9 58.55 63.5 58.55 58.55 58.4 54.45 58.3 52.25 57.05
L 52.2 57.05
Q 52 58.8 54.25 61.4 56.6 64.1 58 63.85
L 53.85 64.7
Q 49.65 65.85 42.8 63.85 41.2 63.3 39.7 62.8 39.1 63.1 34.6 64.75 39.6 73.1 42 81.85 42.3 82.85 42.6 83.85 42.7 84.15 42.7 84.45 42.8 84.7 42.8 85 43.45 83.25 43.5 83 43.55 82.3 43.6 81.7 43.8 80.1 43.8 80.05 43.8 79.65 43.65 78.35 43.45 76.3 42.7 73.8 42.15 72.4 41.2 69.4
L 41.05 67.95
Q 44.75 68.8 44.95 68.8 46 68.9 49.75 68.95
L 64.35 67.7 64.35 67.55
Q 63.9 67.35 62.35 65.5 60.7 63.35 60.4 62.25
L 60.6 62.35
Q 61.7 62.75 63 62.65 65.55 62.7 65.7 62.7 70.15 62.85 78.9 65.7
L 80.05 65.5
Q 80 65 79.4 63.4 78.55 61.2 78.25 60.05
L 78.1 58.05 79 58
Q 80.35 58.15 82.2 58 84.15 57.8 86.25 58.05 93.45 59 97.6 59.55 105.35 60.45 106.3 60.4 105.85 60 103.65 57.7 101.6 55.45 101.1 54.65 101.05 54.65 100.95 54.6
L 100.95 54.45
Q 101 54.55 101.1 54.65 104.2 55.65 114.2 58.4 124.15 61.1 125 61.2
L 125.75 61.15
Q 125.15 60.25 123.55 58.15 121.95 56 121.65 55.7
L 121.8 55.7
Q 122.5 56.3 127.15 57.8 131.65 59.35 137.4 61
L 138.65 60 138.35 56.1 138.55 56.1
Q 139.95 57.05 144.9 58.95 149.8 60.85 150.9 60.95
L 152.05 60.85 150.35 58.8
Q 148.8 56.85 148.6 55.8 149.55 55.85 152.05 58.2 154.25 60.25 154.5 60.85
L 154.85 61.2 154.9 61.2 154.9 61.15 152.95 53.4
Q 152.05 52.6 150.65 51.6 149.85 51 148.65 50.5 146.15 49.5 142.3 49.35 Z"/>

<path fill="#F7EEEA" stroke="none" d="
M 166.55 144.35
Q 166.15 146.3 165.75 148.25 164.45 152.6 162.75 156.7 159 166.9 154.3 175.05 152.45 178.35 150.35 181.35 145.45 199.25 131.6 205.95 126.2 207.95 120.65 209.2 120.25 209.35 119.9 209.6 125.8 208.3 131.6 206.1 145.45 199.45 150.4 181.55 152.5 178.5 154.5 175 159.1 167 162.75 156.9 164.45 152.8 165.75 148.4 166.25 146.4 166.55 144.35 Z"/>

<path fill="#171717" stroke="none" d="
M 164.8 100.15
L 165.45 103.75
Q 165.6 104.45 165.7 105.15
L 165.7 105.05 165.85 100.2 165.8 100.2 164.8 100.15
M 54.05 105.65
L 54 105.9
Q 54.15 105.7 54.2 105.6 54.1 105.6 54.05 105.65 Z"/>
</g>

<g id="Symbol_2_0_Layer0_0_MEMBER_1_MEMBER_0_FILL">
<path fill="#F7EEEA" stroke="none" d="
M 151.75 168.05
L 151.7 167.65
Q 151.6 167.85 151.45 168.1
L 151.75 168.05 Z"/>

<path fill="#261C10" stroke="none" d="
M 88.65 164.8
Q 95.45 170.55 101.55 172.7 110.1 175.6 115.95 175.1 134.6 173.95 137.5 171.75 140.6 169.55 140.8 168.85 144.3 164.1 144.9 159.95 145.05 158.3 144.8 156.85
L 145.95 156.05 145.8 154.1
Q 132.1 160.7 124.15 160.8 108.95 160.3 90 161.2 87.2 161.4 86.85 162.05 86.15 162.85 88.65 164.8
M 91.05 163.2
Q 96.1 162.25 102.9 162.6 109.75 162.95 119.9 162.9 125.5 163.25 131.3 162.25 134.8 161.55 140.15 159.55 140.05 165.35 134.5 170.45 123.2 174.15 110.05 172.95 98.6 170.95 91.05 163.2
M 104.25 132.05
Q 102.2 133.1 101.35 135.2 100.75 136.9 101 138.5 101.5 141.1 103.9 142.9 105.85 144.25 107.5 144.25 99.5 139.05 104.25 132.05
M 140.45 128.1
Q 139.85 127.2 138.45 125.25 143.05 135.75 137.1 140.25 138.55 139.9 139.55 139.05 139.75 139 139.8 138.85 139.95 138.75 140.15 138.6 142.6 136.25 141.75 131.95 141.3 129.6 140.45 128.1 Z"/>

<path fill="#FFFFFF" stroke="none" d="
M 102.9 162.6
Q 96.1 162.25 91.05 163.2 98.6 170.95 110.05 172.95 123.2 174.15 134.5 170.45 140.05 165.35 140.15 159.55 134.8 161.55 131.3 162.25 125.5 163.25 119.9 162.9 109.75 162.95 102.9 162.6
M 89.3 104
Q 88.55 103.45 87.65 103.65 86.7 103.8 86.2 104.55 85.65 105.25 85.85 106.15 86.05 107.05 86.8 107.65 87.55 108.15 88.45 108 89.3 107.8 89.8 107.05 90.35 106.25 90.15 105.4 90.05 104.5 89.3 104
M 148.1 96.65
Q 147.45 96.15 146.65 96.3 145.9 96.45 145.5 97.1 145.15 97.75 145.3 98.65 145.45 99.45 146 99.95 146.7 100.5 147.4 100.3 148.2 100.15 148.6 99.45 149.05 98.8 148.85 97.95 148.75 97.15 148.1 96.65 Z"/>

<path fill="#231F20" stroke="none" d="
M 79.7 102.85
Q 77.8 105.8 78.4 109.3 79.05 112.75 81.9 114.75 84.8 116.85 88.2 116.2 91.6 115.6 93.55 112.65 95.6 109.75 94.95 106.2 94.4 103.55 92.45 101.65 91.1 100.2 89.15 99.55 87.2 99 85.1 99.4 81.75 100 79.7 102.85
M 87.65 103.65
Q 88.55 103.45 89.3 104 90.05 104.5 90.15 105.4 90.35 106.25 89.8 107.05 89.3 107.8 88.45 108 87.55 108.15 86.8 107.65 86.05 107.05 85.85 106.15 85.65 105.25 86.2 104.55 86.7 103.8 87.65 103.65
M 147.9 92.6
Q 146.25 92 144.6 92.3 141.75 92.85 140.1 95.5 138.5 98.2 139.1 101.4 139.7 104.6 142.1 106.55 144.6 108.4 147.4 107.8 150.25 107.4 151.8 104.7 153.4 102.05 152.85 98.8 152.4 96.3 150.75 94.55 149.5 93.25 147.9 92.6
M 146.65 96.3
Q 147.45 96.15 148.1 96.65 148.75 97.15 148.85 97.95 149.05 98.8 148.6 99.45 148.2 100.15 147.4 100.3 146.7 100.5 146 99.95 145.45 99.45 145.3 98.65 145.15 97.75 145.5 97.1 145.9 96.45 146.65 96.3 Z"/>

<path fill="#171717" stroke="none" d="
M 127.3 82.4
L 126.2 82.8 128.9 88.8 127.3 82.4
M 132.35 80.95
L 129.55 89.85
Q 136.35 85.9 144.65 83.95 154.3 81.15 159.95 83.75
L 159.2 80.55
Q 153.75 76.6 132.35 80.95
M 129.4 81.7
L 128.3 82.05 129.45 89.95 129.45 89.9 129.4 81.7
M 131.45 81.15
Q 131 81.25 130.4 81.35
L 129.5 89.9 131.45 81.15
M 54.3 104.6
Q 54.2 104.6 54.1 104.65
L 54.05 104.85
Q 54.15 104.75 54.3 104.6
M 105.75 92.4
L 105.7 92.35 105.65 92.4 105.75 92.4
M 105.6 92.15
L 105.65 92.15 102.65 84.15 100.8 84.35 105.6 92.15
M 106.45 83.65
L 104.5 83.85 105.7 92.15 105.75 92.15 105.7 92.2 105.75 92.4 106.45 83.65
M 98.9 84.55
L 96.05 84.95 104.55 91.5 93.1 85.25 72.8 87.85
Q 60.9 90.3 56.95 96.6
L 54.15 104.5
Q 60.05 97.2 70.9 94.75
L 105.6 92.15 98.9 84.55 Z"/>

<path fill="#E6C9BD" stroke="none" d="
M 129.45 89.9
L 129.45 89.95
Q 128.5 92.35 128.25 95.55
L 128.3 95.55
Q 154.9 81.65 162.9 95.75
L 159.95 83.75
Q 154.3 81.15 144.65 83.95 136.35 85.9 129.55 89.85
L 129.5 89.9 129.45 89.9
M 105.65 92.15
L 105.6 92.15 70.9 94.75
Q 60.05 97.2 54.15 104.5 54.1 104.55 54.05 104.65
L 54.1 104.65
Q 54.2 104.6 54.3 104.6 80.2 95.45 104.3 97.15
L 105.65 92.4 105.7 92.35 105.7 92.2 105.75 92.15 105.7 92.15 105.65 92.15 Z"/>

<path fill="#EBD7CD" stroke="none" d="
M 105.7 92.2
L 105.7 92.35 105.75 92.4 105.7 92.2 Z"/>
</g>

<g id="Symbol_2_0_Layer0_0_MEMBER_1_MEMBER_0_MEMBER_0_FILL">
<path fill="#E6C9BD" stroke="none" d="
M 132.5 144
Q 133.7 142.45 134.8 140.5
L 135.75 138.95
Q 128.25 138.45 117.4 140.65
L 117.45 140.6
Q 117.2 140.65 116.95 140.7 116.65 140.8 116.4 140.85 111.45 142.1 108.35 143.5 115.4 145 119.9 147.45 121.95 148.55 122.45 148.75 123.75 149.25 125.45 149.15 128.55 149.05 132.5 144 Z"/>
</g>

<g id="Symbol_2_0_Layer0_0_MEMBER_1_MEMBER_0_MEMBER_1_FILL">
<path fill="#261C10" stroke="none" d="
M 122.2 141.4
Q 117.85 137.7 113.85 142.7 118.3 140.5 122.2 141.4 Z"/>
</g>

<g id="Symbol_2_0_Layer0_0_MEMBER_1_MEMBER_1_FILL">
<path fill="#F7EEEA" stroke="none" d="
M 134.55 186.75
Q 124.4 178.7 116.8 189.25 125.3 183.2 134.55 186.75
M 167 113.75
Q 166.5 126 163.55 136.05 162.5 139.95 160.35 145.2 158.25 150.65 157.9 151.6 156.45 156.6 156.05 157.9 154.7 161.7 153.4 164.2 152.75 165.45 148.75 171 146.2 174.55 145.7 175.8 145.6 176.15 145.6 176.3 148.1 188.25 139.3 197.3 133.7 203.15 120.7 209.2 126.25 207.95 131.65 205.95 145.5 199.25 150.4 181.35 152.5 178.35 154.35 175.05 159.05 166.9 162.8 156.7 164.5 152.6 165.85 148.25 166.2 146.35 166.6 144.35
L 167 113.75 Z"/>
</g>

<g id="Symbol_2_0_Layer0_0_MEMBER_1_MEMBER_2_FILL">
<path fill="#261C10" stroke="none" d="
M 167.85 144.55
Q 167.8 144.45 167.8 144.35
L 168.3 113.8
Q 168.3 113.7 168.25 113.65
L 165.7 84.05 160.75 84.5
Q 165.05 103.65 165.25 131.05
L 165.35 144.25
Q 165 146.1 164.6 147.9 163.35 152.2 161.65 156.25 157.95 166.4 153.3 174.4 151.4 177.7 149.4 180.65 149.25 180.8 149.25 181 148.5 183.7 147.55 186.1 143.35 196.85 135.15 202.5 133.25 203.75 131.25 204.75 125.9 206.8 120.45 208.05
L 120.5 207.95
Q 120.1 208.05 119.65 208.15
L 119.6 208.2
Q 117.8 208.55 116.05 208.8 105.15 210.15 99.8 208.4 92.7 203.4 87.5 201.85 87.5 201.8 87.45 201.8
L 86.9 201.65
Q 86.8 201.5 86.65 201.5 86.45 201.45 86.3 201.4
L 86.4 201.5
Q 85.85 201.15 85.1 200.95
L 69.9 193.35
Q 63.1 189.25 57.95 184.7 57.3 183.8 56.6 182.9
L 56.6 182.95
Q 54.55 180 49.15 171.1
L 49.35 171.25 41.8 153.65
Q 36.75 156.95 34.35 157.15 25.4 156.2 21.9 146.15 18.45 136.1 18.3 135.95 15.3 131.1 13.55 125.7 12.6 122.9 11.95 120.1 11.1 116.25 10.8 112.3
L 10.8 112.25
Q 9.1 103.05 15.1 102.05
L 7.65 101.4
Q 8.2 111.25 8.3 112.45 8.6 116.65 9.5 120.6 10.25 123.6 11.2 126.45 13.05 132.05 16.05 137.05 19.9 154.65 28.3 158.3 36.5 160.75 39.75 157.4
L 45.05 168.85
Q 51.8 180.5 54.6 184.4 55.3 185.35 56.05 186.3 56.1 186.35 56.2 186.5 61.55 191.3 68.65 195.5 68.75 195.5 68.75 195.55
L 84.15 203.2
Q 84.25 203.25 84.35 203.3 84.9 203.45 85.35 203.7
L 85.4 203.75
Q 85.6 203.75 85.9 203.9 86 203.95 86.1 204
L 86.7 204.2 86.75 204.2
Q 91.65 205.7 98.5 210.5 98.65 210.6 98.8 210.7 104.55 212.8 116.4 211.3 118.3 211 120.15 210.55 120.5 210.5 120.95 210.45
L 121 210.45
Q 126.6 209.15 132.1 207.1 132.15 207.1 132.15 207.05 136.3 205.05 139.7 202.1 146.6 196.05 150.25 185.85 150.95 183.95 151.55 181.9 153.55 178.95 155.4 175.65
L 155.4 175.7
Q 160.2 167.45 164 157.15
L 163.95 157.2
Q 165.65 153 167 148.6 167 148.55 167 148.5 167.45 146.6 167.85 144.55 Z"/>
</g>

<g id="Symbol_2_0_Layer0_0_MEMBER_1_MEMBER_3_FILL">
<path fill="#171717" stroke="none" d="
M 31.7 158.1
Q 30.55 157.85 29.25 157.35 33.2 166.35 47.75 171.4
L 47.85 171.4 47.75 171.3 47.75 171.25 41.45 159.25
Q 40.9 158 40.4 156.55 37.3 159.45 31.7 158.1 Z"/>
</g>

<g id="Symbol_2_0_Layer0_0_MEMBER_1_MEMBER_3_MEMBER_0_FILL">
<path fill="#292929" stroke="none" d="
M 165.7 48.4
Q 165.45 52 163.75 54.1 161.7 33.9 146.65 29.85 156.15 44.45 156.55 52.45 150.9 46.95 148.05 50.35 151.85 50.2 154.05 53.3
L 164 95.2 165.7 48.4
M 17.2 75.05
Q 10.55 82 9.7 91.45 5.05 80.05 4.95 69.9 1.7 71.2 1.5 76.6
L 8.75 105.05
Q 17.2 96.85 21.25 102.85
L 31.7 136.85 39 138.1 33.45 112.3
Q 39 104.55 43.35 95.65 43.65 91.15 42.6 86.85 39.05 97.1 31.05 105.8 28.3 96.9 29.15 84 23.8 89.9 21.4 96.85 17.35 86.1 17.2 75.05
M 106.15 10.5
Q 109 9.65 112.1 9.95 110 8.3 99.25 9.05 100.65 7.55 104.4 7.05 101.3 4.25 82.1 7.9 69.3 9.15 60.35 11.35 52.55 14.4 46.65 18.6 50 17.75 53.4 18 46.9 19.85 39.65 23.8 34.6 27.2 29.5 29.15 31.95 29.45 34.35 28.7
L 19.7 39.5
Q 23 40.25 26.45 38.9 22.55 41.65 20.8 44.55 22.9 44.7 26.6 43.95 22.05 48.85 20 56.2
L 31.75 48.8
Q 34.75 46.3 38.1 47.3 43.55 51.5 45.3 51.9 43.25 49.1 43.35 41.95 56.4 46.05 66 50.5 66.1 46.65 61.05 43.5 71.6 47.05 79.65 46.4 70.95 44 59.45 34.7 85.3 24.05 95.95 29.75 85.9 30.35 77.75 35.7 99.35 37.45 112.05 46.55 111.8 40.05 106.2 34 112.1 35.5 119.85 39.55 114.8 30.7 105.7 21.15 112.75 18.95 132.85 29.65 120.95 19 106.15 10.5 Z"/>

<path fill="#171717" stroke="none" d="
M 162.6 95.3
L 164 95.2 154.05 53.3
Q 151.85 50.2 148.05 50.35 150.9 46.95 156.55 52.45 156.15 44.45 146.65 29.85 161.7 33.9 163.75 54.1 165.45 52 165.7 48.4
L 164 95.2 162.6 95.3 166.5 99.9 168.1 49.25 158.8 29.25
Q 149.8 18.65 136.35 9.9 118.75 3.1 97.15 0
L 62.55 3
Q 44.95 10.6 30.45 22.15
L 5.15 46.15
Q 0.05 60.05 0 77.05
L 8.25 108.65
Q 14.75 98.55 19.9 104.95
L 30.5 137.8 40.55 139.85 35.4 113.05 44.8 95.6
Q 45.55 84.4 36.2 65.45
L 39.8 64
Q 49.6 67.05 58.95 64.9 53.95 61.75 53.1 58.3 59.05 59.7 64.85 59.1 71.1 58.45 76 61.2 76.25 57 73.85 52.6 81.3 54.6 86.9 54.15 94.55 53.7 102.3 54.45 97.65 52.5 91.45 47.4 100 46.85 107.3 50.35 115.85 54.55 121.1 54.9 115.5 50.1 117.55 46.9 125.95 54.95 134.55 55.5 131.8 52.95 132.4 49.8 141.8 57.5 151.1 56.4 147.3 56 144.2 50.55 151.1 51.8 152.3 53.5
L 162.6 95.3
M 112.1 9.95
Q 109 9.65 106.15 10.5 120.95 19 132.85 29.65 112.75 18.95 105.7 21.15 114.8 30.7 119.85 39.55 112.1 35.5 106.2 34 111.8 40.05 112.05 46.55 99.35 37.45 77.75 35.7 85.9 30.35 95.95 29.75 85.3 24.05 59.45 34.7 70.95 44 79.65 46.4 71.6 47.05 61.05 43.5 66.1 46.65 66 50.5 56.4 46.05 43.35 41.95 43.25 49.1 45.3 51.9 43.55 51.5 38.1 47.3 34.75 46.3 31.75 48.8
L 20 56.2
Q 22.05 48.85 26.6 43.95 22.9 44.7 20.8 44.55 22.55 41.65 26.45 38.9 23 40.25 19.7 39.5
L 34.35 28.7
Q 31.95 29.45 29.5 29.15 34.6 27.2 39.65 23.8 46.9 19.85 53.4 18 50 17.75 46.65 18.6 52.55 14.4 60.35 11.35 69.3 9.15 82.1 7.9 101.3 4.25 104.4 7.05 100.65 7.55 99.25 9.05 110 8.3 112.1 9.95
M 9.7 91.45
Q 10.55 82 17.2 75.05 17.35 86.1 21.4 96.85 23.8 89.9 29.15 84 28.3 96.9 31.05 105.8 39.05 97.1 42.6 86.85 43.65 91.15 43.35 95.65 39 104.55 33.45 112.3
L 39 138.1 31.7 136.85 21.25 102.85
Q 17.2 96.85 8.75 105.05
L 1.5 76.6
Q 1.7 71.2 4.95 69.9 5.05 80.05 9.7 91.45 Z"/>
</g>

<path id="Symbol_2_0_Layer0_0_MEMBER_0_1_STROKES" stroke="#171717" stroke-width="2" stroke-linejoin="round" stroke-linecap="round" fill="none" d="
M 175.85 249.4
L 159.9 230.1 152.15 217
Q 145.55 208.8 134.1 206.55 128.85 205.6 122.45 209.25 123.3 221.5 115.3 226 110.15 228.05 104.9 228.4
M 146.4 252.9
Q 150.8 255.35 155.65 260.65
M 156.3 260.45
Q 155.3 257.05 154.15 253.75 153.55 252.15 152.95 250.55 151.6236328125 247.0130859375 150.1 243.55 147.673828125 238.0052734375 144.75 232.65 140.35 224.65 135 217.1
L 135 217.05
Q 133.6 215.05 132.1 213.15
M 119.95 209.6
L 119.35 209.7 119.95 209.85
Q 118 222.85 106.35 223.95
M 104.9 228.4
Q 96.5 229 88.15 225.25 71.45 216.6 63.7 200.15
M 63.2 200.45
L 38.8 215.55
Q 28.6 225.1 27.2 241.95 27.11171875 242.7505859375 27.05 243.55 26.604296875 248.64375 26.95 253.7 27.6 257.3 28.85 260.75 30.4 265.1 32.8 269.2
L 48.875 292.55
M 52.875 292.55
Q 57.613671875 268.0421875 81.2 260.5 81.45 260.4 81.75 260.35
L 81 259.4 70.35 245.9
M 67.8 198.6
Q 83.5 220.75 101.9 223.95 104.25 224.15 106.35 223.95
M 104.1 262.4
Q 103.6 263.2 103 264 102.8 264.3 102.6 264.6
M 111.35 260.45
Q 108.55 259.5 104.45 258 101.45 257 99.15 257.15
L 99.05 257.2
Q 99 256.8 95.6 259.35 95.45 259.45 95.35 259.6 94.55 260.1 93.8 261.5 93.2 262.5 93.05 263.05 92.95 263.6 92.8 264.15 91.7 268.6 91.75 269.6 91.75 269.85 91.8 270.05 92 270.7 92.7 270.95 93.2 271.1 94.35 271.1 94.5 271.05 94.75 271.05 95.7 271 96.85 270.35 98.4 269.4 100.4 267.2 101.05 266.5 101.6 265.85 102.15 265.2 102.6 264.6 107.35 262.3 112.25 260.15 112.35 260.05 112.5 260 121.2 256.25 130.2 253 130.65 252.85 131.15 252.7 134.35 249.35 141.45 250.9 143.85 251.45 146.4 252.9
M 95.6 259.35
L 93.85 259.3
Q 90.45 260.35 88.25 262.45 87.1 263.45 86.45 264.7 85.5 266.2 85 268 84.7 269.15 84.6 270.45 84.4 271.85 84.5 273.45 84.5 273.75 84.6 274.05 84.8 275.4 85.75 276.05 86.45 276.55 87.6 276.5 88.8 276.4 90.55 275.05
M 83.8 263
Q 82.8 263.5 82 264.35 81.95 264.35 81.95 264.4 81.5 264.75 81.2 265.3 80.75 265.85 80.35 266.5 78.95 269.35 79.15 272.9 79.25 274.45 79.9 275.5 80.05 275.85 80.25 276.15 80.35 276.3 80.5 276.45 80.85 276.75 81.2 277
M 88.25 262.45
L 85.15 262.4
M 81.75 260.35
L 83.8 263
Q 84.45 262.6 85.15 262.4
M 81.2 277
Q 81.85 277.35 82.55 277.3 83.1 277.25 84.3 276.7 84.9 276.45 85.75 276.05
M 90.55 275.05
Q 90.9 274.75 91.3 274.35 92.85 272.9 94.35 271.1
M 158.85 251.2
Q 156.45 252.15 154.15 253.75
M 155.65 260.65
L 159.6 265.95
Q 161.05 265.75 162.45 265.6 164.55 265.35 166.6 265.25
M 158.85 251.2
Q 166.15 248.25 174.15 251.1 176.65 252 179.3 253.55
L 175.85 249.4
M 155.65 260.65
Q 156.2 261.2 156.65 261.75 156.5 261.1 156.3 260.45
M 141.525 275.425
Q 144.75 272.3765625 147.85 269.15 153.7 267 159.6 265.95
M 137.3 279.375
Q 133.85859375 282.5451171875 130.2 285.5 125.617578125 289.174609375 120.95 292.55
M 192.85 292.5
Q 195.2 286.35 194.5 280.55 192.85 272.3 187.1 267.75
L 179.35 257.75 174.15 251.1
M 137.3 279.375
L 137.4 279.275
Q 137.58046875 279.1080078125 137.75 278.95 139.5427734375 277.3296875 141.3 275.65
M 119.95 209.6
L 122.45 209.25
M 63.7 200.15
L 67.2 198.5
Q 67.25 198.5 67.35 198.4 68.25 197.05 67.2 193.75
L 119.35 209.7
M 37.925 292.55
L 31.4 269.6 28.85 260.75
M 71.9 269.25
Q 74.45 267.45 77.3 266.4 76.5 266.95 76.2 267.4 75.3 268.9 74.8 272.2 74.25 275.4 75.35 275.95 76.5 276.5 79.9 275.5
M 56.425 292.55
Q 57.0470703125 290.023046875 58.1 287.8 63.75 274.95 71.9 269.25
M 78.5 277.65
Q 79.5 277 80.5 276.45
M 81.95 264.4
Q 78.75 265.45 77.3 266.4
M 179.3 253.55
Q 179.4 253.55 179.5 253.65 179.65 253.85 179.8 254.05
L 179.85 254.1
Q 180.85 255.95 179.35 257.75
M 179.8 254.05
L 179.3 253.55
M 166.6 265.25
Q 168.3 265.15 170.05 265.2 171.85 265.25 173.75 265.4"/>

<path id="Symbol_2_0_Layer0_0_MEMBER_1_1_STROKES" stroke="#171717" stroke-width="2" stroke-linejoin="round" stroke-linecap="round" fill="none" d="
M 163.2 93.7
L 160.75 84.25"/>

<path id="Symbol_2_0_Layer0_0_MEMBER_1_MEMBER_3_MEMBER_0_1_STROKES" stroke="#171717" stroke-width="1" stroke-linejoin="round" stroke-linecap="round" fill="none" d="
M 162.6 95.3
L 164 95.2 154.05 53.3
Q 151.85 50.2 148.05 50.35 150.9 46.95 156.55 52.45 156.15 44.45 146.65 29.85 161.7 33.9 163.75 54.1 165.45 52 165.7 48.4
L 164 95.2
M 162.6 95.3
L 152.3 53.5
Q 151.1 51.8 144.2 50.55 147.3 56 151.1 56.4 141.8 57.5 132.4 49.8 131.8 52.95 134.55 55.5 125.95 54.95 117.55 46.9 115.5 50.1 121.1 54.9 115.85 54.55 107.3 50.35 100 46.85 91.45 47.4 97.65 52.5 102.3 54.45 94.55 53.7 86.9 54.15 81.3 54.6 73.85 52.6 76.25 57 76 61.2 71.1 58.45 64.85 59.1 59.05 59.7 53.1 58.3 53.95 61.75 58.95 64.9 49.6 67.05 39.8 64
L 36.2 65.45
Q 45.55 84.4 44.8 95.6
L 35.4 113.05 40.55 139.85 30.5 137.8 19.9 104.95
Q 14.75 98.55 8.25 108.65
L 0 77.05
Q 0.05 60.05 5.15 46.15
L 30.45 22.15
Q 44.95 10.6 62.55 3
L 97.15 0
Q 118.75 3.1 136.35 9.9 149.8 18.65 158.8 29.25
L 168.1 49.25 166.5 99.9 162.6 95.3 Z
M 112.1 9.95
Q 109 9.65 106.15 10.5 120.95 19 132.85 29.65 112.75 18.95 105.7 21.15 114.8 30.7 119.85 39.55 112.1 35.5 106.2 34 111.8 40.05 112.05 46.55 99.35 37.45 77.75 35.7 85.9 30.35 95.95 29.75 85.3 24.05 59.45 34.7 70.95 44 79.65 46.4 71.6 47.05 61.05 43.5 66.1 46.65 66 50.5 56.4 46.05 43.35 41.95 43.25 49.1 45.3 51.9 43.55 51.5 38.1 47.3 34.75 46.3 31.75 48.8
L 20 56.2
Q 22.05 48.85 26.6 43.95 22.9 44.7 20.8 44.55 22.55 41.65 26.45 38.9 23 40.25 19.7 39.5
L 34.35 28.7
Q 31.95 29.45 29.5 29.15 34.6 27.2 39.65 23.8 46.9 19.85 53.4 18 50 17.75 46.65 18.6 52.55 14.4 60.35 11.35 69.3 9.15 82.1 7.9 101.3 4.25 104.4 7.05 100.65 7.55 99.25 9.05 110 8.3 112.1 9.95 Z
M 9.7 91.45
Q 10.55 82 17.2 75.05 17.35 86.1 21.4 96.85 23.8 89.9 29.15 84 28.3 96.9 31.05 105.8 39.05 97.1 42.6 86.85 43.65 91.15 43.35 95.65 39 104.55 33.45 112.3
L 39 138.1 31.7 136.85 21.25 102.85
Q 17.2 96.85 8.75 105.05
L 1.5 76.6
Q 1.7 71.2 4.95 69.9 5.05 80.05 9.7 91.45 Z"/>
</defs>

<g transform="matrix( 1, 0, 0, 1, 0,0) ">
<use xlink:href="#Layer0_0_FILL"/>
</g>

<g transform="matrix( 1, 0, 0, 1, -198.9,-73.55) ">
<use xlink:href="#Layer0_1_FILL"/>
</g>

<g transform="matrix( 1, 0, 0, 1, 0.05,0) ">
<use xlink:href="#Layer0_2_FILL"/>
</g>

<g transform="matrix( 1, 0, 0, 1, 0.05,0) ">
<use xlink:href="#Layer0_3_FILL"/>
</g>

<g transform="matrix( 1, 0, 0, 1, 250.95,-149.2) ">
<use xlink:href="#Layer0_4_FILL"/>
</g>

<g transform="matrix( 1, 0, 0, 1, -50,-299.95) ">
<use xlink:href="#Layer0_5_FILL"/>
</g>

<g transform="matrix( 1, 0, 0, 1, 251.1,-99.95) ">
<use xlink:href="#Layer0_6_FILL"/>
</g>

<g transform="matrix( 1, 0, 0, 1, 0.05,0) ">
<use xlink:href="#Layer0_7_FILL"/>
</g>

<g transform="matrix( 1, 0, 0, 1, -250.3,150.3) ">
<use xlink:href="#Layer0_8_FILL"/>
</g>

<g transform="matrix( 1, 0, 0, 1, 0.05,0) ">
<use xlink:href="#Layer0_9_FILL"/>
</g>

<g transform="matrix( 1, 0, 0, 1, 0.05,0) ">
<use xlink:href="#Layer0_10_FILL"/>
</g>

<g transform="matrix( 1, 0, 0, 1, 0.05,0) ">
<use xlink:href="#Layer0_11_FILL"/>
</g>

<g transform="matrix( 1, 0, 0, 1, 49.85,-1.05) ">
<use xlink:href="#Layer0_12_FILL"/>
</g>

<g transform="matrix( 1, 0, 0, 1, 0,0) ">
<use xlink:href="#Layer0_13_FILL"/>
</g>

<g transform="matrix( 1, 0, 0, 1, 0.05,0) ">
<use xlink:href="#Layer0_14_FILL"/>
</g>

<g transform="matrix( 1, 0, 0, 1, 201.5,149.5) ">
<use xlink:href="#Layer0_15_FILL"/>
</g>

<g transform="matrix( 1, 0, 0, 1, -0.45,-300.5) ">
<use xlink:href="#Layer0_16_FILL"/>
</g>

<g transform="matrix( 1, 0, 0, 1, -49,-99.6) ">
<use xlink:href="#Layer0_17_FILL"/>
</g>

<g transform="matrix( 1, 0, 0, 1, 0.05,0) ">
<use xlink:href="#Layer0_18_FILL"/>
</g>

<g transform="matrix( 1, 0, 0, 1, 0.05,0) ">
<use xlink:href="#Layer0_19_FILL"/>
</g>

<g filter="url(#Filter_1)" transform="matrix( 1, 0, 0, 1, 0,0) ">
<g transform="matrix( 1, 0, 0, 1, 57.7,7.1) ">
<g transform="matrix( 1, 0, 0, 1, 0,0) ">
<use xlink:href="#Symbol_2_0_Layer0_0_MEMBER_0_FILL"/>

<use xlink:href="#Symbol_2_0_Layer0_0_MEMBER_0_1_STROKES"/>
</g>

<g transform="matrix( 1, 0, 0, 1, 0,0) ">
<use xlink:href="#Symbol_2_0_Layer0_0_MEMBER_1_FILL"/>

<use xlink:href="#Symbol_2_0_Layer0_0_MEMBER_1_1_STROKES"/>
</g>

<g transform="matrix( 1, 0, 0, 1, 0,0) ">
<use xlink:href="#Symbol_2_0_Layer0_0_MEMBER_1_MEMBER_0_FILL"/>
</g>

<g transform="matrix( 1, 0, 0, 1, 0,0) ">
<use xlink:href="#Symbol_2_0_Layer0_0_MEMBER_1_MEMBER_0_MEMBER_0_FILL"/>
</g>

<g transform="matrix( 1, 0, 0, 1, 0,0) ">
<use xlink:href="#Symbol_2_0_Layer0_0_MEMBER_1_MEMBER_0_MEMBER_1_FILL"/>
</g>

<g transform="matrix( 1, 0, 0, 1, 0,0) ">
<use xlink:href="#Symbol_2_0_Layer0_0_MEMBER_1_MEMBER_1_FILL"/>
</g>

<g transform="matrix( 1, 0, 0, 1, 0,0) ">
<use xlink:href="#Symbol_2_0_Layer0_0_MEMBER_1_MEMBER_2_FILL"/>
</g>

<g transform="matrix( 1, 0, 0, 1, 0,0) ">
<use xlink:href="#Symbol_2_0_Layer0_0_MEMBER_1_MEMBER_3_FILL"/>
</g>

<g transform="matrix( 1, 0, 0, 1, 0,0) ">
<use xlink:href="#Symbol_2_0_Layer0_0_MEMBER_1_MEMBER_3_MEMBER_0_FILL"/>

<use xlink:href="#Symbol_2_0_Layer0_0_MEMBER_1_MEMBER_3_MEMBER_0_1_STROKES"/>
</g>
</g>
</g>
</svg>
